<svg width="64" height="50" viewBox="0 0 64 50" fill="none" xmlns="http://www.w3.org/2000/svg">
<path d="M29.0069 15.511C28.6839 16.3747 29.667 17.7228 30.2287 12.9691C30.24 12.5714 30.1244 12.1804 29.8987 11.8527C29.2948 11.1505 30.5095 9.12821 30.5095 9.12821C30.5095 9.12821 29.6108 9.88656 29.3651 9.56356C28.9367 8.98075 31.0783 8.44008 30.6851 7.83621C30.3691 7.34469 29.4072 8.61561 28.9929 8.21537C28.2907 7.51319 30.6992 6.29845 29.6951 6.29845C25.7654 6.26743 21.9223 7.452 18.692 9.68994C16.636 10.9459 14.9817 12.7634 13.9242 14.9282C13.2221 16.171 14.0015 17.4981 14.2823 19.1412C14.6392 21.145 14.8737 23.1687 14.9845 25.201C15.0688 27.2654 12.3654 30.032 12.3654 30.032L23.9513 33.915L29.0069 15.511Z" fill="#C1BEC1"/>
<path d="M29.8565 6.31245C30.4183 6.45289 28.3258 7.5553 28.9999 8.21534C29.4142 8.61558 30.4042 7.34466 30.6921 7.83618C31.0853 8.44005 28.9437 8.98072 29.3721 9.56353C29.6178 9.88653 30.5165 9.12818 30.5165 9.12818C30.5165 9.12818 29.3019 11.1434 29.9057 11.8526C30.1314 12.1803 30.247 12.5713 30.2357 12.9691C29.674 17.7228 28.6909 16.3746 29.014 15.511L28.7402 16.494C28.7402 16.494 26.4299 15.6795 26.5493 14.7526C26.6406 14.0504 28.4803 14.6051 28.5014 13.8959C28.5014 13.0252 26.1631 12.7303 26.1631 12.7303L28.0659 11.6279C28.0659 11.6279 25.0818 12.7654 23.9935 11.3892C23.7224 10.9849 23.4294 10.5958 23.1157 10.2236C22.217 9.35287 21.3672 11.2277 20.5035 10.3219C20.2379 10.0365 20.0749 9.67091 20.0401 9.28266L18.7201 9.67588C21.9464 7.44748 25.7812 6.26808 29.7021 6.29842C29.7533 6.2905 29.8053 6.2905 29.8565 6.29842V6.31245Z" fill="#1A191A"/>
<path d="M61.2507 0.0280716C61.2507 0.0280716 37.4611 7.2605 28.7191 15.3425C27.0619 16.8803 26.0226 19.4502 25.1028 21.3251C24.2343 23.0354 23.2391 24.6784 22.1255 26.2403C20.6292 28.2711 19.0236 30.2189 17.3158 32.0753C17.3158 32.0753 22.4907 34.3434 24.9905 35.6705C27.9747 37.2645 33.6974 40.8877 33.6974 40.8877C33.4744 39.7493 33.4744 38.5784 33.6974 37.44C33.9431 36.5342 34.2522 35.4879 35.0176 34.9543C36.2183 34.1117 38.5284 32.2579 38.5284 32.2579C38.5284 32.2579 40.5506 29.1754 41.5758 27.6446C41.9626 26.9111 42.4339 26.2253 42.9801 25.6013C43.7282 24.8677 44.3435 24.0101 44.7988 23.0665L46.9053 19.2888C47.7994 19.0616 48.6301 18.6342 49.3348 18.0389C49.8825 17.5895 49.2156 17.7721 49.6158 17.1822C50.318 16.143 53.0494 16.9997 52.4245 15.5251C52.3524 14.9747 52.4273 14.415 52.6421 13.9031C52.4103 13.9943 54.861 14.6544 56.0969 11.951C56.4129 11.2488 55.2192 11.1435 55.2192 11.1435C54.861 10.975 58.6948 10.3781 58.8283 9.57766C58.9617 8.77718 59.081 9.76023 58.1261 8.96677C57.466 8.40503 60.8224 8.1382 61.4263 7.33772C61.7423 6.91641 60.5626 7.19729 60.373 6.70576C59.9377 5.56824 62.8026 5.7789 62.5428 4.86607C62.3883 4.31837 60.9419 5.18204 60.8436 4.6203C60.661 3.56704 63.7997 4.17091 63.6523 3.1036C63.568 2.40143 61.8547 3.20192 61.5036 2.5489C61.1525 1.89588 63.4416 2.86486 62.7254 1.34816C62.3714 0.775841 61.8691 0.309992 61.2718 0L61.2507 0.0280716Z" fill="#201E20"/>
<path d="M44.9322 47.8953C30.1865 37.454 27.6799 35.8671 16.6066 31.6049C9.33202 28.7962 11.4595 28.74 8.60868 28.438C7.52109 28.2207 6.39154 28.4106 5.43483 28.9717C4.73266 29.386 3.71454 31.2257 3.71454 31.2257C4.79354 31.86 5.8302 32.5637 6.8181 33.3322C7.61426 34.0628 8.34504 34.8616 9.00194 35.7196C12.5901 40.1012 17.0699 41.9058 22.287 44.1457C28.2696 46.7157 29.2035 45.9293 32.3001 46.4208C34.856 46.828 39.9818 47.5021 39.9818 47.5021C41.1682 48.1998 42.5432 48.5091 43.9141 48.3869L43.2119 47.783L44.9322 47.8953Z" fill="#C1BEC1"/>
<path d="M11.3402 30.1092C11.6983 30.1584 11.6912 30.8114 11.6561 31.1625C11.6 31.6751 11.4244 32.609 10.9188 32.5247C10.4132 32.4404 10.666 31.5206 10.7152 31.1204C10.7643 30.7201 10.954 30.0601 11.3402 30.1092Z" fill="#323032"/>
<path d="M9.38809 29.7511C9.38809 29.7511 8.04697 29.2316 7.66077 29.702C7.27457 30.1725 7.87836 30.7272 8.45415 30.7342C8.81226 30.7342 8.98078 29.7863 8.98078 29.7863L9.38809 29.7511Z" fill="#323032"/>
<path d="M5.72283 29.0279C4.86746 28.5771 3.94514 28.2665 2.99127 28.1081C2.17236 28.2145 1.3759 28.4516 0.632061 28.8103L4.40265 29.9618C2.92626 29.9671 1.45313 30.101 0 30.3621C1.44868 30.8387 2.94305 31.1634 4.45888 31.3311C5.25234 31.3311 7.21135 31.1415 7.21135 31.1415L5.72283 29.0279Z" fill="#693232"/>
<path d="M34.1539 46.5402C34.1539 46.5402 35.1579 47.6848 35.8109 47.6075C37.1661 47.439 39.076 48.4782 39.6378 49.0961C40.9508 50.5005 37.0258 49.4893 35.2142 48.7731C33.7466 48.1903 31.3802 46.0065 31.3802 46.0065L34.1539 46.5402Z" fill="#693232"/>
</svg>
