<svg width="21" height="21" viewBox="0 0 21 21" fill="none" xmlns="http://www.w3.org/2000/svg">
<path d="M19.2363 9.38282L15.5367 12.6116L16.645 17.4186C16.7036 17.6699 16.6869 17.9329 16.5969 18.1747C16.5068 18.4166 16.3475 18.6265 16.1388 18.7783C15.9301 18.9301 15.6813 19.017 15.4235 19.0281C15.1657 19.0393 14.9104 18.9742 14.6893 18.841L10.4967 16.298L6.31312 18.841C6.09211 18.9742 5.83673 19.0393 5.57892 19.0281C5.32112 19.017 5.07231 18.9301 4.86363 18.7783C4.65494 18.6265 4.49563 18.4166 4.40561 18.1747C4.31559 17.9329 4.29885 17.6699 4.3575 17.4186L5.4641 12.6165L1.76367 9.38282C1.56795 9.21401 1.42643 8.99118 1.35684 8.74227C1.28726 8.49336 1.29271 8.22944 1.37252 7.98361C1.45233 7.73779 1.60295 7.521 1.80547 7.36043C2.008 7.19986 2.25343 7.10266 2.51098 7.08102L7.38855 6.65856L9.2925 2.11731C9.39193 1.87902 9.55963 1.67548 9.7745 1.53231C9.98937 1.38914 10.2418 1.31274 10.5 1.31274C10.7582 1.31274 11.0106 1.38914 11.2255 1.53231C11.4404 1.67548 11.6081 1.87902 11.7075 2.11731L13.6172 6.65856L18.4931 7.08102C18.7507 7.10266 18.9961 7.19986 19.1986 7.36043C19.4012 7.521 19.5518 7.73779 19.6316 7.98361C19.7114 8.22944 19.7168 8.49336 19.6473 8.74227C19.5777 8.99118 19.4361 9.21401 19.2404 9.38282H19.2363Z" fill="#CECECE"/>
</svg>
