<svg width="80" height="62" viewBox="0 0 80 62" fill="none" xmlns="http://www.w3.org/2000/svg">
<g clip-path="url(#clip0_262_362)">
<path d="M8.14787 40.5134C7.16167 40.6506 5.97048 40.3359 5.78002 39.1883C5.55244 37.7211 6.6839 36.0134 8.20598 35.8036C9.74096 35.6502 11.0823 36.7155 11.8861 37.9228C12.8561 39.3351 12.7738 41.3059 12.2024 42.8328C11.6553 44.363 10.6965 45.7543 9.27449 46.5953C8.55785 47.0424 7.7153 47.4394 6.6952 47.5363C4.75024 47.7542 3.02803 46.4274 2.01116 44.9989C1.53501 44.3694 1.09921 43.6915 0.803831 42.9571C0.213079 41.5174 0.0661986 40.0018 0.0177763 38.5233C-0.0387163 36.5024 0.0500578 34.5107 0.0904097 32.5108C0.146902 30.5142 0.18564 28.5096 0.356732 26.4968C0.466489 25.3556 0.598843 23.9546 1.20735 22.8813C1.32033 22.715 1.43816 22.5342 1.57536 22.3858C4.01423 19.6789 7.92674 19.1802 11.3098 19.5305C14.1022 19.7645 17.1931 20.6748 18.9799 23.1234C21.7174 26.8196 19.7531 31.5811 19.7192 35.6534C19.695 37.295 20.0662 38.9203 21.0815 40.1987C22.7117 42.2453 25.638 43.7416 28.3351 43.6851C29.0356 43.6415 29.8507 43.4914 30.1235 42.7925C30.2494 42.4923 30.3156 42.0177 30.3075 41.4851C30.2849 40.3278 30.0299 39.0801 29.7845 37.8986C29.0743 34.5704 28.206 31.0905 28.6418 27.6008C28.716 26.8454 28.8597 26.082 29.1664 25.375C30.13 23.0733 31.9765 21.2672 34.2184 20.2213C37.2061 18.8412 40.636 18.6589 43.7463 18.8784C40.1308 19.5337 36.0891 20.5764 33.6535 23.4769C32.9578 24.3517 32.4526 25.333 32.2218 26.4177L32.0362 27.2134C31.8086 28.0431 31.7392 28.8824 31.7553 29.7621C31.7925 32.2542 32.4219 34.7334 32.9449 37.232C33.3662 39.4239 33.9585 41.795 33.1128 44.0111C32.3913 45.898 30.4092 46.8503 28.4997 46.9068C24.7486 47.0117 20.8684 45.1006 18.5344 42.1775C13.8391 36.1409 19.1026 28.8517 16.3845 25.0377C15.2708 23.5447 13.3291 23.0039 11.4454 22.7909C10.5625 22.6827 9.65057 22.623 8.76768 22.6763C6.93731 22.7941 5.21187 23.2073 3.98679 24.5325C3.97872 24.5422 3.96258 24.5567 3.95935 24.5615C3.97387 24.5567 3.98356 24.5438 3.98517 24.5292C3.95935 24.5922 3.92868 24.6616 3.9077 24.7278C3.56067 25.9448 3.53485 27.3716 3.45253 28.6855C3.33954 31.2648 3.28305 33.9328 3.23624 36.5137C3.25238 38.6895 3.08452 41.0945 4.46617 42.8764C4.99074 43.5705 5.58633 44.3646 6.41758 44.3162C7.22462 44.2565 7.98485 43.4817 8.58044 42.8732C9.5957 41.8434 10.4931 40.3569 9.98307 38.9575C9.5957 37.9551 8.4497 36.6703 7.3602 37.5887C6.76138 38.0439 6.17547 38.9688 6.55478 39.6935C6.86145 40.2051 7.56358 40.4311 8.15271 40.5134H8.14787Z" fill="#515151"/>
<path d="M31.7488 49.1665C30.9257 49.6604 30.1945 50.2399 29.5731 50.9581C29.4585 51.1034 29.2938 51.3197 29.1857 51.4585C28.0994 53.0225 27.5361 55.0837 28.5384 56.7414C29.0469 57.5452 29.954 58.2295 30.8482 58.4862C31.2598 58.604 31.5229 58.6815 31.7424 58.6637C31.8634 58.6508 31.9135 58.583 32.0265 58.4394C33.2596 56.3104 32.4832 52.18 35.2562 50.9614C37.7145 49.9978 39.5884 52.5528 40.8409 54.2363C41.7335 55.4178 42.7746 57.1094 43.8673 58.031C44.0077 58.144 44.1336 58.2053 44.1449 58.2053C44.1498 58.2053 44.1223 58.1973 44.0691 58.1973C44.0029 58.1973 43.9303 58.215 43.8689 58.2408C43.7947 58.2715 43.7446 58.3135 43.7317 58.3264C43.7172 58.3409 43.7317 58.3312 43.7576 58.286C44.0368 57.7502 44.1465 57.0577 44.2515 56.362C44.4774 54.677 44.542 52.9628 44.6114 51.2357C44.7986 45.3379 44.9019 39.4191 45.2554 33.5213C45.4507 29.98 45.7477 26.4452 45.9866 22.9184C46.0963 20.7927 46.3272 18.3764 45.8349 16.4024C45.3619 14.5672 43.714 13.5164 41.9401 12.9983C39.4593 12.3123 36.6685 12.6013 34.2523 13.5051C33.7632 13.7085 33.2951 13.9474 32.7964 14.1266C29.7538 15.2031 27.152 17.6921 25.6202 20.6151C25.0666 21.632 24.6179 22.7199 24.287 23.8627C24.3241 21.4803 24.9294 19.0511 26.1028 16.8301C26.9825 15.1499 28.2495 13.602 29.7409 12.3866C30.7562 11.5634 31.8634 10.8209 33.1321 10.4578C37.474 8.92763 42.7714 8.75008 46.5434 11.8152C48.9484 13.7586 49.3955 16.5945 49.3584 19.4901C49.339 21.9258 49.1227 24.271 48.9549 26.6695C48.3964 33.7117 48.1075 40.7346 47.9461 47.7978C47.8767 50.1882 47.8299 52.548 47.6475 54.953C47.5991 55.5615 47.5393 56.178 47.4506 56.8091C47.2859 57.8486 47.1148 58.951 46.516 59.9631C45.8268 61.1736 44.4 61.7192 43.1345 61.2656C41.0701 60.5522 39.5206 57.8115 38.2406 56.1409C37.7548 55.4872 37.2932 54.8642 36.7379 54.3348C36.5443 54.1588 36.3909 54.0313 36.2344 53.9635C36.3312 53.9894 36.5346 53.9474 36.6104 53.8651C36.2602 54.4913 36.1553 55.4453 35.989 56.2797C35.6549 58.0391 35.3369 60.1567 33.6228 61.3221C32.4639 62.1308 30.6222 62.0807 29.5359 61.469C28.1737 60.7249 27.1681 59.6338 26.5079 58.2602C25.4217 55.9795 26.1496 53.2485 27.8202 51.4762C28.8548 50.3286 30.3172 49.5216 31.7537 49.1617L31.7488 49.1665Z" fill="#515151"/>
<path d="M55.2643 33.3146C54.2248 32.9821 53.2176 32.4317 52.43 31.6005C51.0806 30.2366 50.5625 28.035 52.2088 26.6421C53.1579 25.8269 54.3265 25.4589 55.5064 25.2168C59.1413 24.4098 63.12 26.0271 65.2441 29.0777C66.7162 31.1905 67.1907 33.9587 66.6451 36.4572C65.9495 39.4094 64.4677 42.1307 62.4243 44.3694C60.9975 45.8689 58.975 47.5766 56.8945 48.0576C54.178 48.6354 52.7738 46.3096 52.685 43.8981C52.4913 40.4779 54.2765 36.7042 57.7855 35.7793C60.2905 35.0869 62.8747 35.6373 65.2038 36.4831C68.0687 37.4951 70.5496 39.4078 72.3977 41.774C73.124 42.6343 73.7697 43.7061 74.5331 44.3646C74.4766 44.342 74.4008 44.3355 74.341 44.3517C74.2442 44.3711 74.2684 44.3856 74.3443 44.321C75.0722 43.5979 75.4467 42.5229 75.7792 41.54C77.503 35.7341 77.1641 27.5879 72.7673 23.062C71.2436 21.4819 69.2389 20.4488 67.7298 18.6798C64.1982 14.6091 67.8153 7.53302 73.1273 7.68474C76.0746 7.70573 78.7023 9.61518 79.5787 12.4237C80.3712 14.9836 80.042 17.8728 78.5538 20.1196C75.3966 24.6422 68.2802 25.8205 63.2733 24.1983C61.585 23.6576 59.9645 22.7392 58.7797 21.3963C56.3667 18.6701 56.1101 14.8512 54.4088 11.7958C51.3227 6.08036 44.3063 2.94744 37.9598 3.30899C33.3048 3.34288 28.8919 4.88755 25.617 8.32553C22.6697 11.3907 20.7973 15.484 19.9725 19.6805C20.1856 15.216 21.5963 10.829 24.2983 7.20375C27.4231 2.99263 32.5865 0.295511 37.8339 0.00497754C41.9514 -0.0773403 46.0834 0.823313 49.699 2.83768C53.3565 4.82783 56.4474 7.98981 58.0292 11.8765C59.1219 14.3428 59.6562 17.5435 61.1992 19.2528C62.3356 20.5231 64.0013 21.1623 65.6509 21.4706C69.2406 22.1582 75.0351 21.0444 76.428 17.2207C77.0495 15.3613 76.9252 12.8595 75.2401 11.6118C74.036 10.7434 72.2718 10.6207 71.108 11.6134C70.1105 12.4237 69.4278 13.9199 69.5731 15.237C70.1493 18.6346 76.88 18.9461 79.2624 28.6935C80.3309 33.2694 80.2017 38.0197 78.8588 42.5116C78.1373 44.9182 76.2634 48.658 73.145 47.2732C72.0765 46.7163 71.5519 45.9222 70.8643 45.0603C69.9411 43.8303 68.9855 42.6166 67.8379 41.661C66.8259 40.8007 65.6702 40.1293 64.4371 39.6434C62.137 38.7573 58.5667 37.8324 56.8977 40.1115C56.1746 41.1074 55.8486 42.4907 55.9115 43.7125C55.9309 44.1402 56.0197 44.6713 56.2392 44.9828C56.2424 44.9941 56.2376 44.9747 56.2311 44.9763C56.2247 44.9747 56.2101 44.9537 56.194 44.9537C56.1617 44.9263 56.1117 44.9198 56.1004 44.9134C56.0584 44.9102 56.1262 44.9215 56.2473 44.894C56.8025 44.7552 57.3206 44.4421 57.8565 44.0805C58.6409 43.5366 59.4044 42.8893 60.0565 42.1791C62.024 40.0437 63.3702 37.3062 63.6091 34.4138C63.835 32.5996 63.3621 30.7886 62.1596 29.4086C60.6472 27.5911 58.1357 26.5371 55.7211 26.776C53.8165 26.9003 51.5003 27.5927 52.1314 29.9202C52.5591 31.452 53.8665 32.6157 55.2643 33.313V33.3146Z" fill="#515151"/>
</g>
<defs>
<clipPath id="clip0_262_362">
<rect width="80" height="61.9337" fill="white"/>
</clipPath>
</defs>
</svg>
