<svg width="28" height="28" viewBox="0 0 28 28" fill="none" xmlns="http://www.w3.org/2000/svg">
<path d="M23.0016 6.16219L14.2516 3.53719C14.1209 3.49797 13.9829 3.48984 13.8486 3.51344C13.7142 3.53705 13.5873 3.59173 13.4778 3.67312C13.3684 3.75452 13.2795 3.86037 13.2182 3.98224C13.157 4.1041 13.125 4.2386 13.125 4.375C13.125 4.375 13.125 7.63282 13.125 9.329C13.125 11.0252 14.875 11.0252 14.875 9.329C14.875 7.63282 14.875 5.55078 14.875 5.55078L22.4984 7.83781C22.6093 7.87393 22.7263 7.88752 22.8425 7.87778C22.9587 7.86804 23.0718 7.83517 23.1751 7.7811C23.2784 7.72703 23.3699 7.65286 23.4442 7.56293C23.5184 7.47301 23.5739 7.36915 23.6075 7.25746C23.641 7.14578 23.6519 7.02851 23.6394 6.91256C23.627 6.79661 23.5915 6.68432 23.5351 6.58228C23.4786 6.48023 23.4024 6.39051 23.3107 6.31836C23.2191 6.24622 23.114 6.19312 23.0016 6.16219Z" fill="#343330"/>
<path d="M7 7L22 22" stroke="#343330" stroke-width="2" stroke-linecap="round"/>
<path d="M13.125 11.6968V16.2157C12.2289 15.4142 11.0848 14.9445 9.88404 14.8852C8.68326 14.8259 7.49849 15.1805 6.52774 15.8898C5.557 16.599 4.85909 17.62 4.55067 18.782C4.24225 19.944 4.34199 21.1767 4.83323 22.274C5.32447 23.3713 6.17744 24.2668 7.24959 24.8107C8.32175 25.3547 9.54811 25.5142 10.7237 25.2626C11.8994 25.011 12.953 24.3635 13.7086 23.4283C14.4642 22.4932 14.8759 21.327 14.875 20.1248V13.6755L13.125 11.6968ZM9.62497 23.6248C8.93274 23.6248 8.25605 23.4195 7.68048 23.0349C7.1049 22.6504 6.6563 22.1037 6.39139 21.4642C6.12649 20.8246 6.05717 20.1209 6.19222 19.442C6.32727 18.763 6.66061 18.1394 7.1501 17.6499C7.63958 17.1604 8.26322 16.8271 8.94216 16.692C9.62109 16.557 10.3248 16.6263 10.9644 16.8912C11.6039 17.1561 12.1505 17.6047 12.5351 18.1803C12.9197 18.7559 13.125 19.4326 13.125 20.1248C13.125 21.053 12.7562 21.9433 12.0998 22.5997C11.4435 23.256 10.5532 23.6248 9.62497 23.6248Z" fill="#343330"/>
</svg>
