<svg width="40" height="40" viewBox="0 0 40 40" fill="none" xmlns="http://www.w3.org/2000/svg">
<path d="M37.1781 16.7516C37.1433 16.5755 37.071 16.4091 36.9661 16.2635C36.8612 16.1179 36.7262 15.9966 36.5703 15.9078L31.9094 13.2516L31.8906 7.99843C31.89 7.81751 31.8502 7.63888 31.7739 7.47486C31.6975 7.31084 31.5865 7.16534 31.4484 7.04843C29.7577 5.61827 27.8107 4.52228 25.7109 3.81874C25.5456 3.76277 25.3703 3.74206 25.1965 3.75794C25.0226 3.77381 24.854 3.82593 24.7016 3.91093L20 6.53905L15.2937 3.90624C15.1412 3.82076 14.9724 3.76825 14.7982 3.75211C14.6241 3.73596 14.4485 3.75653 14.2828 3.81249C12.1843 4.52055 10.2394 5.62078 8.55155 7.05468C8.41369 7.17142 8.30277 7.31666 8.22644 7.4804C8.1501 7.64413 8.11016 7.82246 8.10937 8.00312L8.08593 13.2609L3.42499 15.9172C3.26906 16.006 3.13406 16.1273 3.02918 16.2728C2.9243 16.4184 2.852 16.5849 2.81718 16.7609C2.39061 18.9045 2.39061 21.1111 2.81718 23.2547C2.852 23.4307 2.9243 23.5972 3.02918 23.7428C3.13406 23.8883 3.26906 24.0097 3.42499 24.0984L8.08593 26.7547L8.10468 32.0094C8.10525 32.1903 8.14508 32.3689 8.22142 32.5329C8.29777 32.697 8.4088 32.8424 8.54687 32.9594C10.2376 34.3895 12.1846 35.4855 14.2844 36.1891C14.4497 36.245 14.625 36.2657 14.7988 36.2499C14.9727 36.234 15.1413 36.1819 15.2937 36.0969L20 33.4609L24.7062 36.0937C24.8925 36.1975 25.1024 36.2513 25.3156 36.25C25.4521 36.2499 25.5877 36.2278 25.7172 36.1844C27.8151 35.4766 29.7599 34.3775 31.4484 32.9453C31.5863 32.8286 31.6972 32.6833 31.7735 32.5196C31.8499 32.3558 31.8898 32.1775 31.8906 31.9969L31.9141 26.7391L36.575 24.0828C36.7309 23.994 36.8659 23.8727 36.9708 23.7271C37.0757 23.5815 37.148 23.4151 37.1828 23.2391C37.607 21.0972 37.6054 18.8928 37.1781 16.7516ZM20 26.25C18.7639 26.25 17.5555 25.8834 16.5277 25.1967C15.4999 24.5099 14.6988 23.5338 14.2257 22.3918C13.7527 21.2497 13.6289 19.9931 13.8701 18.7807C14.1112 17.5683 14.7065 16.4547 15.5806 15.5806C16.4547 14.7065 17.5683 14.1112 18.7807 13.8701C19.9931 13.6289 21.2497 13.7527 22.3918 14.2257C23.5338 14.6988 24.5099 15.4999 25.1967 16.5277C25.8834 17.5555 26.25 18.7639 26.25 20C26.25 21.6576 25.5915 23.2473 24.4194 24.4194C23.2473 25.5915 21.6576 26.25 20 26.25Z" fill="white"/>
</svg>
