<svg width="77" height="76" viewBox="0 0 77 76" fill="none" xmlns="http://www.w3.org/2000/svg">
<g filter="url(#filter0_d_359_3703)">
<ellipse cx="38.5807" cy="32.8699" rx="21.8668" ry="21.7044" fill="white"/>
</g>
<path d="M49.9301 31.412L34.2668 21.9013C34.0027 21.7408 33.7003 21.6531 33.3907 21.6475C33.0811 21.6418 32.7756 21.7182 32.5057 21.8689C32.2384 22.0173 32.0157 22.2336 31.8605 22.4957C31.7054 22.7578 31.6234 23.0562 31.6229 23.3602V42.3795C31.6249 42.8355 31.8093 43.2721 32.1355 43.5932C32.4616 43.9143 32.9029 44.0937 33.3623 44.092C33.683 44.0919 33.9974 44.0041 34.2712 43.8384L49.9301 34.3276C50.1818 34.1754 50.3899 33.9614 50.5342 33.7063C50.6785 33.4512 50.7543 33.1635 50.7543 32.8709C50.7543 32.5783 50.6785 32.2907 50.5342 32.0356C50.3899 31.7805 50.1818 31.5665 49.9301 31.4142V31.412ZM33.3623 42.359V23.3742L48.9985 32.8698L33.3623 42.359Z" fill="#2F88D8"/>
<defs>
<filter id="filter0_d_359_3703" x="0.928921" y="0.313275" width="75.3035" height="74.9788" filterUnits="userSpaceOnUse" color-interpolation-filters="sRGB">
<feFlood flood-opacity="0" result="BackgroundImageFix"/>
<feColorMatrix in="SourceAlpha" type="matrix" values="0 0 0 0 0 0 0 0 0 0 0 0 0 0 0 0 0 0 127 0" result="hardAlpha"/>
<feMorphology radius="0.986563" operator="dilate" in="SourceAlpha" result="effect1_dropShadow_359_3703"/>
<feOffset dy="4.93282"/>
<feGaussianBlur stdDeviation="7.39922"/>
<feComposite in2="hardAlpha" operator="out"/>
<feColorMatrix type="matrix" values="0 0 0 0 0.184314 0 0 0 0 0.533333 0 0 0 0 0.847059 0 0 0 0.25 0"/>
<feBlend mode="normal" in2="BackgroundImageFix" result="effect1_dropShadow_359_3703"/>
<feBlend mode="normal" in="SourceGraphic" in2="effect1_dropShadow_359_3703" result="shape"/>
</filter>
</defs>
</svg>
