<svg width="80" height="80" viewBox="0 0 80 80" fill="none" xmlns="http://www.w3.org/2000/svg">
<g filter="url(#filter0_d_211_4456)">
<circle cx="40" cy="35" r="24" fill="white"/>
</g>
<path d="M51.4545 30.2272V39.7727C51.4545 40.279 51.2534 40.7646 50.8954 41.1226C50.5374 41.4806 50.0518 41.6817 49.5455 41.6817H40V46.4545C40.0001 46.6434 39.9442 46.8281 39.8394 46.9852C39.7345 47.1423 39.5854 47.2648 39.4108 47.3371C39.2363 47.4094 39.0443 47.4283 38.859 47.3914C38.6738 47.3545 38.5036 47.2635 38.3701 47.1298L26.9156 35.6753C26.8268 35.5866 26.7564 35.4813 26.7084 35.3655C26.6603 35.2496 26.6356 35.1254 26.6356 34.9999C26.6356 34.8745 26.6603 34.7503 26.7084 34.6344C26.7564 34.5185 26.8268 34.4132 26.9156 34.3246L38.3701 22.87C38.5036 22.7364 38.6738 22.6454 38.859 22.6085C39.0443 22.5716 39.2363 22.5905 39.4108 22.6628C39.5854 22.7351 39.7345 22.8576 39.8394 23.0147C39.9442 23.1718 40.0001 23.3565 40 23.5454V28.3181H49.5455C50.0518 28.3181 50.5374 28.5192 50.8954 28.8773C51.2534 29.2353 51.4545 29.7209 51.4545 30.2272Z" fill="#CECECE"/>
<defs>
<filter id="filter0_d_211_4456" x="0" y="0" width="80" height="80" filterUnits="userSpaceOnUse" color-interpolation-filters="sRGB">
<feFlood flood-opacity="0" result="BackgroundImageFix"/>
<feColorMatrix in="SourceAlpha" type="matrix" values="0 0 0 0 0 0 0 0 0 0 0 0 0 0 0 0 0 0 127 0" result="hardAlpha"/>
<feMorphology radius="1" operator="dilate" in="SourceAlpha" result="effect1_dropShadow_211_4456"/>
<feOffset dy="5"/>
<feGaussianBlur stdDeviation="7.5"/>
<feComposite in2="hardAlpha" operator="out"/>
<feColorMatrix type="matrix" values="0 0 0 0 0 0 0 0 0 0 0 0 0 0 0 0 0 0 0.25 0"/>
<feBlend mode="normal" in2="BackgroundImageFix" result="effect1_dropShadow_211_4456"/>
<feBlend mode="normal" in="SourceGraphic" in2="effect1_dropShadow_211_4456" result="shape"/>
</filter>
</defs>
</svg>
