<svg width="125" height="119" viewBox="0 0 125 119" fill="none" xmlns="http://www.w3.org/2000/svg">
<path fill-rule="evenodd" clip-rule="evenodd" d="M86.5617 0.00099794C90.5054 0.00099794 94.4429 0.557242 98.1866 1.81348C121.255 9.3134 129.567 34.6256 122.624 56.7504C118.686 68.0565 112.249 78.3752 103.818 86.8063C91.7491 98.4937 78.5055 108.869 64.2494 117.806L62.687 118.75L61.062 117.744C46.7559 108.869 33.4373 98.4937 21.2561 86.7438C12.8812 78.3127 6.43754 68.0565 2.43758 56.7504C-4.62485 34.6256 3.68757 9.3134 27.0061 1.68223C28.8186 1.05724 30.6873 0.619741 32.5623 0.375994H33.3123C35.0685 0.119747 36.8122 0.00099794 38.5622 0.00099794H39.2497C43.1872 0.119747 46.9996 0.807239 50.6933 2.06348H51.0621C51.3121 2.18222 51.4996 2.31347 51.6246 2.43222C53.0058 2.87597 54.312 3.37596 55.562 4.06346L57.937 5.12594C58.5109 5.43201 59.155 5.89968 59.7117 6.30387C60.0644 6.55995 60.3821 6.79056 60.6245 6.93842C60.7265 6.9986 60.8301 7.05912 60.9347 7.12013C61.4705 7.43294 62.0288 7.7588 62.4994 8.11966C69.4431 2.81347 77.8743 -0.0615014 86.5617 0.00099794ZM103.187 45.0007C105.749 44.932 107.937 42.8757 108.124 40.2445V39.5008C108.312 30.7446 103.005 22.8134 94.9367 19.751C92.3742 18.8697 89.5617 20.251 88.6242 22.8759C87.7493 25.5009 89.1242 28.3759 91.7492 29.3071C95.7554 30.8071 98.4366 34.7508 98.4366 39.1195V39.3133C98.3179 40.7445 98.7491 42.1257 99.6241 43.1882C100.499 44.2507 101.812 44.8695 103.187 45.0007Z" fill="#E74C3C"/>
</svg>
