<svg width="251" height="230" viewBox="0 0 251 230" fill="none" xmlns="http://www.w3.org/2000/svg">
<g filter="url(#filter0_d_262_344)">
<g filter="url(#filter1_d_262_344)">
<path d="M97.617 180.252C97.1269 181.374 96.5689 182.481 95.7868 183.524C95.3931 184.046 94.9342 184.55 94.3424 184.999C94.199 185.114 94.0295 185.213 93.8679 185.317C93.701 185.419 93.5107 185.505 93.3282 185.597C93.1326 185.675 92.9267 185.745 92.7129 185.808C92.4887 185.85 92.267 185.91 92.0298 185.923C91.5553 185.962 91.0573 185.912 90.5984 185.787C90.137 185.664 89.7146 185.479 89.3391 185.268C88.5831 184.84 87.973 184.32 87.4437 183.791C86.3878 182.721 85.603 181.58 84.886 180.435C84.1743 179.289 83.559 178.123 83.0036 176.946C82.4457 175.771 81.9347 174.586 81.4549 173.396C80.5216 171.014 79.7081 168.61 78.9911 166.191C77.7501 156.295 77.299 146.52 77.8231 136.6C77.9587 134.121 78.162 131.634 78.4671 129.126C78.7747 126.619 79.1736 124.092 79.7785 121.509C80.0862 120.214 80.4381 118.91 80.9022 117.563C81.3715 116.216 81.9216 114.839 82.7716 113.369C83.2044 112.633 83.7024 111.877 84.3907 111.091C84.7322 110.702 85.1259 110.306 85.5769 109.922C86.041 109.536 86.5546 109.16 87.1673 108.826C87.7774 108.495 88.4631 108.207 89.2036 108.017C89.944 107.832 90.7001 107.743 91.4223 107.746C92.1367 107.753 92.812 107.842 93.4272 107.983C94.0321 108.127 94.5979 108.309 95.1011 108.518C96.1127 108.936 96.9392 109.434 97.6718 109.945C98.3992 110.46 99.0432 110.995 99.6246 111.545C100.795 112.652 101.76 113.782 102.675 115.089C102.907 115.415 103.131 115.778 103.342 116.141L103.661 116.686C103.765 116.869 103.851 117.057 103.947 117.242C104.132 117.615 104.323 117.988 104.471 118.369C104.625 118.75 104.795 119.129 104.915 119.515C105.452 121.05 105.788 122.605 105.963 124.129C106.296 127.18 106.062 130.115 105.496 132.887C105.209 134.273 104.842 135.627 104.409 136.945C103.966 138.26 103.455 139.541 102.886 140.794C101.739 143.289 100.352 145.659 98.7199 147.871C97.9116 148.983 97.0226 150.045 96.0866 151.071C95.1454 152.102 94.1521 153.065 93.0492 153.996C91.9542 154.951 90.7731 155.771 89.5764 156.549C88.9663 156.911 88.3641 157.298 87.7357 157.619C87.4229 157.786 87.1126 157.955 86.7997 158.114L85.8481 158.568C85.5326 158.725 85.2093 158.861 84.886 158.996L83.9161 159.401L82.9358 159.764L82.4457 159.944L81.9503 160.103L80.957 160.419L79.9558 160.693C79.2883 160.886 78.6105 161.016 77.9378 161.175C72.5305 162.274 66.9276 162.279 61.4603 160.951C60.0941 160.633 58.7409 160.189 57.406 159.688C56.7412 159.419 56.0764 159.158 55.4272 158.84C54.7702 158.548 54.1314 158.195 53.4926 157.851C52.2307 157.12 50.9871 156.329 49.8321 155.382L49.3941 155.035L48.9717 154.664C48.6927 154.414 48.4086 154.171 48.1374 153.913C47.6055 153.378 47.0658 152.856 46.5731 152.277C44.5681 150.001 42.996 147.266 42.0026 144.463C40.9937 141.655 40.5139 138.821 40.3001 136.118C40.089 133.409 40.1307 130.807 40.2558 128.289C40.2871 127.657 40.3262 127.036 40.3679 126.415C40.4096 125.796 40.4644 125.181 40.4774 124.567C40.5009 123.954 40.4931 123.341 40.5322 122.738C40.5713 122.133 40.6704 121.538 40.8164 120.948C41.1162 119.781 41.4186 118.565 41.7576 117.323C42.0913 116.086 42.4641 114.818 42.91 113.56C43.3428 112.302 43.8824 111.042 44.4639 109.812C45.0765 108.581 45.7596 107.383 46.5783 106.261C48.1791 104.003 50.2962 102.109 52.6062 100.84C54.937 99.5852 57.4451 98.9354 59.8829 98.831C57.7189 99.9636 55.8417 101.425 54.4443 103.15C54.2722 103.369 54.1105 103.594 53.9463 103.813C53.7872 104.035 53.6126 104.238 53.4796 104.478L53.0598 105.165C52.9868 105.274 52.9242 105.394 52.8669 105.514L52.6896 105.872C52.4419 106.334 52.2542 106.832 52.056 107.312C52.0039 107.43 51.9622 107.552 51.9231 107.68L51.8032 108.053C51.7275 108.304 51.6337 108.539 51.5815 108.8L51.3964 109.557C51.3338 109.805 51.3 110.073 51.2504 110.326C51.1435 110.83 51.0914 111.365 51.0184 111.877C50.9193 112.934 50.8515 113.983 50.8646 115.073C50.8672 116.159 50.8932 117.252 50.9636 118.388C51.0262 119.515 51.1148 120.676 51.2009 121.885C51.24 122.485 51.2322 123.077 51.167 123.659C51.1044 124.244 50.9975 124.818 50.9245 125.395C50.8437 125.969 50.8098 126.545 50.7707 127.114C50.7342 127.683 50.6977 128.252 50.669 128.813C50.5569 131.058 50.5334 133.239 50.6951 135.288C50.8567 137.336 51.2087 139.247 51.8162 140.932C52.4237 142.621 53.2762 144.093 54.4208 145.4C54.6972 145.734 55.0257 146.032 55.3281 146.35C55.4871 146.501 55.6592 146.645 55.8235 146.794L56.0712 147.016L56.3371 147.222C57.0228 147.796 57.8049 148.279 58.6001 148.748C59.0121 148.965 59.4136 149.197 59.849 149.385C60.2688 149.596 60.7146 149.763 61.1552 149.946C62.0521 150.278 62.9698 150.588 63.9241 150.805C65.8221 151.282 67.8192 151.499 69.8242 151.53C71.8317 151.551 73.8497 151.348 75.8156 150.948C79.7316 150.121 83.4599 148.469 86.2991 146.032C87.0187 145.426 87.7435 144.729 88.4084 143.996C89.0784 143.26 89.7276 142.493 90.3195 141.674C91.5188 140.048 92.5538 138.278 93.3986 136.441C93.8157 135.52 94.1859 134.583 94.5092 133.638C94.8195 132.691 95.0776 131.739 95.2732 130.789C95.6642 128.892 95.7816 127.01 95.5965 125.314C95.5 124.468 95.3201 123.677 95.0672 122.962C95.015 122.775 94.9316 122.613 94.8638 122.44C94.8013 122.263 94.7126 122.106 94.6344 121.947C94.5927 121.869 94.5588 121.783 94.5145 121.707L94.3789 121.483C94.2928 121.329 94.2094 121.183 94.0921 121.023C93.6436 120.376 93.0492 119.682 92.4861 119.155C92.2019 118.886 91.9229 118.662 91.6778 118.487C91.4353 118.315 91.2268 118.208 91.1355 118.171C91.0886 118.15 91.0834 118.158 91.1094 118.158C91.1433 118.168 91.2268 118.184 91.3441 118.182C91.5892 118.2 92.0141 118.08 92.1732 117.978C92.2618 117.926 92.2931 117.908 92.2957 117.897C92.2957 117.9 92.2644 117.926 92.2123 117.983C92.1106 118.095 91.9411 118.333 91.7717 118.625C91.4223 119.22 91.0625 120.058 90.7523 120.966C90.4368 121.877 90.163 122.874 89.9206 123.902C89.4356 125.963 89.0836 128.158 88.8099 130.384C88.5387 132.613 88.351 134.883 88.2259 137.169C87.9782 141.741 87.9678 146.368 88.1529 150.982C88.2467 153.289 88.3901 155.593 88.5883 157.885L88.7473 159.602C88.7994 160.173 88.8672 160.742 88.9663 161.309C89.0602 161.875 89.1827 162.436 89.2687 163C89.3626 163.563 89.4069 164.13 89.4148 164.704C89.373 167.005 89.3704 169.31 89.4878 171.58C89.5738 173.856 89.7954 176.108 90.1813 178.232C90.3794 179.289 90.6532 180.304 90.9999 181.168C91.1694 181.601 91.3676 181.98 91.5631 182.272C91.6622 182.421 91.756 182.541 91.8499 182.64C91.9438 182.742 92.035 182.815 92.1549 182.883C92.3896 183.029 92.8015 183.052 93.2656 182.945C93.7323 182.841 94.2303 182.619 94.7282 182.35C95.2236 182.079 95.7112 181.747 96.1909 181.39C96.6732 181.038 97.1451 180.654 97.6066 180.252H97.617Z" fill="white"/>
<path d="M75.1924 171.35C68.9299 179.965 58.8505 188.903 48.7058 192.496C27.5457 197.016 14.5618 185.129 8.90675 165.562C6.55766 157.545 5.55388 149.583 4.75868 141.452C2.65727 122.691 5.14716 103.622 9.47252 85.3651C13.1226 70.0412 17.7243 54.8348 22.2374 39.8189C23.2203 36.2593 24.3519 32.9268 24.696 29.3881C24.696 29.2785 24.7064 29.1507 24.696 29.0567L24.6804 28.7644C24.6752 28.6705 24.6569 28.6079 24.6517 28.5296C24.6517 28.4408 24.636 28.4069 24.6282 28.3652C24.623 28.3417 24.6282 28.313 24.623 28.2947C24.623 28.2947 24.6282 28.2921 24.636 28.2895C24.6465 28.3338 24.6725 28.3886 24.709 28.4304C24.7482 28.5348 24.8081 28.6235 24.8759 28.7096C25.2096 29.2316 25.7676 29.6856 26.349 29.9127C26.8522 30.1136 27.285 30.1319 27.5066 30.0901C27.7386 30.051 27.796 29.9779 27.7647 29.9362C27.7308 29.8944 27.6161 29.8709 27.4623 29.8814C26.628 29.9884 25.5825 30.3615 24.7195 30.7791C22.5346 31.789 20.3628 33.1486 18.2901 34.4926C13.9882 37.3319 9.75149 40.5079 5.47306 43.6707C8.22366 39.0621 11.1568 34.6257 14.4731 30.372C16.6945 27.5744 18.994 24.8343 21.9011 22.6187C24.3571 20.7137 27.8664 19.3828 30.995 20.8911C33.219 21.9193 34.7624 24.1454 35.1483 26.541C35.3908 27.8067 35.2735 29.2942 35.1327 30.3328C34.6295 34.5813 33.3884 38.8037 32.2387 42.7626C27.7334 57.7602 23.2438 72.5752 19.6224 87.7477C15.5499 105.021 13.1539 122.73 15.1354 140.439C15.855 147.887 16.8301 155.565 18.9054 162.605C21.2467 170.75 25.8693 179.85 34.4209 182.251C37.8676 183.256 41.8567 183.303 45.3712 182.261C45.9187 182.12 46.4688 182.037 47.0294 181.946C49.5949 181.705 52.322 181.1 54.9344 180.377C62.0599 178.287 68.7761 175.116 75.1872 171.348L75.1924 171.35Z" fill="white"/>
<path d="M42.9908 95.2609C37.5913 97.9697 28.6094 100.279 27.0633 92.0406C26.3177 87.231 28.32 82.2022 30.9298 78.3321C31.8606 76.9986 32.8852 75.7146 34.1158 74.6134C36.2016 72.8466 38.814 71.8524 41.489 71.2521C51.0836 69.3262 57.7346 78.1468 66.5313 78.9819C68.4684 79.2037 70.6011 79.102 72.4809 78.6844C75.5288 78.0816 78.3628 76.0722 81.2229 74.2872C85.0112 71.8497 89.5738 70.0674 94.1103 69.5872C102.662 68.7547 112.335 70.7224 119.711 75.2658C124.041 77.9198 127.519 81.3123 129.459 86.0619C131.201 90.1904 131.8 94.799 132.126 99.0136C132.515 104.374 132.486 109.606 132.431 114.914C132.215 127.182 131.821 141.439 131.524 153.787C131.362 156.105 131.088 158.73 130.1 161.126C126.883 168.916 118.506 168.535 112.483 164.247C111.015 163.221 109.576 162.157 108.502 160.669C107.355 159.046 106.594 157.172 106.234 155.142C105.387 149.706 108.051 146.856 111.414 143.412C113.067 141.663 114.452 139.86 115.562 137.717C117.325 134.361 118.258 130.752 118.629 126.885C120.175 131.887 120.36 137.608 118.584 143.13C118.146 144.505 117.591 145.854 116.983 147.117C116.425 148.459 114.556 151.418 115.187 152.337L115.518 152.757C115.841 153.174 116.368 153.62 116.801 154.022C117.333 154.544 117.818 155.241 118.454 155.685C119.064 156.123 119.781 156.488 120.451 156.705C120.746 156.799 120.998 156.841 121.131 156.849C121.264 156.859 121.257 156.828 121.045 156.893C120.871 156.948 120.503 157.162 120.401 157.308C120.806 156.366 121.027 154.667 121.116 153.138C121.272 148.472 121.504 135.155 121.669 130.16C121.856 122.48 122.099 114.831 122.018 107.192C121.937 102.471 121.794 97.4321 120.766 92.9853C120.209 90.6627 119.374 88.5541 117.763 86.8813C115.135 84.3213 111.899 82.6302 108.369 81.4793C105.227 80.4668 101.786 79.924 98.4513 79.8353C95.3592 79.7231 92.3427 80.2737 89.5608 81.5863C86.1192 83.2513 83.0662 85.8009 79.3614 87.3693C74.9838 89.2926 70.0823 89.872 65.358 89.3553C62.292 89.0186 59.2363 88.1157 56.4596 86.8996C53.7481 85.7226 51.3469 84.3108 49.2481 83.2017C47.5664 82.3327 45.9187 81.4898 44.3048 81.4272C42.8291 81.328 41.7237 82.4006 40.4983 83.0947C38.728 83.9898 37.1089 85.2216 35.774 86.7352C34.3088 88.3479 32.88 90.5139 32.7184 92.6043C32.6793 93.3245 33.2268 93.6925 33.9047 94.0709C36.6527 95.3366 39.9664 95.3053 42.9908 95.2609Z" fill="white"/>
<path d="M145.947 109.45C147.634 108.38 149.417 107.453 151.365 106.704C153.32 105.997 155.434 105.392 157.997 105.577C158.636 105.629 159.304 105.734 159.992 105.937C160.675 106.143 161.374 106.441 162.049 106.845C162.216 106.95 162.385 107.057 162.55 107.169C162.711 107.286 162.873 107.409 163.032 107.532C163.3 107.74 163.499 107.873 163.757 108.095C163.879 108.197 163.999 108.294 164.135 108.422C164.268 108.547 164.39 108.654 164.536 108.816C164.677 108.967 164.813 109.108 164.969 109.317C165.045 109.413 165.118 109.507 165.193 109.611C165.274 109.732 165.352 109.857 165.428 109.982L165.54 110.173L165.655 110.402C165.728 110.559 165.798 110.708 165.863 110.877C165.991 111.237 166.103 111.6 166.168 112.002C166.205 112.2 166.231 112.399 166.241 112.586C166.254 112.774 166.265 112.978 166.262 113.155C166.26 113.328 166.252 113.5 166.239 113.672L166.228 113.8L166.215 113.91L166.189 114.129C166.148 114.442 166.106 114.656 166.056 114.899L165.988 115.209L165.921 115.501L165.699 116.42C165.569 116.955 165.475 117.388 165.391 117.827C165.303 118.257 165.251 118.675 165.172 119.087C165.092 119.494 164.982 119.886 164.831 120.269C164.685 120.656 164.505 121.031 164.356 121.425C164.2 121.817 164.077 122.221 163.973 122.636C163.864 123.049 163.759 123.466 163.66 123.889C163.556 124.309 163.47 124.74 163.376 125.165C163.293 125.598 163.201 126.029 163.121 126.465L163.003 127.122L162.943 127.451L162.886 127.798L162.771 128.49L162.672 129.103C162.568 129.823 162.49 130.7 162.43 131.574C162.37 132.456 162.325 133.365 162.294 134.281C162.229 136.112 162.205 137.976 162.211 139.836C162.226 143.558 162.341 147.321 162.633 150.93C162.709 151.828 162.797 152.715 162.907 153.548C162.962 153.962 163.021 154.367 163.087 154.732C163.149 155.092 163.227 155.434 163.274 155.586C163.29 155.656 163.321 155.695 163.212 155.458L163.162 155.361C163.134 155.304 163.102 155.249 163.068 155.194C163.029 155.132 162.868 154.873 162.709 154.693L162.544 154.508C162.466 154.424 162.385 154.343 162.302 154.265C162.117 154.101 162.012 154.007 161.632 153.751C161.468 153.647 161.296 153.55 161.118 153.467C160.933 153.381 160.792 153.323 160.508 153.227C160.253 153.143 159.984 153.08 159.716 153.041C159.437 153.002 159.197 152.992 158.892 152.994C158.592 153 158.287 153.033 157.992 153.096C157.687 153.161 157.419 153.247 157.171 153.341C156.915 153.441 156.665 153.566 156.433 153.709C156.172 153.876 156.078 153.942 155.906 154.075C155.755 154.195 155.612 154.328 155.476 154.466C155.33 154.62 155.296 154.657 155.208 154.764C155.132 154.855 155.059 154.949 154.991 155.048L154.843 155.275C154.77 155.39 154.704 155.513 154.645 155.635C154.608 155.706 154.577 155.774 154.548 155.844L154.485 156.006C154.472 156.042 154.459 156.081 154.446 156.121C154.431 156.173 154.423 156.194 154.415 156.233C154.412 156.241 154.41 156.246 154.41 156.254L154.428 156.155C154.444 156.045 154.467 155.891 154.485 155.706L154.543 155.113L154.642 153.762C154.77 151.864 154.905 149.803 155.2 147.668C155.348 146.598 155.534 145.502 155.797 144.367C156.06 143.234 156.394 142.062 156.892 140.833C157.393 139.609 158.047 138.312 159.082 137.021C159.601 136.379 160.219 135.742 160.949 135.173C161.679 134.604 162.516 134.103 163.41 133.74C164.302 133.359 165.245 133.143 166.155 133.023C167.073 132.908 167.933 132.931 168.752 133.004C170.366 133.182 171.727 133.607 172.939 134.087C174.149 134.575 175.208 135.136 176.204 135.718C177.194 136.303 178.115 136.911 178.993 137.535C180.745 138.782 182.336 140.077 183.874 141.381C186.93 143.986 189.751 146.648 192.538 149.101C193.927 150.322 195.309 151.502 196.647 152.496C197.312 152.992 197.966 153.435 198.553 153.78C198.847 153.957 199.116 154.09 199.348 154.2C199.577 154.304 199.747 154.357 199.82 154.377C199.89 154.401 199.801 154.351 199.515 154.377C199.478 154.377 199.455 154.39 199.405 154.393C199.358 154.396 199.314 154.403 199.27 154.414C199.223 154.424 199.183 154.44 199.134 154.45C199.082 154.461 199.03 154.477 198.978 154.495C198.925 154.513 198.878 154.537 198.829 154.557C198.777 154.576 198.725 154.597 198.675 154.623C198.626 154.649 198.576 154.678 198.532 154.709C198.487 154.73 198.443 154.753 198.401 154.779C198.36 154.805 198.32 154.837 198.284 154.868L198.229 154.918L198.188 154.946C198.133 154.985 198.083 155.035 198.044 155.09C198.008 155.132 197.989 155.137 197.969 155.171C197.958 155.184 197.95 155.199 197.945 155.215C197.94 155.22 197.94 155.215 197.937 155.215C197.937 155.215 197.937 155.215 197.94 155.218C197.948 155.202 197.958 155.171 197.969 155.15C197.992 155.124 198.026 155.014 198.062 154.928C198.214 154.539 198.378 153.869 198.495 153.14C198.612 152.404 198.706 151.598 198.764 150.75C198.889 149.062 198.907 147.25 198.891 145.426C198.873 143.597 198.808 141.734 198.719 139.857C198.631 137.981 198.521 136.092 198.401 134.194L198.307 132.77C198.276 132.295 198.253 131.817 198.185 131.345C198.128 130.87 198.034 130.397 197.989 129.922C197.942 129.447 197.953 128.967 198.013 128.482L198.761 122.655C198.897 121.663 199.035 120.645 199.204 119.612C199.369 118.578 199.572 117.532 199.843 116.467C200.117 115.405 200.435 114.317 200.964 113.2C201.233 112.641 201.553 112.07 202.01 111.511C202.229 111.235 202.508 110.958 202.815 110.713C203.136 110.47 203.493 110.248 203.892 110.115C204.283 109.969 204.695 109.919 205.076 109.919C205.263 109.925 205.446 109.948 205.623 109.972C205.79 110.011 205.962 110.042 206.116 110.097C206.739 110.303 207.232 110.608 207.662 110.945C208.52 111.618 209.161 112.401 209.745 113.205C209.292 113.004 208.833 112.821 208.374 112.67C207.918 112.516 207.461 112.391 207.021 112.323C206.583 112.258 206.16 112.242 205.829 112.318C205.49 112.388 205.313 112.568 205.256 112.73C205.196 112.887 205.172 113.074 205.141 113.349C205.112 113.617 205.104 113.957 205.123 114.325C205.162 115.066 205.271 115.898 205.449 116.751C205.806 118.466 206.296 120.235 206.841 122.078L208.413 127.743C208.541 128.216 208.619 128.696 208.637 129.176C208.661 129.659 208.635 130.144 208.64 130.627C208.637 131.112 208.682 131.593 208.71 132.075L208.804 133.526C208.927 135.463 209.041 137.407 209.133 139.367C209.224 141.327 209.294 143.305 209.315 145.314C209.331 147.329 209.315 149.362 209.159 151.507C209.086 152.574 208.966 153.678 208.778 154.837C208.582 156.001 208.335 157.217 207.808 158.626C207.665 158.986 207.537 159.331 207.334 159.727C207.237 159.92 207.146 160.106 207.042 160.301C206.919 160.507 206.794 160.714 206.666 160.917C206.601 161.019 206.538 161.118 206.468 161.222L206.22 161.549C206.048 161.765 205.889 161.971 205.691 162.185C205.477 162.407 205.256 162.621 205.026 162.827L204.852 162.981L204.651 163.135C204.515 163.237 204.377 163.336 204.239 163.43C204.101 163.524 203.957 163.618 203.814 163.709C203.663 163.796 203.506 163.877 203.35 163.957C203.193 164.036 203.034 164.111 202.873 164.184C202.711 164.252 202.549 164.31 202.383 164.367C202.218 164.425 202.051 164.477 201.885 164.526C201.72 164.573 201.561 164.605 201.397 164.639C201.235 164.672 201.071 164.701 200.907 164.73C200.74 164.759 200.597 164.766 200.44 164.782C199.197 164.889 198.141 164.727 197.283 164.511C195.57 164.059 194.368 163.422 193.294 162.804C192.225 162.178 191.297 161.53 190.421 160.881C188.679 159.578 187.143 158.258 185.649 156.948C182.677 154.325 179.908 151.718 177.119 149.343C175.729 148.164 174.337 147.036 172.96 146.058C172.272 145.57 171.589 145.121 170.927 144.73C170.267 144.341 169.62 144.009 169.049 143.782C168.481 143.553 167.986 143.433 167.688 143.399C167.553 143.393 167.449 143.386 167.412 143.399C167.376 143.412 167.37 143.399 167.383 143.404C167.386 143.399 167.394 143.393 167.365 143.414C167.339 143.435 167.279 143.487 167.196 143.592C167.026 143.798 166.776 144.218 166.554 144.771C166.33 145.325 166.124 146 165.955 146.739C165.783 147.475 165.644 148.276 165.53 149.106C165.298 150.779 165.175 152.553 165.045 154.487L164.933 156.008C164.909 156.277 164.886 156.551 164.852 156.849C164.82 157.141 164.781 157.462 164.721 157.827L164.672 158.114L164.609 158.435L164.523 158.806C164.482 158.96 164.445 159.096 164.393 159.265L164.296 159.55L164.244 159.691L164.169 159.879C164.117 160.004 164.062 160.129 164.002 160.252C163.913 160.427 163.819 160.601 163.715 160.768C163.668 160.847 163.613 160.933 163.517 161.069C163.431 161.189 163.34 161.309 163.246 161.423C163.136 161.554 163.087 161.617 162.92 161.789C162.763 161.948 162.597 162.097 162.422 162.238C162.226 162.389 162.117 162.48 161.825 162.658C161.564 162.814 161.288 162.95 161.006 163.065C160.732 163.177 160.435 163.268 160.099 163.336C159.773 163.404 159.439 163.441 159.111 163.449C158.774 163.459 158.508 163.433 158.198 163.389C157.898 163.344 157.601 163.276 157.317 163.185C157.001 163.086 156.837 163.007 156.626 162.908C156.423 162.809 156.224 162.7 156.034 162.58C155.596 162.298 155.453 162.157 155.223 161.953C155.116 161.854 155.015 161.752 154.916 161.648C154.804 161.528 154.749 161.463 154.694 161.395C154.465 161.121 154.225 160.768 154.131 160.599C154.068 160.492 154.006 160.385 153.948 160.275C153.915 160.215 153.899 160.179 153.878 160.139L153.818 160.017C153.503 159.346 153.38 158.929 153.263 158.54C153.041 157.77 152.924 157.17 152.817 156.585C152.713 156.006 152.634 155.46 152.564 154.923C152.423 153.853 152.324 152.827 152.238 151.812C151.91 147.762 151.797 143.842 151.779 139.881C151.774 137.903 151.797 135.922 151.868 133.918C151.904 132.913 151.951 131.903 152.022 130.87C152.097 129.828 152.181 128.792 152.35 127.61L152.418 127.167L152.478 126.801L152.6 126.073L152.731 125.329L152.866 124.57C152.958 124.064 153.065 123.552 153.166 123.043C153.281 122.532 153.383 122.023 153.508 121.509C153.628 120.997 153.755 120.483 153.894 119.967L154.102 119.192L154.293 118.406C154.418 117.879 154.535 117.344 154.694 116.817C154.856 116.29 155.069 115.781 155.335 115.29C155.609 114.807 155.914 114.332 156.209 113.883C156.503 113.44 156.806 112.996 157.059 112.652L157.239 112.417C157.293 112.346 157.338 112.299 157.39 112.239C157.411 112.221 157.426 112.211 157.445 112.195C157.46 112.187 157.489 112.153 157.494 112.166C157.512 112.179 157.546 112.166 157.549 112.242L157.559 112.284L157.567 112.305V112.344C157.57 112.396 157.578 112.451 157.588 112.503C157.596 112.56 157.601 112.644 157.617 112.712L157.666 112.939C157.713 113.098 157.758 113.231 157.831 113.359C157.859 113.414 157.883 113.453 157.914 113.497C157.93 113.518 157.945 113.539 157.964 113.557C157.974 113.568 157.984 113.576 157.995 113.586C158.016 113.604 158.039 113.62 158.065 113.636C158.078 113.636 158.089 113.63 158.099 113.625C158.136 113.625 158.125 113.576 158.128 113.531C158.138 113.495 158.104 113.419 158.089 113.356C158.076 113.296 158.036 113.213 158 113.135C157.945 112.991 157.812 112.774 157.752 112.636C157.742 112.592 157.731 112.547 157.721 112.498L157.671 112.357C157.593 112.166 157.468 111.963 157.283 111.762C157.103 111.553 156.855 111.355 156.566 111.167C155.99 110.786 155.231 110.494 154.407 110.256C153.581 110.016 152.684 109.852 151.758 109.739C149.899 109.494 147.939 109.463 145.944 109.465L145.947 109.45Z" fill="white"/>
<path d="M168.713 99.6948C159.53 106.167 144.881 105.608 138.527 95.3001C135.45 90.2035 134.692 83.7368 136.717 78.0738C138.107 74.2637 141.538 71.2966 145.209 69.7464C151.873 67.0037 159.152 68.2067 165.702 70.2449C172.499 72.2856 178.503 76.5498 183.259 81.6856C184.604 83.0896 185.842 84.4831 186.987 85.6522C187.91 86.5735 188.877 87.5286 189.857 88.0192C190.53 88.3245 190.765 88.2932 191.471 88.134C192.149 87.9461 193.085 87.385 194 86.5108C197.551 82.9852 199.773 77.4632 200.427 72.4918C201.616 61.9436 195.215 52.2148 188.283 44.6782C176.542 31.8413 160.675 23.6861 143.509 20.0274C118.9 14.8107 91.8447 17.2586 69.7877 29.858C67.522 31.0871 65.5822 32.8069 63.3635 34.096C59.6535 36.2359 56.1024 38.7804 52.8825 41.6405C49.5948 44.5529 46.6226 47.8437 44.0493 51.4163C40.8294 55.8448 38.2691 60.6257 36.126 65.7328C37.719 50.2811 45.5224 35.9437 57.1505 25.6825C92.3974 -0.286082 152.316 0.922186 186.335 28.6393C195.87 36.5047 204.518 45.9412 208.846 57.8125C212.665 68.1754 211.276 79.3656 205.438 88.7734C201.248 95.6602 193.544 101.347 185.279 97.4009C181.306 95.4332 178.576 91.8371 175.719 88.9039C172.092 85.0129 167.913 81.8761 162.842 80.2946C158.787 78.9689 151.599 77.3222 148.053 80.1094C147.378 80.72 146.927 81.4794 146.33 82.3902C144.609 84.992 144.377 88.8673 145.345 91.8919C145.989 93.9405 147.347 95.6863 149.016 97.059C154.217 101.302 162.333 101.78 168.703 99.6974L168.713 99.6948Z" fill="white"/>
<path d="M189.362 183.201C188.958 188.504 187.06 196.1 181.6 198.457C176.339 200.469 171.312 196.121 168.491 192.097C165.772 188.084 163.611 182.423 165.342 177.441C167.256 172.233 172.282 168.918 177.085 167.212C188.296 163.031 211.596 163.25 217.014 176.137C217.859 178.06 218.36 180.025 218.547 182.097C218.855 186.411 217.184 190.808 214.694 194.161C213.828 195.351 213.002 196.33 212.045 197.335C208.275 201.168 203.994 204.383 199.53 207.275C182.891 218.011 162.769 223.076 143.045 220.942C133.784 219.966 124.484 217.677 116.178 213.348C110.71 210.589 105.832 207.048 100.485 204.631C94.856 202.04 88.6431 200.787 82.4718 200.37L80.3704 200.244C80.1957 200.234 80.021 200.218 79.8437 200.216H79.3171H78.2638L76.1545 200.211L74.0427 200.323L72.9868 200.378C72.6348 200.396 72.2828 200.432 71.9335 200.49C70.536 200.719 69.1411 200.931 67.7202 200.965L65.5693 201.004C64.8523 201.03 64.1353 201.095 63.4131 201.137L62.3285 201.21L61.7862 201.247C60.5087 201.398 58.2169 201.609 56.8977 201.831L54.7128 202.155L52.5332 202.562L51.4356 202.76L50.3458 202.995C47.5691 203.572 44.3361 204.415 41.609 205.203C38.7046 206.059 35.808 207.024 32.8983 208.037C35.8471 205.636 39.0748 203.319 42.3208 201.267C49.7226 196.565 57.5808 192.979 66.2002 190.636C67.7619 190.14 69.4045 190.148 71.0183 190.033C73.3335 189.895 75.9772 189.725 78.3211 189.772C79.0981 189.78 80.0158 189.756 80.7615 189.811C88.9846 190.166 97.2755 191.656 104.795 195.127C111.055 197.932 116.72 202.147 122.8 204.978C140.229 212.797 160.865 212.773 178.641 206.121C186.604 203.146 194.18 198.874 200.763 193.506C202.315 192.217 203.77 190.957 205.081 189.493C206.705 187.588 208.103 185.576 208.139 183.123V182.755C208.147 182.984 208.144 182.898 208.144 182.909C208.103 182.499 208.03 182.087 207.925 181.682C207.579 180.487 207.222 179.464 206.226 178.655C204.651 177.397 202.281 176.557 200.135 176.074C197.643 175.502 194.947 175.234 192.259 175.226C188.301 175.226 184.307 175.714 180.641 177.021C179.491 177.436 178.438 177.937 177.567 178.488C176.858 178.95 176.11 179.498 175.737 180.166C175.599 180.411 175.541 180.628 175.476 180.883C175.288 181.549 175.038 182.311 174.973 183.12C174.783 185.889 175.739 188.986 177.273 191.293C177.896 192.217 178.641 192.953 179.225 193.292C179.523 193.459 179.747 193.572 180.148 193.569C184.077 193.175 187.829 186.58 189.36 183.201H189.362Z" fill="white"/>
<path d="M201.559 104.664C203.086 101.472 204.862 98.3978 206.841 95.428C207.834 93.9458 208.877 92.4896 209.993 91.0751C210.548 90.3679 211.119 89.6685 211.706 88.977C212.298 88.2906 212.905 87.6174 213.534 86.9519C214.785 85.621 216.115 84.337 217.567 83.1444C219.022 81.9544 220.568 80.8114 222.333 79.8537C224.093 78.8985 226.064 78.0765 228.41 77.7633C229.581 77.6146 230.851 77.6172 232.146 77.8755C232.793 78.0034 233.442 78.1913 234.071 78.4444C234.696 78.7002 235.301 79.016 235.864 79.3761C236.422 79.7414 236.944 80.1459 237.418 80.5765C237.885 81.0097 238.32 81.4638 238.704 81.9309C239.475 82.8652 240.085 83.8412 240.602 84.8094C241.626 86.751 242.281 88.6847 242.802 90.5793C243.816 94.3763 244.278 98.0716 244.583 101.717C244.875 105.363 244.977 108.959 244.997 112.521C245.003 114.301 245.003 116.073 244.974 117.837L244.935 120.473L244.885 123.116C244.844 124.899 244.784 126.686 244.687 128.474C244.598 130.264 244.473 132.054 244.317 133.85C244.009 137.441 243.563 141.039 242.901 144.675C242.554 146.491 242.169 148.32 241.66 150.168C241.149 152.018 240.555 153.887 239.687 155.818C239.248 156.786 238.751 157.773 238.075 158.79C237.4 159.8 236.573 160.878 235.272 161.891C234.623 162.389 233.828 162.861 232.913 163.195C232 163.535 230.942 163.699 230.029 163.676C229.104 163.66 228.272 163.498 227.537 163.271C226.802 163.041 226.15 162.749 225.563 162.431C224.387 161.786 223.433 161.042 222.594 160.241C221.754 159.44 221.029 158.589 220.383 157.692C219.108 155.888 218.112 153.91 217.564 151.629C217.293 150.492 217.147 149.268 217.231 147.968C217.272 147.321 217.374 146.655 217.559 145.987C217.742 145.319 218.015 144.656 218.346 144.059C218.678 143.459 219.066 142.931 219.457 142.477C219.848 142.023 220.247 141.645 220.625 141.303C221.384 140.627 222.08 140.097 222.716 139.575C223.352 139.054 223.942 138.547 224.502 138.012C225.06 137.477 225.579 136.906 226.069 136.295C227.044 135.071 227.889 133.706 228.562 132.214C228.906 131.47 229.206 130.697 229.464 129.901C229.73 129.106 229.956 128.289 230.144 127.454C230.53 125.783 230.757 124.048 230.918 122.276C231.411 123.985 231.721 125.76 231.854 127.579C231.909 128.487 231.93 129.408 231.886 130.335C231.839 131.261 231.737 132.193 231.575 133.124C231.419 134.059 231.182 134.982 230.89 135.898C230.593 136.814 230.248 137.725 229.813 138.602C228.96 140.353 227.811 142.044 226.59 143.464C225.993 144.179 225.407 144.842 224.961 145.431C224.51 146.026 224.239 146.517 224.148 146.888C224.098 147.076 224.082 147.245 224.077 147.43C224.072 147.613 224.082 147.825 224.114 148.052C224.179 148.503 224.327 149.022 224.552 149.56C225.005 150.635 225.759 151.76 226.653 152.692C227.094 153.161 227.573 153.587 228.056 153.934C228.535 154.278 229.018 154.555 229.409 154.691C229.795 154.837 230.076 154.811 229.967 154.758C229.928 154.732 229.745 154.738 229.646 154.758C229.542 154.774 229.505 154.787 229.534 154.737C229.597 154.649 229.852 154.32 230.095 153.845C230.342 153.375 230.6 152.778 230.835 152.133C231.302 150.831 231.698 149.333 232.027 147.788C232.352 146.238 232.637 144.63 232.866 142.997C233.346 139.729 233.669 136.368 233.94 132.986C234.071 131.295 234.183 129.594 234.287 127.892C234.383 126.188 234.475 124.481 234.55 122.767C234.827 115.807 235.21 108.886 235.095 102.2C235.061 100.53 235.004 98.8754 234.874 97.2548C234.756 95.6342 234.569 94.0475 234.3 92.5339C234.034 91.023 233.659 89.5929 233.179 88.3742C232.689 87.1607 232.086 86.2108 231.471 85.6758C231.156 85.407 230.84 85.1956 230.434 85.0469C230.032 84.8903 229.534 84.8094 228.963 84.7963C227.818 84.7702 226.421 85.0834 225.024 85.6053C223.621 86.1299 222.184 86.8397 220.789 87.6695C219.395 88.5046 218.01 89.4363 216.66 90.4384C215.984 90.9394 215.317 91.4614 214.657 91.9963C213.992 92.5261 213.335 93.0715 212.686 93.63C211.396 94.7547 210.113 95.9108 208.864 97.1113C206.356 99.5069 203.949 102.049 201.559 104.651V104.664Z" fill="white"/>
</g>
<g filter="url(#filter2_d_262_344)">
<path d="M99.617 175.252C99.1269 176.374 98.5689 177.481 97.7868 178.524C97.3931 179.046 96.9342 179.55 96.3424 179.999C96.199 180.114 96.0295 180.213 95.8679 180.317C95.701 180.419 95.5107 180.505 95.3282 180.597C95.1326 180.675 94.9267 180.745 94.7129 180.808C94.4887 180.85 94.267 180.91 94.0298 180.923C93.5553 180.962 93.0573 180.912 92.5984 180.787C92.137 180.664 91.7146 180.479 91.3391 180.268C90.5831 179.84 89.973 179.32 89.4437 178.791C88.3878 177.721 87.603 176.58 86.886 175.435C86.1743 174.289 85.559 173.123 85.0036 171.946C84.4457 170.771 83.9347 169.586 83.4549 168.396C82.5216 166.014 81.7081 163.61 80.9911 161.191C79.7501 151.295 79.299 141.52 79.8231 131.6C79.9587 129.121 80.162 126.634 80.4671 124.126C80.7747 121.619 81.1736 119.092 81.7785 116.509C82.0862 115.214 82.4381 113.91 82.9022 112.563C83.3715 111.216 83.9216 109.839 84.7716 108.369C85.2044 107.633 85.7024 106.877 86.3907 106.091C86.7322 105.702 87.1259 105.306 87.5769 104.922C88.041 104.536 88.5546 104.16 89.1673 103.826C89.7774 103.495 90.4631 103.207 91.2036 103.017C91.944 102.832 92.7001 102.743 93.4223 102.746C94.1367 102.753 94.812 102.842 95.4272 102.983C96.0321 103.127 96.5979 103.309 97.1011 103.518C98.1127 103.936 98.9392 104.434 99.6718 104.945C100.399 105.46 101.043 105.995 101.625 106.545C102.795 107.652 103.76 108.782 104.675 110.089C104.907 110.415 105.131 110.778 105.342 111.141L105.661 111.686C105.765 111.869 105.851 112.057 105.947 112.242C106.132 112.615 106.323 112.988 106.471 113.369C106.625 113.75 106.795 114.129 106.915 114.515C107.452 116.05 107.788 117.605 107.963 119.129C108.296 122.18 108.062 125.115 107.496 127.887C107.209 129.273 106.842 130.627 106.409 131.945C105.966 133.26 105.455 134.541 104.886 135.794C103.739 138.289 102.352 140.659 100.72 142.871C99.9116 143.983 99.0226 145.045 98.0866 146.071C97.1454 147.102 96.1521 148.065 95.0492 148.996C93.9542 149.951 92.7731 150.771 91.5764 151.549C90.9663 151.911 90.3641 152.298 89.7357 152.619C89.4229 152.786 89.1126 152.955 88.7997 153.114L87.8481 153.568C87.5326 153.725 87.2093 153.861 86.886 153.996L85.9161 154.401L84.9358 154.764L84.4457 154.944L83.9503 155.103L82.957 155.419L81.9558 155.693C81.2883 155.886 80.6105 156.016 79.9378 156.175C74.5305 157.274 68.9276 157.279 63.4603 155.951C62.0941 155.633 60.7409 155.189 59.406 154.688C58.7412 154.419 58.0764 154.158 57.4272 153.84C56.7702 153.548 56.1314 153.195 55.4926 152.851C54.2307 152.12 52.9871 151.329 51.8321 150.382L51.3941 150.035L50.9717 149.664C50.6927 149.414 50.4086 149.171 50.1374 148.913C49.6055 148.378 49.0658 147.856 48.5731 147.277C46.5681 145.001 44.996 142.266 44.0026 139.463C42.9937 136.655 42.5139 133.821 42.3001 131.118C42.089 128.409 42.1307 125.807 42.2558 123.289C42.2871 122.657 42.3262 122.036 42.3679 121.415C42.4096 120.796 42.4644 120.181 42.4774 119.567C42.5009 118.954 42.4931 118.341 42.5322 117.738C42.5713 117.133 42.6704 116.538 42.8164 115.948C43.1162 114.781 43.4186 113.565 43.7576 112.323C44.0913 111.086 44.4641 109.818 44.91 108.56C45.3428 107.302 45.8824 106.042 46.4639 104.812C47.0765 103.581 47.7596 102.383 48.5783 101.261C50.1791 99.0033 52.2962 97.1087 54.6062 95.8404C56.937 94.5852 59.4451 93.9354 61.8829 93.831C59.7189 94.9636 57.8417 96.425 56.4443 98.15C56.2722 98.3692 56.1105 98.5936 55.9463 98.8128C55.7872 99.0346 55.6126 99.2382 55.4796 99.4783L55.0598 100.165C54.9868 100.274 54.9242 100.394 54.8669 100.514L54.6896 100.872C54.4419 101.334 54.2542 101.832 54.056 102.312C54.0039 102.43 53.9622 102.552 53.9231 102.68L53.8032 103.053C53.7275 103.304 53.6337 103.539 53.5815 103.8L53.3964 104.557C53.3338 104.805 53.3 105.073 53.2504 105.326C53.1435 105.83 53.0914 106.365 53.0184 106.877C52.9193 107.934 52.8515 108.983 52.8646 110.073C52.8672 111.159 52.8932 112.252 52.9636 113.388C53.0262 114.515 53.1148 115.676 53.2009 116.885C53.24 117.485 53.2322 118.077 53.167 118.659C53.1044 119.244 52.9975 119.818 52.9245 120.395C52.8437 120.969 52.8098 121.545 52.7707 122.114C52.7342 122.683 52.6977 123.252 52.669 123.813C52.5569 126.058 52.5334 128.239 52.6951 130.288C52.8567 132.336 53.2087 134.247 53.8162 135.932C54.4237 137.621 55.2762 139.093 56.4208 140.4C56.6972 140.734 57.0257 141.032 57.3281 141.35C57.4871 141.501 57.6592 141.645 57.8235 141.794L58.0712 142.016L58.3371 142.222C59.0228 142.796 59.8049 143.279 60.6001 143.748C61.0121 143.965 61.4136 144.197 61.849 144.385C62.2688 144.596 62.7146 144.763 63.1552 144.946C64.0521 145.278 64.9698 145.588 65.9241 145.805C67.8221 146.282 69.8192 146.499 71.8242 146.53C73.8317 146.551 75.8497 146.348 77.8156 145.948C81.7316 145.121 85.4599 143.469 88.2991 141.032C89.0187 140.426 89.7435 139.729 90.4084 138.996C91.0784 138.26 91.7276 137.493 92.3195 136.674C93.5188 135.048 94.5538 133.278 95.3986 131.441C95.8157 130.52 96.1859 129.583 96.5092 128.638C96.8195 127.691 97.0776 126.739 97.2732 125.789C97.6642 123.892 97.7816 122.01 97.5965 120.314C97.5 119.468 97.3201 118.677 97.0672 117.962C97.015 117.775 96.9316 117.613 96.8638 117.44C96.8013 117.263 96.7126 117.106 96.6344 116.947C96.5927 116.869 96.5588 116.783 96.5145 116.707L96.3789 116.483C96.2928 116.329 96.2094 116.183 96.0921 116.023C95.6436 115.376 95.0492 114.682 94.4861 114.155C94.2019 113.886 93.9229 113.662 93.6778 113.487C93.4353 113.315 93.2268 113.208 93.1355 113.171C93.0886 113.15 93.0834 113.158 93.1094 113.158C93.1433 113.168 93.2268 113.184 93.3441 113.182C93.5892 113.2 94.0141 113.08 94.1732 112.978C94.2618 112.926 94.2931 112.908 94.2957 112.897C94.2957 112.9 94.2644 112.926 94.2123 112.983C94.1106 113.095 93.9411 113.333 93.7717 113.625C93.4223 114.22 93.0625 115.058 92.7523 115.966C92.4368 116.877 92.163 117.874 91.9206 118.902C91.4356 120.963 91.0836 123.158 90.8099 125.384C90.5387 127.613 90.351 129.883 90.2259 132.169C89.9782 136.741 89.9678 141.368 90.1529 145.982C90.2467 148.289 90.3901 150.593 90.5883 152.885L90.7473 154.602C90.7994 155.173 90.8672 155.742 90.9663 156.309C91.0602 156.875 91.1827 157.436 91.2687 158C91.3626 158.563 91.4069 159.13 91.4148 159.704C91.373 162.005 91.3704 164.31 91.4878 166.58C91.5738 168.856 91.7954 171.108 92.1813 173.232C92.3794 174.289 92.6532 175.304 92.9999 176.168C93.1694 176.601 93.3676 176.98 93.5631 177.272C93.6622 177.421 93.756 177.541 93.8499 177.64C93.9438 177.742 94.035 177.815 94.1549 177.883C94.3896 178.029 94.8015 178.052 95.2656 177.945C95.7323 177.841 96.2303 177.619 96.7282 177.35C97.2236 177.079 97.7112 176.747 98.1909 176.39C98.6732 176.038 99.1451 175.654 99.6066 175.252H99.617Z" fill="#84B604"/>
<path d="M77.1924 166.35C70.9299 174.965 60.8505 183.903 50.7058 187.496C29.5457 192.016 16.5618 180.129 10.9068 160.562C8.55766 152.545 7.55388 144.583 6.75868 136.452C4.65727 117.691 7.14716 98.6222 11.4725 80.3651C15.1226 65.0412 19.7243 49.8348 24.2374 34.8189C25.2203 31.2593 26.3519 27.9268 26.696 24.3881C26.696 24.2785 26.7064 24.1507 26.696 24.0567L26.6804 23.7644C26.6752 23.6705 26.6569 23.6079 26.6517 23.5296C26.6517 23.4408 26.636 23.4069 26.6282 23.3652C26.623 23.3417 26.6282 23.313 26.623 23.2947C26.623 23.2947 26.6282 23.2921 26.636 23.2895C26.6465 23.3338 26.6725 23.3886 26.709 23.4304C26.7482 23.5348 26.8081 23.6235 26.8759 23.7096C27.2096 24.2316 27.7676 24.6856 28.349 24.9127C28.8522 25.1136 29.285 25.1319 29.5066 25.0901C29.7386 25.051 29.796 24.9779 29.7647 24.9362C29.7308 24.8944 29.6161 24.8709 29.4623 24.8814C28.628 24.9884 27.5825 25.3615 26.7195 25.7791C24.5346 26.789 22.3628 28.1486 20.2901 29.4926C15.9882 32.3319 11.7515 35.5079 7.47306 38.6707C10.2237 34.0621 13.1568 29.6257 16.4731 25.372C18.6945 22.5744 20.994 19.8343 23.9011 17.6187C26.3571 15.7137 29.8664 14.3828 32.995 15.8911C35.219 16.9193 36.7624 19.1454 37.1483 21.541C37.3908 22.8067 37.2735 24.2942 37.1327 25.3328C36.6295 29.5813 35.3884 33.8037 34.2387 37.7626C29.7334 52.7602 25.2438 67.5752 21.6224 82.7477C17.5499 100.021 15.1539 117.73 17.1354 135.439C17.855 142.887 18.8301 150.565 20.9054 157.605C23.2467 165.75 27.8693 174.85 36.4209 177.251C39.8676 178.256 43.8567 178.303 47.3712 177.261C47.9187 177.12 48.4688 177.037 49.0294 176.946C51.5949 176.705 54.322 176.1 56.9344 175.377C64.0599 173.287 70.7761 170.116 77.1872 166.348L77.1924 166.35Z" fill="#84B604"/>
<path d="M44.9908 90.2609C39.5913 92.9697 30.6094 95.2793 29.0633 87.0406C28.3177 82.231 30.32 77.2022 32.9298 73.3321C33.8606 71.9986 34.8852 70.7146 36.1158 69.6134C38.2016 67.8466 40.814 66.8524 43.489 66.2521C53.0836 64.3262 59.7346 73.1468 68.5313 73.9819C70.4684 74.2037 72.6011 74.102 74.4809 73.6844C77.5288 73.0816 80.3628 71.0722 83.2229 69.2872C87.0112 66.8497 91.5738 65.0674 96.1103 64.5872C104.662 63.7547 114.335 65.7224 121.711 70.2658C126.041 72.9198 129.519 76.3123 131.459 81.0619C133.201 85.1904 133.8 89.799 134.126 94.0136C134.515 99.3738 134.486 104.606 134.431 109.914C134.215 122.182 133.821 136.439 133.524 148.787C133.362 151.105 133.088 153.73 132.1 156.126C128.883 163.916 120.506 163.535 114.483 159.247C113.015 158.221 111.576 157.157 110.502 155.669C109.355 154.046 108.594 152.172 108.234 150.142C107.387 144.706 110.051 141.856 113.414 138.412C115.067 136.663 116.452 134.86 117.562 132.717C119.325 129.361 120.258 125.752 120.629 121.885C122.175 126.887 122.36 132.608 120.584 138.13C120.146 139.505 119.591 140.854 118.983 142.117C118.425 143.459 116.556 146.418 117.187 147.337L117.518 147.757C117.841 148.174 118.368 148.62 118.801 149.022C119.333 149.544 119.818 150.241 120.454 150.685C121.064 151.123 121.781 151.488 122.451 151.705C122.746 151.799 122.998 151.841 123.131 151.849C123.264 151.859 123.257 151.828 123.045 151.893C122.871 151.948 122.503 152.162 122.401 152.308C122.806 151.366 123.027 149.667 123.116 148.138C123.272 143.472 123.504 130.155 123.669 125.16C123.856 117.48 124.099 109.831 124.018 102.192C123.937 97.4714 123.794 92.4321 122.766 87.9853C122.209 85.6627 121.374 83.5541 119.763 81.8813C117.135 79.3213 113.899 77.6302 110.369 76.4793C107.227 75.4668 103.786 74.924 100.451 74.8353C97.3592 74.7231 94.3427 75.2737 91.5608 76.5863C88.1192 78.2513 85.0662 80.8009 81.3614 82.3693C76.9838 84.2926 72.0823 84.872 67.358 84.3553C64.292 84.0186 61.2363 83.1157 58.4596 81.8996C55.7481 80.7226 53.3469 79.3108 51.2481 78.2017C49.5664 77.3327 47.9187 76.4898 46.3048 76.4272C44.8291 76.328 43.7237 77.4006 42.4983 78.0947C40.728 78.9898 39.1089 80.2216 37.774 81.7352C36.3088 83.3479 34.88 85.5139 34.7184 87.6043C34.6793 88.3245 35.2268 88.6925 35.9047 89.0709C38.6527 90.3366 41.9664 90.3053 44.9908 90.2609Z" fill="#84B604"/>
<path d="M147.947 104.45C149.634 103.38 151.417 102.453 153.365 101.704C155.32 100.997 157.434 100.392 159.997 100.577C160.636 100.629 161.304 100.734 161.992 100.937C162.675 101.143 163.374 101.441 164.049 101.845C164.216 101.95 164.385 102.057 164.55 102.169C164.711 102.286 164.873 102.409 165.032 102.532C165.3 102.74 165.499 102.873 165.757 103.095C165.879 103.197 165.999 103.294 166.135 103.422C166.268 103.547 166.39 103.654 166.536 103.816C166.677 103.967 166.813 104.108 166.969 104.317C167.045 104.413 167.118 104.507 167.193 104.611C167.274 104.732 167.352 104.857 167.428 104.982L167.54 105.173L167.655 105.402C167.728 105.559 167.798 105.708 167.863 105.877C167.991 106.237 168.103 106.6 168.168 107.002C168.205 107.2 168.231 107.399 168.241 107.586C168.254 107.774 168.265 107.978 168.262 108.155C168.26 108.328 168.252 108.5 168.239 108.672L168.228 108.8L168.215 108.91L168.189 109.129C168.148 109.442 168.106 109.656 168.056 109.899L167.988 110.209L167.921 110.501L167.699 111.42C167.569 111.955 167.475 112.388 167.391 112.827C167.303 113.257 167.251 113.675 167.172 114.087C167.092 114.494 166.982 114.886 166.831 115.269C166.685 115.656 166.505 116.031 166.356 116.425C166.2 116.817 166.077 117.221 165.973 117.636C165.864 118.049 165.759 118.466 165.66 118.889C165.556 119.309 165.47 119.74 165.376 120.165C165.293 120.598 165.201 121.029 165.121 121.465L165.003 122.122L164.943 122.451L164.886 122.798L164.771 123.49L164.672 124.103C164.568 124.823 164.49 125.7 164.43 126.574C164.37 127.456 164.325 128.365 164.294 129.281C164.229 131.112 164.205 132.976 164.211 134.836C164.226 138.558 164.341 142.321 164.633 145.93C164.709 146.828 164.797 147.715 164.907 148.548C164.962 148.962 165.021 149.367 165.087 149.732C165.149 150.092 165.227 150.434 165.274 150.586C165.29 150.656 165.321 150.695 165.212 150.458L165.162 150.361C165.134 150.304 165.102 150.249 165.068 150.194C165.029 150.132 164.868 149.873 164.709 149.693L164.544 149.508C164.466 149.424 164.385 149.343 164.302 149.265C164.117 149.101 164.012 149.007 163.632 148.751C163.468 148.647 163.296 148.55 163.118 148.467C162.933 148.381 162.792 148.323 162.508 148.227C162.253 148.143 161.984 148.08 161.716 148.041C161.437 148.002 161.197 147.992 160.892 147.994C160.592 148 160.287 148.033 159.992 148.096C159.687 148.161 159.419 148.247 159.171 148.341C158.915 148.441 158.665 148.566 158.433 148.709C158.172 148.876 158.078 148.942 157.906 149.075C157.755 149.195 157.612 149.328 157.476 149.466C157.33 149.62 157.296 149.657 157.208 149.764C157.132 149.855 157.059 149.949 156.991 150.048L156.843 150.275C156.77 150.39 156.704 150.513 156.645 150.635C156.608 150.706 156.577 150.774 156.548 150.844L156.485 151.006C156.472 151.042 156.459 151.081 156.446 151.121C156.431 151.173 156.423 151.194 156.415 151.233C156.412 151.241 156.41 151.246 156.41 151.254L156.428 151.155C156.444 151.045 156.467 150.891 156.485 150.706L156.543 150.113L156.642 148.762C156.77 146.864 156.905 144.803 157.2 142.668C157.348 141.598 157.534 140.502 157.797 139.367C158.06 138.234 158.394 137.062 158.892 135.833C159.393 134.609 160.047 133.312 161.082 132.021C161.601 131.379 162.219 130.742 162.949 130.173C163.679 129.604 164.516 129.103 165.41 128.74C166.302 128.359 167.245 128.143 168.155 128.023C169.073 127.908 169.933 127.931 170.752 128.004C172.366 128.182 173.727 128.607 174.939 129.087C176.149 129.575 177.208 130.136 178.204 130.718C179.194 131.303 180.115 131.911 180.993 132.535C182.745 133.782 184.336 135.077 185.874 136.381C188.93 138.986 191.751 141.648 194.538 144.101C195.927 145.322 197.309 146.502 198.647 147.496C199.312 147.992 199.966 148.435 200.553 148.78C200.847 148.957 201.116 149.09 201.348 149.2C201.577 149.304 201.747 149.357 201.82 149.377C201.89 149.401 201.801 149.351 201.515 149.377C201.478 149.377 201.455 149.39 201.405 149.393C201.358 149.396 201.314 149.403 201.27 149.414C201.223 149.424 201.183 149.44 201.134 149.45C201.082 149.461 201.03 149.477 200.978 149.495C200.925 149.513 200.878 149.537 200.829 149.557C200.777 149.576 200.725 149.597 200.675 149.623C200.626 149.649 200.576 149.678 200.532 149.709C200.487 149.73 200.443 149.753 200.401 149.779C200.36 149.805 200.32 149.837 200.284 149.868L200.229 149.918L200.188 149.946C200.133 149.985 200.083 150.035 200.044 150.09C200.008 150.132 199.989 150.137 199.969 150.171C199.958 150.184 199.95 150.199 199.945 150.215C199.94 150.22 199.94 150.215 199.937 150.215C199.937 150.215 199.937 150.215 199.94 150.218C199.948 150.202 199.958 150.171 199.969 150.15C199.992 150.124 200.026 150.014 200.062 149.928C200.214 149.539 200.378 148.869 200.495 148.14C200.612 147.404 200.706 146.598 200.764 145.75C200.889 144.062 200.907 142.25 200.891 140.426C200.873 138.597 200.808 136.734 200.719 134.857C200.631 132.981 200.521 131.092 200.401 129.194L200.307 127.77C200.276 127.295 200.253 126.817 200.185 126.345C200.128 125.87 200.034 125.397 199.989 124.922C199.942 124.447 199.953 123.967 200.013 123.482L200.761 117.655C200.897 116.663 201.035 115.645 201.204 114.612C201.369 113.578 201.572 112.532 201.843 111.467C202.117 110.405 202.435 109.317 202.964 108.2C203.233 107.641 203.553 107.07 204.01 106.511C204.229 106.235 204.508 105.958 204.815 105.713C205.136 105.47 205.493 105.248 205.892 105.115C206.283 104.969 206.695 104.919 207.076 104.919C207.263 104.925 207.446 104.948 207.623 104.972C207.79 105.011 207.962 105.042 208.116 105.097C208.739 105.303 209.232 105.608 209.662 105.945C210.52 106.618 211.161 107.401 211.745 108.205C211.292 108.004 210.833 107.821 210.374 107.67C209.918 107.516 209.461 107.391 209.021 107.323C208.583 107.258 208.16 107.242 207.829 107.318C207.49 107.388 207.313 107.568 207.256 107.73C207.196 107.887 207.172 108.074 207.141 108.349C207.112 108.617 207.104 108.957 207.123 109.325C207.162 110.066 207.271 110.898 207.449 111.751C207.806 113.466 208.296 115.235 208.841 117.078L210.413 122.743C210.541 123.216 210.619 123.696 210.637 124.176C210.661 124.659 210.635 125.144 210.64 125.627C210.637 126.112 210.682 126.593 210.71 127.075L210.804 128.526C210.927 130.463 211.041 132.407 211.133 134.367C211.224 136.327 211.294 138.305 211.315 140.314C211.331 142.329 211.315 144.362 211.159 146.507C211.086 147.574 210.966 148.678 210.778 149.837C210.582 151.001 210.335 152.217 209.808 153.626C209.665 153.986 209.537 154.331 209.334 154.727C209.237 154.92 209.146 155.106 209.042 155.301C208.919 155.507 208.794 155.714 208.666 155.917C208.601 156.019 208.538 156.118 208.468 156.222L208.22 156.549C208.048 156.765 207.889 156.971 207.691 157.185C207.477 157.407 207.256 157.621 207.026 157.827L206.852 157.981L206.651 158.135C206.515 158.237 206.377 158.336 206.239 158.43C206.101 158.524 205.957 158.618 205.814 158.709C205.663 158.796 205.506 158.877 205.35 158.957C205.193 159.036 205.034 159.111 204.873 159.184C204.711 159.252 204.549 159.31 204.383 159.367C204.218 159.425 204.051 159.477 203.885 159.526C203.72 159.573 203.561 159.605 203.397 159.639C203.235 159.672 203.071 159.701 202.907 159.73C202.74 159.759 202.597 159.766 202.44 159.782C201.197 159.889 200.141 159.727 199.283 159.511C197.57 159.059 196.368 158.422 195.294 157.804C194.225 157.178 193.297 156.53 192.421 155.881C190.679 154.578 189.143 153.258 187.649 151.948C184.677 149.325 181.908 146.718 179.119 144.343C177.729 143.164 176.337 142.036 174.96 141.058C174.272 140.57 173.589 140.121 172.927 139.73C172.267 139.341 171.62 139.009 171.049 138.782C170.481 138.553 169.986 138.433 169.688 138.399C169.553 138.393 169.449 138.386 169.412 138.399C169.376 138.412 169.37 138.399 169.383 138.404C169.386 138.399 169.394 138.393 169.365 138.414C169.339 138.435 169.279 138.487 169.196 138.592C169.026 138.798 168.776 139.218 168.554 139.771C168.33 140.325 168.124 141 167.955 141.739C167.783 142.475 167.644 143.276 167.53 144.106C167.298 145.779 167.175 147.553 167.045 149.487L166.933 151.008C166.909 151.277 166.886 151.551 166.852 151.849C166.82 152.141 166.781 152.462 166.721 152.827L166.672 153.114L166.609 153.435L166.523 153.806C166.482 153.96 166.445 154.096 166.393 154.265L166.296 154.55L166.244 154.691L166.169 154.879C166.117 155.004 166.062 155.129 166.002 155.252C165.913 155.427 165.819 155.601 165.715 155.768C165.668 155.847 165.613 155.933 165.517 156.069C165.431 156.189 165.34 156.309 165.246 156.423C165.136 156.554 165.087 156.617 164.92 156.789C164.763 156.948 164.597 157.097 164.422 157.238C164.226 157.389 164.117 157.48 163.825 157.658C163.564 157.814 163.288 157.95 163.006 158.065C162.732 158.177 162.435 158.268 162.099 158.336C161.773 158.404 161.439 158.441 161.111 158.449C160.774 158.459 160.508 158.433 160.198 158.389C159.898 158.344 159.601 158.276 159.317 158.185C159.001 158.086 158.837 158.007 158.626 157.908C158.423 157.809 158.224 157.7 158.034 157.58C157.596 157.298 157.453 157.157 157.223 156.953C157.116 156.854 157.015 156.752 156.916 156.648C156.804 156.528 156.749 156.463 156.694 156.395C156.465 156.121 156.225 155.768 156.131 155.599C156.068 155.492 156.006 155.385 155.948 155.275C155.915 155.215 155.899 155.179 155.878 155.139L155.818 155.017C155.503 154.346 155.38 153.929 155.263 153.54C155.041 152.77 154.924 152.17 154.817 151.585C154.713 151.006 154.634 150.46 154.564 149.923C154.423 148.853 154.324 147.827 154.238 146.812C153.91 142.762 153.797 138.842 153.779 134.881C153.774 132.903 153.797 130.922 153.868 128.918C153.904 127.913 153.951 126.903 154.022 125.87C154.097 124.828 154.181 123.792 154.35 122.61L154.418 122.167L154.478 121.801L154.6 121.073L154.731 120.329L154.866 119.57C154.958 119.064 155.065 118.552 155.166 118.043C155.281 117.532 155.383 117.023 155.508 116.509C155.628 115.997 155.755 115.483 155.894 114.967L156.102 114.192L156.293 113.406C156.418 112.879 156.535 112.344 156.694 111.817C156.856 111.29 157.069 110.781 157.335 110.29C157.609 109.807 157.914 109.332 158.209 108.883C158.503 108.44 158.806 107.996 159.059 107.652L159.239 107.417C159.293 107.346 159.338 107.299 159.39 107.239C159.411 107.221 159.426 107.211 159.445 107.195C159.46 107.187 159.489 107.153 159.494 107.166C159.512 107.179 159.546 107.166 159.549 107.242L159.559 107.284L159.567 107.305V107.344C159.57 107.396 159.578 107.451 159.588 107.503C159.596 107.56 159.601 107.644 159.617 107.712L159.666 107.939C159.713 108.098 159.758 108.231 159.831 108.359C159.859 108.414 159.883 108.453 159.914 108.497C159.93 108.518 159.945 108.539 159.964 108.557C159.974 108.568 159.984 108.576 159.995 108.586C160.016 108.604 160.039 108.62 160.065 108.636C160.078 108.636 160.089 108.63 160.099 108.625C160.136 108.625 160.125 108.576 160.128 108.531C160.138 108.495 160.104 108.419 160.089 108.356C160.076 108.296 160.036 108.213 160 108.135C159.945 107.991 159.812 107.774 159.752 107.636C159.742 107.592 159.731 107.547 159.721 107.498L159.671 107.357C159.593 107.166 159.468 106.963 159.283 106.762C159.103 106.553 158.855 106.355 158.566 106.167C157.99 105.786 157.231 105.494 156.407 105.256C155.581 105.016 154.684 104.852 153.758 104.739C151.899 104.494 149.939 104.463 147.944 104.465L147.947 104.45Z" fill="#84B604"/>
<path d="M170.713 94.6948C161.53 101.167 146.881 100.608 140.527 90.3001C137.45 85.2035 136.692 78.7368 138.717 73.0738C140.107 69.2637 143.538 66.2966 147.209 64.7464C153.873 62.0037 161.152 63.2067 167.702 65.2449C174.499 67.2856 180.503 71.5498 185.259 76.6856C186.604 78.0896 187.842 79.4831 188.987 80.6522C189.91 81.5735 190.877 82.5286 191.857 83.0192C192.53 83.3245 192.765 83.2932 193.471 83.134C194.149 82.9461 195.085 82.385 196 81.5108C199.551 77.9852 201.773 72.4632 202.427 67.4918C203.616 56.9436 197.215 47.2148 190.283 39.6782C178.542 26.8413 162.675 18.6861 145.509 15.0274C120.9 9.81073 93.8447 12.2586 71.7877 24.858C69.522 26.0871 67.5822 27.8069 65.3635 29.096C61.6535 31.2359 58.1024 33.7804 54.8825 36.6405C51.5948 39.5529 48.6226 42.8437 46.0493 46.4163C42.8294 50.8448 40.2691 55.6257 38.126 60.7328C39.719 45.2811 47.5224 30.9437 59.1505 20.6825C94.3974 -5.28608 154.316 -4.07781 188.335 23.6393C197.87 31.5047 206.518 40.9412 210.846 52.8125C214.665 63.1754 213.276 74.3656 207.438 83.7734C203.248 90.6602 195.544 96.3467 187.279 92.4009C183.306 90.4332 180.576 86.8371 177.719 83.9039C174.092 80.0129 169.913 76.8761 164.842 75.2946C160.787 73.9689 153.599 72.3222 150.053 75.1094C149.378 75.72 148.927 76.4794 148.33 77.3902C146.609 79.992 146.377 83.8673 147.345 86.8919C147.989 88.9405 149.347 90.6863 151.016 92.059C156.217 96.3023 164.333 96.7799 170.703 94.6974L170.713 94.6948Z" fill="#84B604"/>
<path d="M191.362 178.201C190.958 183.504 189.06 191.1 183.6 193.457C178.339 195.469 173.312 191.121 170.491 187.097C167.772 183.084 165.611 177.423 167.342 172.441C169.256 167.233 174.282 163.918 179.085 162.212C190.296 158.031 213.596 158.25 219.014 171.137C219.859 173.06 220.36 175.025 220.547 177.097C220.855 181.411 219.184 185.808 216.694 189.161C215.828 190.351 215.002 191.33 214.045 192.335C210.275 196.168 205.994 199.383 201.53 202.275C184.891 213.011 164.769 218.076 145.045 215.942C135.784 214.966 126.484 212.677 118.178 208.348C112.71 205.589 107.832 202.048 102.485 199.631C96.856 197.04 90.6431 195.787 84.4718 195.37L82.3704 195.244C82.1957 195.234 82.021 195.218 81.8437 195.216H81.3171H80.2638L78.1545 195.211L76.0427 195.323L74.9868 195.378C74.6348 195.396 74.2828 195.432 73.9335 195.49C72.536 195.719 71.1411 195.931 69.7202 195.965L67.5693 196.004C66.8523 196.03 66.1353 196.095 65.4131 196.137L64.3285 196.21L63.7862 196.247C62.5087 196.398 60.2169 196.609 58.8977 196.831L56.7128 197.155L54.5332 197.562L53.4356 197.76L52.3458 197.995C49.5691 198.572 46.3361 199.415 43.609 200.203C40.7046 201.059 37.808 202.024 34.8983 203.037C37.8471 200.636 41.0748 198.319 44.3208 196.267C51.7226 191.565 59.5808 187.979 68.2002 185.636C69.7619 185.14 71.4045 185.148 73.0183 185.033C75.3335 184.895 77.9772 184.725 80.3211 184.772C81.0981 184.78 82.0158 184.756 82.7615 184.811C90.9846 185.166 99.2755 186.656 106.795 190.127C113.055 192.932 118.72 197.147 124.8 199.978C142.229 207.797 162.865 207.773 180.641 201.121C188.604 198.146 196.18 193.874 202.763 188.506C204.315 187.217 205.77 185.957 207.081 184.493C208.705 182.588 210.103 180.576 210.139 178.123V177.755C210.147 177.984 210.144 177.898 210.144 177.909C210.103 177.499 210.03 177.087 209.925 176.682C209.579 175.487 209.222 174.464 208.226 173.655C206.651 172.397 204.281 171.557 202.135 171.074C199.643 170.502 196.947 170.234 194.259 170.226C190.301 170.226 186.307 170.714 182.641 172.021C181.491 172.436 180.438 172.937 179.567 173.488C178.858 173.95 178.11 174.498 177.737 175.166C177.599 175.411 177.541 175.628 177.476 175.883C177.288 176.549 177.038 177.311 176.973 178.12C176.783 180.889 177.739 183.986 179.273 186.293C179.896 187.217 180.641 187.953 181.225 188.292C181.523 188.459 181.747 188.572 182.148 188.569C186.077 188.175 189.829 181.58 191.36 178.201H191.362Z" fill="#84B604"/>
<path d="M203.559 99.6636C205.086 96.472 206.862 93.3978 208.841 90.428C209.834 88.9458 210.877 87.4896 211.993 86.0751C212.548 85.3679 213.119 84.6685 213.706 83.977C214.298 83.2906 214.905 82.6174 215.534 81.9519C216.785 80.621 218.115 79.337 219.567 78.1444C221.022 76.9544 222.568 75.8114 224.333 74.8537C226.093 73.8985 228.064 73.0765 230.41 72.7633C231.581 72.6146 232.851 72.6172 234.146 72.8755C234.793 73.0034 235.442 73.1913 236.071 73.4444C236.696 73.7002 237.301 74.016 237.864 74.3761C238.422 74.7414 238.944 75.1459 239.418 75.5765C239.885 76.0097 240.32 76.4638 240.704 76.9309C241.475 77.8652 242.085 78.8412 242.602 79.8094C243.626 81.751 244.281 83.6847 244.802 85.5793C245.816 89.3763 246.278 93.0716 246.583 96.7173C246.875 100.363 246.977 103.959 246.997 107.521C247.003 109.301 247.003 111.073 246.974 112.837L246.935 115.473L246.885 118.116C246.844 119.899 246.784 121.686 246.687 123.474C246.598 125.264 246.473 127.054 246.317 128.85C246.009 132.441 245.563 136.039 244.901 139.675C244.554 141.491 244.169 143.32 243.66 145.168C243.149 147.018 242.555 148.887 241.687 150.818C241.248 151.786 240.751 152.773 240.075 153.79C239.4 154.8 238.573 155.878 237.272 156.891C236.623 157.389 235.828 157.861 234.913 158.195C234 158.535 232.942 158.699 232.029 158.676C231.104 158.66 230.272 158.498 229.537 158.271C228.802 158.041 228.15 157.749 227.563 157.431C226.387 156.786 225.433 156.042 224.594 155.241C223.754 154.44 223.029 153.589 222.383 152.692C221.108 150.888 220.112 148.91 219.564 146.629C219.293 145.492 219.147 144.268 219.231 142.968C219.272 142.321 219.374 141.655 219.559 140.987C219.742 140.319 220.015 139.656 220.346 139.059C220.678 138.459 221.066 137.931 221.457 137.477C221.848 137.023 222.247 136.645 222.625 136.303C223.384 135.627 224.08 135.097 224.716 134.575C225.352 134.054 225.942 133.547 226.502 133.012C227.06 132.477 227.579 131.906 228.069 131.295C229.044 130.071 229.889 128.706 230.562 127.214C230.906 126.47 231.206 125.697 231.464 124.901C231.73 124.106 231.956 123.289 232.144 122.454C232.53 120.783 232.757 119.048 232.918 117.276C233.411 118.985 233.721 120.76 233.854 122.579C233.909 123.487 233.93 124.408 233.886 125.335C233.839 126.261 233.737 127.193 233.575 128.124C233.419 129.059 233.182 129.982 232.89 130.898C232.593 131.814 232.248 132.725 231.813 133.602C230.96 135.353 229.811 137.044 228.59 138.464C227.993 139.179 227.407 139.842 226.961 140.431C226.51 141.026 226.239 141.517 226.148 141.888C226.098 142.076 226.082 142.245 226.077 142.43C226.072 142.613 226.082 142.825 226.114 143.052C226.179 143.503 226.327 144.022 226.552 144.56C227.005 145.635 227.759 146.76 228.653 147.692C229.094 148.161 229.573 148.587 230.056 148.934C230.535 149.278 231.018 149.555 231.409 149.691C231.795 149.837 232.076 149.811 231.967 149.758C231.928 149.732 231.745 149.738 231.646 149.758C231.542 149.774 231.505 149.787 231.534 149.737C231.597 149.649 231.852 149.32 232.095 148.845C232.342 148.375 232.6 147.778 232.835 147.133C233.302 145.831 233.698 144.333 234.027 142.788C234.352 141.238 234.637 139.63 234.866 137.997C235.346 134.729 235.669 131.368 235.94 127.986C236.071 126.295 236.183 124.594 236.287 122.892C236.383 121.188 236.475 119.481 236.55 117.767C236.827 110.807 237.21 103.886 237.095 97.2001C237.061 95.5299 237.004 93.8754 236.874 92.2548C236.756 90.6342 236.569 89.0475 236.3 87.5339C236.034 86.023 235.659 84.5929 235.179 83.3742C234.689 82.1607 234.086 81.2108 233.471 80.6758C233.156 80.407 232.84 80.1956 232.434 80.0469C232.032 79.8903 231.534 79.8094 230.963 79.7963C229.818 79.7702 228.421 80.0834 227.024 80.6053C225.621 81.1299 224.184 81.8397 222.789 82.6695C221.395 83.5046 220.01 84.4363 218.66 85.4384C217.984 85.9394 217.317 86.4614 216.657 86.9963C215.992 87.5261 215.335 88.0715 214.686 88.63C213.396 89.7547 212.113 90.9108 210.864 92.1113C208.356 94.5069 205.949 97.0487 203.559 99.6505V99.6636Z" fill="#84B604"/>
</g>
</g>
<defs>
<filter id="filter0_d_262_344" x="0" y="1.99847" width="251" height="227.423" filterUnits="userSpaceOnUse" color-interpolation-filters="sRGB">
<feFlood flood-opacity="0" result="BackgroundImageFix"/>
<feColorMatrix in="SourceAlpha" type="matrix" values="0 0 0 0 0 0 0 0 0 0 0 0 0 0 0 0 0 0 127 0" result="hardAlpha"/>
<feOffset dy="4"/>
<feGaussianBlur stdDeviation="2"/>
<feComposite in2="hardAlpha" operator="out"/>
<feColorMatrix type="matrix" values="0 0 0 0 0 0 0 0 0 0 0 0 0 0 0 0 0 0 0.25 0"/>
<feBlend mode="normal" in2="BackgroundImageFix" result="effect1_dropShadow_262_344"/>
<feBlend mode="normal" in="SourceGraphic" in2="effect1_dropShadow_262_344" result="shape"/>
</filter>
<filter id="filter1_d_262_344" x="1.51912" y="5.93524" width="245.962" height="219.385" filterUnits="userSpaceOnUse" color-interpolation-filters="sRGB">
<feFlood flood-opacity="0" result="BackgroundImageFix"/>
<feColorMatrix in="SourceAlpha" type="matrix" values="0 0 0 0 0 0 0 0 0 0 0 0 0 0 0 0 0 0 127 0" result="hardAlpha"/>
<feOffset dy="1.41765"/>
<feGaussianBlur stdDeviation="1.24044"/>
<feComposite in2="hardAlpha" operator="out"/>
<feColorMatrix type="matrix" values="0 0 0 0 0 0 0 0 0 0 0 0 0 0 0 0 0 0 0.25 0"/>
<feBlend mode="normal" in2="BackgroundImageFix" result="effect1_dropShadow_262_344"/>
<feBlend mode="normal" in="SourceGraphic" in2="effect1_dropShadow_262_344" result="shape"/>
</filter>
<filter id="filter2_d_262_344" x="3.51912" y="0.935239" width="245.962" height="219.385" filterUnits="userSpaceOnUse" color-interpolation-filters="sRGB">
<feFlood flood-opacity="0" result="BackgroundImageFix"/>
<feColorMatrix in="SourceAlpha" type="matrix" values="0 0 0 0 0 0 0 0 0 0 0 0 0 0 0 0 0 0 127 0" result="hardAlpha"/>
<feOffset dy="1.41765"/>
<feGaussianBlur stdDeviation="1.24044"/>
<feComposite in2="hardAlpha" operator="out"/>
<feColorMatrix type="matrix" values="0 0 0 0 0 0 0 0 0 0 0 0 0 0 0 0 0 0 0.25 0"/>
<feBlend mode="normal" in2="BackgroundImageFix" result="effect1_dropShadow_262_344"/>
<feBlend mode="normal" in="SourceGraphic" in2="effect1_dropShadow_262_344" result="shape"/>
</filter>
</defs>
</svg>
