<svg width="32" height="33" viewBox="0 0 32 33" fill="none" xmlns="http://www.w3.org/2000/svg">
<path d="M30 7.5V15.5C30 15.7652 29.8947 16.0196 29.7071 16.2071C29.5196 16.3946 29.2652 16.5 29 16.5C28.7348 16.5 28.4804 16.3946 28.2929 16.2071C28.1054 16.0196 28 15.7652 28 15.5V9.91375L17.7075 20.2075C17.6146 20.3005 17.5043 20.3742 17.3829 20.4246C17.2615 20.4749 17.1314 20.5008 17 20.5008C16.8686 20.5008 16.7385 20.4749 16.6171 20.4246C16.4957 20.3742 16.3854 20.3005 16.2925 20.2075L12 15.9137L3.70751 24.2075C3.51987 24.3951 3.26537 24.5006 3.00001 24.5006C2.73464 24.5006 2.48015 24.3951 2.29251 24.2075C2.10487 24.0199 1.99945 23.7654 1.99945 23.5C1.99945 23.2346 2.10487 22.9801 2.29251 22.7925L11.2925 13.7925C11.3854 13.6995 11.4957 13.6258 11.6171 13.5754C11.7385 13.5251 11.8686 13.4992 12 13.4992C12.1314 13.4992 12.2615 13.5251 12.3829 13.5754C12.5043 13.6258 12.6146 13.6995 12.7075 13.7925L17 18.0863L26.5863 8.5H21C20.7348 8.5 20.4804 8.39464 20.2929 8.20711C20.1054 8.01957 20 7.76522 20 7.5C20 7.23478 20.1054 6.98043 20.2929 6.79289C20.4804 6.60536 20.7348 6.5 21 6.5H29C29.2652 6.5 29.5196 6.60536 29.7071 6.79289C29.8947 6.98043 30 7.23478 30 7.5Z" fill="#82BCD4"/>
</svg>
