<svg width="22" height="22" viewBox="0 0 22 22" fill="none" xmlns="http://www.w3.org/2000/svg">
<path d="M20.5339 1.77415C19.7976 1.77415 19.2007 2.40194 19.2007 3.17636V5.42867C18.4065 3.97468 17.3008 2.73227 15.9591 1.7964C14.2744 0.621191 12.3114 0 10.2824 0C8.89481 0 7.54809 0.28613 6.27959 0.850485C5.05498 1.39526 3.95552 2.17489 3.01161 3.16768C2.06775 4.16047 1.32653 5.31695 0.808564 6.60498C0.27206 7.93924 0 9.35576 0 10.8151C0 12.2746 0.272061 13.6911 0.808589 15.0253C1.32653 16.3134 2.06778 17.4698 3.01166 18.4626C3.95554 19.4554 5.05506 20.235 6.27961 20.7798C7.54812 21.3442 8.89483 21.6303 10.2824 21.6303C11.4673 21.6303 12.6295 21.4198 13.7366 21.0045C14.8066 20.6032 15.8009 20.0204 16.6922 19.2722C17.5746 18.5315 18.331 17.6498 18.9404 16.6516C19.561 15.6348 20.0117 14.525 20.2797 13.3533C20.452 12.6004 20.0114 11.8431 19.2955 11.6619C18.5796 11.4808 17.8597 11.9443 17.6875 12.6972C17.2947 14.4143 16.3505 15.9709 15.029 17.0803C14.3688 17.6345 13.6327 18.0661 12.8411 18.363C12.0222 18.6701 11.1613 18.8259 10.2824 18.8259C8.24808 18.8259 6.33545 17.9926 4.89699 16.4796C3.4585 14.9665 2.66626 12.9549 2.66626 10.8151C2.66626 8.67538 3.45847 6.66366 4.89699 5.15064C6.3355 3.63762 8.24808 2.80433 10.2824 2.80433C11.7856 2.80433 13.239 3.26394 14.4855 4.13344C15.5596 4.88272 16.4296 5.8964 17.025 7.08598H15.5515C14.8152 7.08598 14.2184 7.71376 14.2184 8.48818C14.2184 9.26257 14.8152 9.89039 15.5515 9.89039H20.5339C21.2702 9.89039 21.867 9.26257 21.867 8.48818V3.17636C21.867 2.40194 21.2701 1.77415 20.5339 1.77415Z" fill="white"/>
</svg>
