<svg width="110" height="86" viewBox="0 0 110 86" fill="none" xmlns="http://www.w3.org/2000/svg">
<ellipse cx="76.7857" cy="78.7143" rx="33.2143" ry="6.42857" fill="black" fill-opacity="0.12"/>
<ellipse cx="33.2143" cy="60.8572" rx="33.2143" ry="6.42857" fill="black" fill-opacity="0.12"/>
<path d="M50.8086 14.7274C51.9179 15.4207 52.4725 16.8073 52.6112 18.0553C52.7499 19.4419 52.3339 20.6898 52.1952 22.0765C51.7792 24.2951 51.7792 26.5137 51.6406 28.7323C51.6406 29.9802 51.5019 31.2282 51.6406 32.4761C51.9179 34.4174 52.6112 36.22 53.0272 38.0226C54.1365 42.3212 53.4432 47.0357 52.6112 51.4729C52.1952 53.5528 51.6406 55.9101 49.838 57.158C48.4513 58.2673 46.5101 58.406 44.8461 58.5447C34.8624 59.3766 25.0174 58.9606 15.3111 58.5447C15.1724 58.5447 14.8951 58.5446 14.7564 58.406C14.6178 58.2673 14.4791 57.99 14.4791 57.8513C13.9244 55.7714 13.5084 53.5528 12.9538 51.4729C12.6765 50.0863 12.2605 48.8383 12.3992 47.313C12.5378 45.6491 13.5084 43.9851 13.9244 42.3212C14.3404 40.7959 14.4791 39.2706 14.6177 37.884C15.3111 31.9215 16.4204 25.959 18.0843 20.2739C18.7776 17.7779 19.7482 15.1434 21.8282 13.3407C22.7988 12.5088 23.7695 11.9541 24.7401 11.1222C25.7107 10.2902 26.5427 9.31954 26.5427 8.21024C32.0892 7.23961 37.6357 6.82362 43.1822 7.10094C43.8755 7.10094 44.7075 7.23961 45.2621 7.51693C47.2034 8.62623 46.3714 11.6768 47.8967 13.0634C48.7287 14.0341 49.9766 14.1727 50.8086 14.7274Z" fill="#4D4B3B"/>
<path d="M23.3535 27.0684C25.0174 26.7911 25.7108 24.9885 25.1561 23.7405C29.1773 21.6606 34.5851 23.3245 34.5851 23.3245C34.5851 23.3245 38.4677 22.3539 41.9342 23.1859C41.2409 24.5725 41.6569 26.5138 43.5982 26.5138C44.2915 26.5138 44.8462 26.2364 45.2621 25.9591C45.2621 28.871 44.7075 38.5774 40.9636 44.8172C39.577 47.0358 35.6944 48.9771 32.5052 48.9771C29.1773 48.9771 25.7108 47.1744 24.6015 44.6785C22.3829 39.548 22.9375 31.0896 23.3535 27.0684Z" fill="#A0A090"/>
<path d="M33.1986 41.9052C37.3585 41.3506 38.1904 42.4598 38.1904 42.4598C38.0518 44.5398 33.0599 44.5398 33.0599 44.5398C33.0599 44.5398 28.0681 44.4011 28.2067 42.3212C28.0681 42.3212 29.1774 41.2119 33.1986 41.9052Z" fill="#B3B3A6"/>
<path d="M33.1986 41.9052C37.3585 41.3506 38.1904 42.4598 38.1904 42.4598C37.9131 45.2331 34.1692 45.0944 33.1986 44.9558C33.0599 44.9558 32.9213 44.9558 32.7826 44.9558C31.812 45.0944 27.9294 45.3718 28.2067 42.3212C28.0681 42.3212 29.1774 41.2119 33.1986 41.9052Z" fill="#B3B3A6"/>
<path d="M33.1986 41.9052C37.3585 41.3506 38.1904 42.4598 38.1904 42.4598C38.1904 42.4598 38.1904 42.4599 38.1904 42.5985C36.2492 43.2918 33.0599 43.2918 33.0599 43.2918C33.0599 43.2918 29.8707 43.2918 28.0681 42.4598C28.0681 42.4598 28.0681 42.4599 28.0681 42.3212C28.0681 42.3212 29.1774 41.2119 33.1986 41.9052Z" fill="#C0C0B5"/>
<path d="M31.5346 37.3295C31.9505 36.9135 32.6439 34.6949 32.9212 33.5856C33.0599 33.1697 33.4758 32.8923 33.8918 32.8923C34.3078 32.8923 34.7238 33.1697 34.7238 33.5856C34.8625 34.8336 35.1398 37.0522 35.5558 37.4682C36.1104 37.8842 36.8037 38.4388 36.2491 39.5481C36.1104 39.6868 35.9718 39.8254 35.8331 39.8254C35.4171 39.6868 34.7238 39.6868 34.1692 40.2414C33.8918 40.5188 33.3372 40.5188 33.3372 40.5188C33.3372 40.5188 32.9212 40.5188 32.6439 40.2414C32.2279 39.6868 31.5346 39.8254 31.1186 39.8254C30.9799 39.8254 30.7026 39.8255 30.7026 39.5481C30.0093 38.3002 30.9799 37.7455 31.5346 37.3295Z" fill="#B3B3A6"/>
<path d="M41.2408 34.0014C41.2408 34.0014 39.5769 37.0519 36.1103 35.2493C36.1103 35.1107 38.4676 30.1188 41.2408 34.0014Z" fill="#BBBBB0"/>
<path d="M26.4041 33.7242C26.4041 33.7242 27.3747 36.9134 31.2573 34.9721C31.2573 35.1108 30.0093 29.9803 26.4041 33.7242Z" fill="#BBBBB0"/>
<path d="M41.2408 34.4175C41.2408 34.4175 39.7156 36.7747 36.1103 35.2494C36.1103 35.2494 38.1903 31.5055 41.2408 34.4175Z" fill="#777760"/>
<path d="M26.2654 34.2789C26.2654 34.2789 27.3747 36.6361 31.2573 35.2495C31.2573 35.2495 29.732 31.367 26.2654 34.2789Z" fill="#777760"/>
<path d="M28.7613 53.4142C29.0386 53.2756 29.3159 53.1369 29.7319 53.1369C31.5345 52.9982 33.4758 52.9982 35.2784 53.1369C35.5557 53.1369 35.833 53.1369 35.9717 53.2755C36.249 53.5529 36.3877 53.9689 36.3877 54.3848C36.5263 55.4941 36.249 56.6034 36.1104 57.5741C35.9717 58.2674 35.833 58.9607 35.6944 59.7927C35.6944 59.9313 35.6944 59.9313 35.6944 59.9313C35.5557 60.07 35.417 60.07 35.1397 60.07C32.9211 59.9313 30.7025 60.2087 28.4839 59.7927C28.3453 59.7927 28.2066 59.7927 28.2066 59.654C28.2066 59.654 28.0679 59.5154 28.0679 59.3767C27.9293 58.5447 27.9293 57.7127 28.0679 56.8808C28.2066 56.0488 28.2066 55.2168 28.3453 54.3848C28.3453 54.1075 28.3453 53.6915 28.7613 53.4142Z" fill="#9C9C8B"/>
<path d="M27.236 59.6541C26.9587 59.7928 26.6814 59.9315 26.404 59.9315C24.7401 60.0701 23.0762 60.0701 21.4122 59.9315C21.1349 59.9315 20.9962 59.9315 20.7189 59.7928C20.4416 59.5155 20.3029 59.0995 20.3029 58.6835C20.3029 57.5742 20.4416 56.4649 20.5802 55.4943C20.7189 54.801 20.8576 54.1076 20.9962 53.2757C20.9962 53.137 20.9962 53.137 20.9962 53.137C21.1349 52.9984 21.2735 52.9984 21.4122 52.9984C23.3535 53.137 25.4334 52.8597 27.3747 53.2757C27.5133 53.2757 27.652 53.2757 27.652 53.4143C27.652 53.4143 27.7907 53.553 27.7907 53.6917C27.9293 54.5236 27.9293 55.3556 27.7907 56.1876C27.652 57.0196 27.652 57.8515 27.5133 58.6835C27.652 58.9608 27.5133 59.3768 27.236 59.6541Z" fill="#8B8B77"/>
<path d="M13.5084 53.2754C13.7857 53.1368 14.0631 52.9981 14.3404 52.9981C16.0043 52.8594 17.6683 52.7208 19.3322 52.8594C19.6096 52.8594 19.7482 52.8594 20.0255 52.9981C20.3029 53.2754 20.4415 53.6914 20.4415 54.1074C20.5802 55.2167 20.3029 56.326 20.1642 57.2966C20.0255 57.99 19.8869 58.6833 19.7482 59.5153C19.7482 59.6539 19.7482 59.6539 19.7482 59.6539C19.6095 59.7925 19.4709 59.7925 19.3322 59.7925C17.391 59.6539 15.311 59.9312 13.3698 59.6539C13.2311 59.6539 13.0924 59.6539 13.0924 59.5153C13.0924 59.5153 12.9538 59.3766 12.9538 59.2379C12.8151 58.4059 12.8151 57.574 12.9538 56.742C13.0924 55.91 13.0924 55.078 13.2311 54.2461C13.0924 53.9687 13.0924 53.5528 13.5084 53.2754Z" fill="#74745C"/>
<path d="M44.7074 53.6913C44.9848 53.5527 45.2621 53.414 45.5394 53.414C47.2034 53.2753 48.8673 53.1367 50.5313 53.2753C50.8086 53.2753 50.9472 53.2753 51.2246 53.414C51.5019 53.6913 51.6406 54.1073 51.6406 54.5233C51.7792 55.6326 51.5019 56.7419 51.3632 57.7125C51.2246 58.4058 51.0859 59.0991 50.9472 59.9311C50.9472 60.0698 50.9472 60.0698 50.9472 60.0698C50.8086 60.2085 50.6699 60.2085 50.5313 60.2085C48.59 60.0698 46.5101 60.3471 44.5688 60.0698C44.4301 60.0698 44.2915 60.0698 44.2915 59.9311C44.2915 59.9311 44.1528 59.7924 44.1528 59.6538C44.0141 58.8218 44.0141 57.9899 44.1528 57.1579C44.2915 56.3259 44.2914 55.4939 44.4301 54.662C44.2914 54.3846 44.4301 53.83 44.7074 53.6913Z" fill="#9C9C8B"/>
<path d="M43.1822 59.7926C42.9049 59.9313 42.6275 60.07 42.3502 60.07C40.6863 60.2086 39.0223 60.2086 37.3584 60.07C37.081 60.07 36.9424 60.0699 36.665 59.9313C36.3877 59.654 36.2491 59.238 36.2491 58.822C36.2491 57.7127 36.3877 56.6034 36.5264 55.6327C36.6651 54.9394 36.8037 54.2461 36.9424 53.4142C36.9424 53.2755 36.9424 53.2755 36.9424 53.2755C37.081 53.1368 37.2197 53.1368 37.3584 53.1368C39.2996 53.2755 41.3796 52.9982 43.3208 53.4142C43.4595 53.4142 43.5982 53.4141 43.5982 53.5528C43.5982 53.5528 43.7368 53.6915 43.7368 53.8302C43.8755 54.6621 43.8755 55.4941 43.7368 56.3261C43.5982 57.158 43.5982 57.99 43.4595 58.822C43.5982 59.0993 43.4595 59.5153 43.1822 59.7926Z" fill="#8B8B77"/>
<path d="M28.9 48.8381C30.564 49.1154 32.0893 49.1154 33.7532 49.1154C34.7238 49.1154 35.6945 48.8381 36.6651 48.5608C36.8038 49.1154 36.8038 49.6701 36.6651 50.2247C36.6651 50.7794 36.5264 51.334 36.5264 52.0273C36.5264 52.3047 36.3878 52.7206 36.1105 52.8593C35.8331 52.998 35.5558 52.998 35.1398 52.998C33.3372 52.998 31.3959 53.1366 29.5933 52.998C29.316 52.998 29.0387 52.998 28.9 52.8593C28.484 52.7206 28.484 52.4433 28.3454 52.0273C28.2067 51.334 28.3454 50.5021 28.6227 49.6701C28.7614 49.5314 28.9 49.1154 28.9 48.8381Z" fill="#9C9C8B"/>
<path d="M27.7907 52.7209C27.5133 52.8596 27.236 52.8596 26.9587 52.8596C25.2948 52.8596 23.6308 52.9982 21.9669 52.8596C21.6895 52.8596 21.5509 52.8596 21.2736 52.7209C20.9962 52.5823 20.8576 52.3049 20.8576 52.1663C20.7189 51.6116 20.8576 50.9183 20.9962 50.3637C21.1349 49.9477 21.1349 49.5317 21.2736 49.1157V48.977C21.4122 48.8384 21.5509 48.8384 21.6895 48.8384C23.6308 48.977 25.7108 48.8384 27.652 48.977C27.7907 48.977 27.9293 48.977 27.9293 49.1157L28.068 49.2544C28.2067 49.6704 28.2067 50.225 28.2067 50.641C28.2067 51.057 28.068 51.6116 28.068 52.0276C28.2067 52.3049 28.068 52.5823 27.7907 52.7209Z" fill="#9C9C8B"/>
<path d="M43.7368 52.9982C43.4595 53.1369 43.1821 53.1369 42.9048 53.1369C41.2409 53.1369 39.5769 53.2755 37.913 53.1369C37.6356 53.1369 37.497 53.1369 37.2197 52.9982C36.9423 52.8595 36.8037 52.5822 36.8037 52.4436C36.665 51.8889 36.8037 51.1956 36.9423 50.641C37.081 50.225 37.081 49.809 37.2197 49.393V49.2543C37.3583 49.1157 37.497 49.1157 37.6356 49.1157C39.5769 49.2543 41.6568 49.1157 43.5981 49.2543C43.7368 49.2543 43.8755 49.2543 43.8755 49.393L44.0141 49.5317C44.1528 49.9476 44.1528 50.5023 44.1528 50.9183C44.1528 51.3343 44.0141 51.8889 44.0141 52.3049C44.0141 52.5822 44.0141 52.8595 43.7368 52.9982Z" fill="#B3B3A6"/>
<path d="M23.0763 26.6523C23.3536 25.6816 23.7696 24.711 24.4629 24.0177C24.8789 23.6017 25.5722 23.1857 26.1268 22.9084C26.1268 22.9084 26.1268 22.9084 26.2655 22.9084C31.812 19.9965 38.3291 20.1351 43.321 23.047C43.321 23.047 43.321 23.047 43.4596 23.047C44.0143 23.3244 44.5689 23.7404 44.8462 24.1563C45.4009 24.8496 45.8169 25.8203 45.8169 26.7909C45.9555 27.9002 45.6782 29.1482 45.4009 30.3961C45.1236 31.6441 44.8462 32.8921 44.5689 34.14C44.4303 34.556 44.2916 34.8333 44.1529 35.1107C43.8756 35.388 43.4596 35.5267 43.1823 35.388C42.7663 34.6947 42.7663 33.724 42.7663 32.8921C42.7663 32.0601 42.6277 31.3668 42.489 30.5348C42.3503 29.5642 42.2117 28.5935 41.657 27.7616C40.9637 26.6523 39.7157 25.959 38.4678 25.6816C37.2198 25.4043 31.9507 25.4043 30.7027 25.543C29.3161 25.8203 27.9294 26.3749 27.0975 27.4842C26.4042 28.3162 26.1268 29.2869 25.8495 30.2575C25.5722 30.9508 25.4335 31.7828 25.2949 32.6147C25.1562 33.4467 25.0175 34.4174 24.4629 35.1107C24.0469 35.2493 23.7696 34.972 23.4923 34.6947C23.3536 34.4174 23.2149 34.0014 23.2149 33.724C23.0763 32.4761 22.9376 31.2281 22.9376 29.9801C22.7989 29.0095 22.7989 27.7616 23.0763 26.6523Z" fill="#84846F"/>
<path d="M14.6178 43.0145C15.1724 42.7371 15.7271 42.5985 16.1431 42.5985C17.5297 42.4598 19.055 42.5985 20.3029 43.1531C20.5803 43.2918 20.8576 43.4305 21.1349 43.7078C21.2736 43.9851 21.2736 44.2624 21.2736 44.5397C21.4122 46.7583 21.2736 48.9769 20.5803 51.1955C20.4416 51.6115 20.303 51.8888 20.0256 52.1662C19.7483 52.3048 19.471 52.4435 19.1936 52.4435C16.8364 52.5822 14.3405 52.8595 12.1219 52.3048C11.8445 52.3048 11.7059 52.1662 11.5672 52.0275C11.4286 51.8889 11.4285 51.6115 11.4285 51.4729C11.4285 50.2249 11.7059 48.9769 11.8445 47.5903C12.2605 45.7877 12.9538 43.8464 14.6178 43.0145Z" fill="#9C9C8B"/>
<path d="M51.918 43.4306C51.502 43.1533 50.9474 43.0146 50.3927 42.8759C49.0061 42.5986 47.4808 42.876 46.0942 43.4306C45.8168 43.5693 45.4009 43.7079 45.2622 43.9852C45.1235 44.2626 44.9849 44.5399 44.9849 44.8172C44.4302 47.0358 44.2916 49.2544 44.5689 51.473C44.5689 51.889 44.7075 52.1663 44.9849 52.4437C45.2622 52.5823 45.5395 52.721 45.8168 52.721C48.1741 52.9983 50.5314 53.2756 52.8886 52.721C53.166 52.721 53.3046 52.5823 53.4433 52.4437C53.5819 52.305 53.5819 52.0277 53.5819 51.889C53.7206 50.641 53.7206 49.3931 53.7206 48.0064C53.8593 46.2038 53.4433 44.2626 51.918 43.4306Z" fill="#B3B3A6"/>
<path d="M44.9849 43.153C44.2916 41.0731 44.4302 38.7158 44.8462 36.3586C45.2622 34.14 45.9555 31.7827 46.0942 29.5641C46.6488 24.4336 44.8462 19.3031 45.4009 14.1726V14.0339C47.3421 13.8953 49.2834 14.0339 50.9473 14.7272C51.7793 15.0046 52.4726 15.4205 52.8886 16.1138C53.3046 16.6685 53.4433 17.5005 53.4433 18.1938C53.5819 20.2737 52.8886 22.4923 52.8886 24.7109C52.75 28.8708 54.5526 33.0307 53.8592 37.1905C53.7206 38.0225 53.4433 38.8545 53.4433 39.6864C53.3046 40.3797 53.4433 41.0731 53.4433 41.7664C53.4433 41.905 53.4433 42.1824 53.3046 42.321C53.0273 42.737 52.4726 42.4597 52.0566 42.321C49.9767 41.3504 47.0648 41.6277 44.9849 43.153Z" fill="#C4C4BA"/>
<path d="M46.0941 29.5643C46.0941 29.4256 46.0941 29.1483 46.0941 29.0096C47.0647 29.703 48.174 30.1189 49.5606 30.3963C50.8086 30.6736 52.1952 30.8123 53.5818 30.9509C53.9978 33.0309 54.2751 35.1108 53.8592 37.1907C53.7205 38.0227 53.4432 38.8547 53.4432 39.6866C53.3045 40.3799 53.4432 41.0733 53.4432 41.7666C53.4432 41.9052 53.4432 42.1826 53.3045 42.3212C53.0272 42.7372 52.4725 42.4599 52.0565 42.3212C49.838 41.3506 47.0647 41.6279 44.8461 43.0145V43.1532C44.1528 41.0733 44.2915 38.716 44.7075 36.3587C45.2621 34.1402 45.8168 31.9216 46.0941 29.5643Z" fill="#A3A393"/>
<path d="M21.2737 42.8758C22.383 40.7959 22.5216 38.4386 22.5216 36.22C22.5216 34.0014 22.1056 31.6442 22.383 29.4256C22.6603 24.2951 25.2949 19.3032 25.5722 14.0341V13.8954C23.6309 13.6181 21.6897 13.8954 19.887 14.4501C19.0551 14.7274 18.2231 15.1434 17.6684 15.698C17.1138 16.2527 16.9751 17.0847 16.6978 17.778C16.2818 19.8579 16.5591 22.0765 16.2818 24.2951C15.7272 28.455 13.2312 32.4762 13.2312 36.636C13.2312 37.468 13.3699 38.3 13.2312 39.132C13.2312 39.8253 13.0926 40.5186 12.9539 41.2119C12.9539 41.3505 12.8153 41.6279 12.9539 41.7665C13.0926 42.1825 13.7859 42.0438 14.2019 41.7665C16.5591 41.0732 19.3324 41.3505 21.2737 42.8758Z" fill="#8B8B77"/>
<path d="M16.4204 22.215C17.2523 23.1857 17.9456 24.2949 18.639 25.1269C19.7483 26.7909 20.8575 28.5935 22.2442 30.2574C22.2442 32.1987 22.3828 34.14 22.5215 36.0813C22.5215 38.2999 22.3828 40.6571 21.2735 42.737V42.5984C19.3323 41.2118 16.559 40.9344 14.2017 41.7664C13.7858 41.9051 13.2311 42.0437 12.9538 41.7664C12.8151 41.6277 12.9538 41.3504 12.9538 41.2118C13.0925 40.5184 13.2311 39.8251 13.2311 39.1318C13.2311 38.2998 13.2311 37.4679 13.2311 36.6359C13.2311 32.476 15.727 28.4548 16.2817 24.295C16.4203 23.6016 16.4204 22.9083 16.4204 22.215Z" fill="#74745C"/>
<path d="M25.7109 14.5889C25.7109 14.4502 25.7109 14.3115 25.8495 14.1729C25.9882 13.8956 26.2655 13.7569 26.5428 13.7569C28.3454 13.2022 30.2867 12.9249 32.228 12.7863C36.3878 12.3703 40.6864 12.0929 44.2916 13.8956C44.4303 14.0342 44.7076 14.0342 44.8463 14.3115C44.9849 14.4502 44.9849 14.5889 44.9849 14.8662C45.2622 17.5008 45.5396 19.9967 45.6782 22.6313C45.6782 22.9086 45.6782 23.4632 45.2622 23.4632C45.1236 23.4632 44.9849 23.4633 44.8463 23.3246C42.073 21.522 38.6064 20.69 35.1399 20.4127C34.1693 20.274 33.1986 20.274 32.228 20.4127C31.396 20.5513 30.564 20.8287 29.7321 21.106C28.7614 21.522 27.7908 21.7993 26.9588 22.3539C26.1269 22.7699 25.1562 23.1859 24.1856 23.3246C24.0469 20.9673 25.5722 18.7487 25.7109 16.3915C25.7109 15.6982 25.7109 15.1435 25.7109 14.5889Z" fill="#B3B3A6"/>
<path d="M36.3877 17.3619C39.161 18.0552 41.7956 18.7485 44.5688 19.3031C44.8461 19.3031 44.9848 19.3031 45.2621 19.3031C45.4008 20.4124 45.4008 21.3831 45.5394 22.4924C45.5394 22.7697 45.5394 23.3244 45.1234 23.3244C44.9848 23.3244 44.8461 23.3244 44.7075 23.1857C42.3502 21.6604 39.4383 20.8284 36.5264 20.4124C36.5264 19.3031 36.5264 18.3325 36.3877 17.3619Z" fill="#8B8B77"/>
<path d="M25.5722 17.2234C27.5134 16.6688 29.4547 16.2528 31.5346 16.3914C31.812 17.6394 31.9506 19.3033 31.9506 20.274C31.1186 20.4126 30.4253 20.69 29.5934 20.9673C28.6227 21.3833 27.6521 21.6606 26.8201 22.2152C25.9881 22.6312 25.0175 23.0472 24.0469 23.1859C24.0469 21.2446 25.1562 19.3033 25.5722 17.2234Z" fill="#8B8B77"/>
<path d="M46.5101 13.2023C46.0941 13.6183 45.4008 13.757 44.8461 13.6183C44.2915 13.4797 43.8755 13.2023 43.3209 12.925C39.993 11.2611 35.8331 11.6771 31.9505 12.2317C29.8706 12.509 27.9293 12.6477 25.8494 13.2023C25.7107 12.3704 26.4041 11.5384 27.236 10.9837C28.068 10.5677 28.9 10.4291 29.8706 10.2904C35.4171 9.59711 41.1022 9.73577 45.8168 11.9544C46.2328 12.093 46.7874 12.509 46.5101 13.0637C46.6487 13.0637 46.6487 13.2023 46.5101 13.2023Z" fill="#B3B3A6"/>
<path d="M43.3208 12.0926C43.5982 11.8153 43.7368 11.5379 44.0142 11.1219C44.7075 11.3993 45.2621 11.5379 45.9554 11.9539C46.3714 12.0926 46.9261 12.5086 46.6487 13.0632C46.6487 13.2019 46.5101 13.2019 46.5101 13.2019C46.0941 13.6179 45.4008 13.7565 44.8461 13.6179C44.2915 13.4792 43.8755 13.2019 43.3208 12.9246C43.1822 12.7859 43.0435 12.7859 42.9049 12.7859C43.0435 12.5086 43.1822 12.3699 43.3208 12.0926Z" fill="#A3A393"/>
<path d="M37.0811 11.8156C36.9424 11.2609 36.8037 10.5676 36.8037 9.87427C38.4677 9.87427 40.2703 10.1516 41.7956 10.4289C41.5183 10.7063 41.2409 11.1222 41.1023 11.3996C40.9636 11.5382 40.825 11.8155 40.6863 11.9542C39.577 11.8155 38.329 11.8156 37.0811 11.8156Z" fill="#A3A393"/>
<path d="M31.6732 12.2315C31.5345 11.5382 31.5345 10.8449 31.5345 10.1516C32.5052 10.0129 33.6145 10.0129 34.5851 9.87427C34.5851 10.5676 34.7238 11.2609 34.8624 11.9542C34.0305 12.0929 33.1985 12.0929 32.2278 12.2315C31.9505 12.2315 31.8119 12.2315 31.6732 12.2315Z" fill="#8B8B77"/>
<path d="M27.3748 10.9834C27.9294 10.7061 28.4841 10.5674 29.0387 10.4288C29.0387 11.1221 29.1774 11.8154 29.1774 12.5087C28.0681 12.6474 26.9588 12.9247 25.9881 13.202C25.9881 12.37 26.6814 11.5381 27.3748 10.9834Z" fill="#8B8B77"/>
<path d="M35.0011 3.91183C33.6144 3.91183 32.5052 3.07985 31.1185 4.05048C30.0092 4.88246 28.8999 4.74379 27.652 5.02111C26.404 5.29844 26.1267 6.26908 25.0174 6.82373C22.9374 7.93303 23.9081 7.79437 24.0468 9.31965C24.1854 10.5676 24.0468 10.8449 24.7401 11.8156C25.2947 12.5089 25.572 12.3702 25.8494 11.6769C26.1267 10.9836 26.9587 10.429 27.652 10.1516C30.4252 9.04234 34.0304 9.04233 36.9423 9.04233C39.9929 9.18099 42.9048 9.73565 45.5394 10.8449C46.6487 11.3996 46.51 12.9249 47.758 12.2316C49.1446 11.3996 48.8673 9.87429 47.758 9.18098C46.6487 8.34901 47.2034 7.51703 46.7874 6.40774C46.0941 5.02111 44.1528 5.43711 42.9048 4.88246C41.5182 4.18915 40.9635 3.91183 39.2996 3.91183C38.1903 4.05049 36.665 3.91183 35.0011 3.91183Z" fill="#B3B3A6"/>
<path d="M46.9261 9.73532C47.0648 9.31933 47.2034 8.76468 47.4808 8.34869C47.6194 8.76468 47.7581 9.04201 48.1741 9.458C49.2834 10.1513 49.5607 11.6766 48.1741 12.5086C47.7581 12.6472 47.4808 12.7859 47.2034 12.5086C46.7874 11.9539 46.0941 11.2606 45.5395 10.9833C45.5395 10.29 46.7874 10.4286 46.9261 9.73532Z" fill="#8F8F7C"/>
<path d="M42.6275 8.07145C42.3502 8.6261 42.3502 9.3194 42.3502 9.87404C41.6569 9.73538 39.7156 9.3194 39.0223 9.3194C39.4383 7.51679 40.9636 5.99151 41.1023 4.1889C41.7956 4.32757 42.4889 4.60488 43.3208 5.02086C43.5982 5.15953 43.7368 5.15954 44.0142 5.29821C43.5982 6.26884 43.0435 7.10082 42.6275 8.07145Z" fill="#8F8F7C"/>
<path d="M33.8919 3.63434C34.3078 3.773 34.7238 3.77301 35.1398 3.77301C35.5558 3.77301 36.1105 3.77301 36.5264 3.77301C36.3878 5.57562 37.4971 7.37822 37.0811 9.18083C36.3878 9.18083 34.3079 9.18083 33.6145 9.18083C33.3372 7.51688 33.4759 5.57561 33.8919 3.63434Z" fill="#8B8B77"/>
<path d="M25.2947 6.82353C26.404 6.26888 26.5427 5.29824 27.9293 5.02091C28.3453 4.88225 28.7613 4.88226 29.1772 4.88226C29.0386 6.54621 30.7025 7.93282 30.8412 9.59677C30.4252 9.73543 28.3453 10.1514 28.0679 10.2901C27.3746 10.5674 26.5427 11.1221 26.2653 11.8154C25.988 12.5087 25.7107 12.6473 25.156 11.954C24.3241 10.8447 24.4627 10.5674 24.4627 9.45812C24.1854 7.79418 23.0761 7.93282 25.2947 6.82353Z" fill="#8B8B77"/>
<path d="M35.6943 32.0604C35.833 32.0604 35.9716 32.0604 36.1103 32.0604C36.8036 31.783 39.1609 31.5057 41.3795 32.199C42.6274 32.615 39.8542 28.7325 36.1103 30.3964C34.8623 30.9511 35.001 32.0604 35.6943 32.0604Z" fill="#8A8A75"/>
<path d="M32.0892 32.0601C31.9505 32.0601 31.8118 32.0601 31.6732 32.0601C30.9799 31.7828 28.6226 31.5054 26.2653 32.0601C24.8787 32.3374 28.3453 28.5935 31.9505 30.3961C33.1984 30.9508 32.9211 32.0601 32.0892 32.0601Z" fill="#8A8A75"/>
<path opacity="0.55" d="M38.0518 43.8465C37.7745 45.3718 37.9132 46.2038 37.9132 47.4518C37.9132 47.4518 37.7745 47.4518 37.7745 47.5904C37.3585 44.9558 38.1905 42.0439 38.7451 39.132C39.1611 36.4974 39.1611 33.7242 38.7451 31.2283C38.6065 30.2576 38.3292 29.287 38.4678 28.1777C38.6065 25.8205 39.9931 23.7405 40.1318 21.3832C40.2704 19.9966 39.8544 18.7487 39.8544 17.5007C39.8544 15.8368 40.2704 14.1728 40.6864 12.6475C40.6864 12.6475 40.6864 12.6475 40.8251 12.6475C40.8251 14.0341 40.2704 15.4208 40.2704 16.6687C40.2704 19.1647 40.5478 21.5219 39.9931 23.8792C39.7158 24.9885 39.1611 26.5138 38.8838 27.6231C38.6065 29.0097 39.2998 31.5056 39.2998 32.8922C39.2998 36.6361 39.0225 39.4093 38.0518 43.8465Z" fill="#5F5F43"/>
<path opacity="0.55" d="M32.3665 32.4763C32.3665 35.3882 31.9505 38.4388 31.1186 42.044C30.7026 43.9853 30.1479 46.6198 30.0093 48.4224C30.0093 48.4224 30.0093 48.4224 29.8706 48.4224C29.7319 47.7291 29.8706 46.8972 30.0093 46.2038C30.5639 43.1533 31.1185 39.964 31.5345 36.9135C31.8119 35.5268 31.9505 34.1402 31.9505 32.7536C31.9505 31.5056 31.8119 30.3963 31.8119 29.1484C32.0892 25.5432 34.3078 22.0766 34.3078 18.4714C34.3078 17.3621 34.0305 16.1141 34.0305 15.0048C34.0305 14.1729 34.0305 13.2022 34.1691 12.3702H34.3078C34.3078 14.4502 35.0011 16.6688 35.0011 18.7487C35.0011 21.6606 33.0598 24.2952 32.6438 27.2071C32.5052 28.5937 32.3665 29.287 32.3665 32.4763Z" fill="#5F5F43"/>
<path opacity="0.55" d="M26.8201 32.8922C27.0974 31.6442 27.2361 30.9509 27.2361 27.7617C27.2361 24.8498 27.652 21.7992 28.484 18.194C28.7613 16.6687 29.1773 14.5888 29.4547 12.9248C29.5933 12.9248 29.5933 12.9248 29.732 12.9248C29.732 13.3408 29.5933 13.6181 29.5933 13.8954C29.0387 16.946 28.6227 20.1352 28.068 23.1858C27.7907 24.5724 27.6521 25.959 27.6521 27.3457C27.6521 28.5936 27.7907 29.7029 27.7907 30.9509C27.7907 33.7241 25.4335 38.8546 25.4335 39.2706C25.2948 39.6866 25.2948 39.9639 25.2948 40.3799C25.2948 40.6572 25.1561 40.7959 25.1561 41.0732C25.0175 42.4599 25.1561 43.5692 25.4335 44.8171C25.4335 44.9558 25.4335 45.0944 25.5721 45.2331C25.4335 44.9558 25.2948 44.8171 25.1561 44.5398C25.0175 43.4305 24.8788 42.4599 24.8788 41.3506C24.3242 38.4387 26.2654 35.8041 26.8201 32.8922Z" fill="#5F5F43"/>
<path opacity="0.55" d="M30.2865 41.0734C31.2571 40.7961 32.3664 40.5188 33.3371 40.3801C35.6943 40.2415 37.9129 41.3508 40.2702 41.2121C41.1022 41.2121 41.9341 40.9348 42.7661 40.7961C42.7661 40.9348 42.6275 41.0734 42.6275 41.2121C40.9635 41.4894 39.2996 41.6281 37.6356 41.3508C36.5263 41.2121 35.001 40.7961 33.7531 40.7961C32.3664 40.6575 29.8705 41.6281 28.3452 41.7667C26.6813 42.0441 25.2947 42.1827 23.7694 42.1827C23.7694 42.0441 23.7694 42.0441 23.7694 41.9054C26.1266 41.9054 28.2066 41.6281 30.2865 41.0734Z" fill="#5F5F43"/>
<path opacity="0.55" d="M24.4627 36.2202C25.8494 36.2202 27.236 36.3588 28.7612 36.2202C30.0092 36.0815 31.1185 35.8042 32.3665 35.8042C36.1104 35.6655 39.5769 37.4681 43.1821 37.0522C43.4595 37.0522 43.8754 36.9135 44.1528 36.9135C44.1528 37.0521 44.1528 37.3295 44.1528 37.4681C43.7368 37.6068 43.4595 37.6068 43.0435 37.6068C39.9929 37.8841 37.3583 36.3588 34.4464 36.2202C33.1985 36.0815 32.5051 36.0815 29.1772 36.4975C27.236 36.7748 25.156 36.7748 23.0761 36.6362C23.0761 36.4975 23.0761 36.3588 23.0761 36.2202C23.4921 36.0815 24.0467 36.2202 24.4627 36.2202Z" fill="#5F5F43"/>
<path opacity="0.55" d="M23.0763 26.7909C25.0175 27.2069 26.9588 27.9002 28.9001 28.0388C30.148 28.1775 30.8414 28.1775 34.1693 27.7615C37.2198 27.4842 40.2704 27.4842 43.8756 27.9002C44.4303 27.9002 44.9849 28.0388 45.6782 28.0388C45.6782 28.1775 45.6782 28.1775 45.6782 28.3162C43.321 28.1775 41.1024 28.0388 38.7451 28.0388C37.3585 28.0388 35.9719 27.9002 34.4466 28.0388C33.1986 28.1775 32.0893 28.4548 30.8414 28.4548C28.2068 28.5935 25.5722 27.6229 22.9376 27.3455C23.0763 27.0682 23.0763 26.9296 23.0763 26.7909Z" fill="#5F5F43"/>
<path opacity="0.44" d="M41.5183 50.9182C42.489 45.9263 41.7957 41.3505 41.5183 36.3586C41.1023 29.0095 40.409 17.2233 48.3128 13.618C49.1448 14.1727 50.1154 14.3113 50.9474 14.866C51.086 14.866 51.086 15.0047 51.086 15.0047C51.7793 15.282 52.4727 15.698 53.0273 16.2526C53.4433 16.8073 53.582 17.6392 53.582 18.3326C53.7206 20.4125 53.0273 22.6311 53.0273 24.8497C52.8886 27.2069 53.4433 29.5642 53.8593 31.9215C53.8593 32.1988 53.9979 32.3374 53.9979 32.6148C53.9979 32.8921 54.1366 33.3081 54.1366 33.5854C54.1366 33.8627 54.1366 34.0014 54.1366 34.14C54.1366 34.4174 54.1366 34.8334 54.1366 35.1107C54.1366 35.2494 54.1366 35.5267 54.1366 35.6653C54.1366 36.22 54.1366 36.636 53.9979 37.1906C53.9979 37.1906 53.9979 37.1906 53.9979 37.3293C53.9979 37.7453 53.8593 38.1613 53.7206 38.5773C53.582 38.9932 53.5819 39.4092 53.4433 39.8252C53.4433 39.9639 53.4433 39.9639 53.4433 40.1025C53.7206 41.9051 53.7206 43.8464 53.582 45.7877C53.8593 46.481 53.8593 47.313 53.9979 48.0063C53.9979 49.2542 53.9979 50.5022 53.8593 51.8888C53.8593 52.0275 53.8593 52.3048 53.7206 52.4435C53.582 52.5821 53.3046 52.7208 53.166 52.7208C53.0273 52.7208 52.8886 52.7208 52.6113 52.7208C52.334 53.6914 52.0567 54.5234 51.6407 55.3554C51.6407 56.1873 51.502 57.0193 51.3634 57.8513C51.2247 58.5446 51.086 59.2379 50.9474 60.0699C50.9474 60.2086 50.9474 60.2086 50.9474 60.2086C50.8087 60.3472 50.67 60.3472 50.5314 60.3472C48.5901 60.2085 46.5102 60.4859 44.5689 60.2086C44.4302 60.2086 44.2916 60.2086 44.2916 60.0699C44.2916 60.0699 44.1529 59.9312 44.1529 59.7926C44.1529 59.5152 44.0143 59.0993 44.0143 58.822C43.8756 58.822 43.7369 58.822 43.5983 58.822C43.5983 59.2379 43.4596 59.6539 43.1823 59.7926C42.905 59.9312 42.6276 60.0699 42.3503 60.0699C40.9637 60.2086 39.4384 60.2086 38.0518 60.2086C39.1611 57.158 40.825 54.3847 41.5183 50.9182Z" fill="#5F5F43"/>
<path d="M96.8447 15.6983C98.37 16.6689 99.3406 18.4715 99.4793 20.2741C99.7566 22.0767 99.4793 23.8793 99.3406 25.682C99.0633 28.5939 99.202 31.6444 99.3406 34.695C99.3406 36.3589 99.4793 38.1616 99.7566 39.8255C100.311 42.3214 101.421 44.8173 102.253 47.3133C104.055 53.1371 103.778 59.3769 103.084 65.6167C102.807 68.5286 102.253 71.5792 100.034 73.3818C98.2313 74.9071 95.8741 75.1844 93.5168 75.323C80.4825 76.571 67.3096 76.155 54.414 75.8777C54.1367 75.8777 53.8594 75.8777 53.5821 75.739C53.3047 75.6003 53.1661 75.1844 53.1661 74.907C52.1954 71.9951 51.3635 69.2219 50.5315 66.31C49.9768 64.5074 49.4222 62.7048 49.4222 60.7635C49.4222 58.4062 50.3928 56.1876 50.9475 53.969C51.3635 52.0278 51.3635 49.9478 51.5021 47.8679C51.7795 39.6868 52.6114 31.7831 54.1367 24.018C54.83 20.5515 55.8006 16.9462 58.2966 14.589C59.4059 13.4797 60.7925 12.6477 61.9018 11.5384C63.0111 10.4291 63.9817 9.04248 63.9817 7.65586C71.1922 6.26923 78.4026 5.71458 85.7517 5.85324C86.7223 5.85324 87.693 5.9919 88.6636 6.40788C91.2982 7.79451 90.4662 11.9544 92.8235 13.8957C93.9328 14.7276 95.5967 14.8663 96.8447 15.6983Z" fill="#4D4B3B"/>
<path d="M61.763 32.8923C63.8429 32.4763 64.6749 29.9804 63.8429 28.3165C68.9735 25.5432 76.3226 27.4845 76.3226 27.4845C76.3226 27.4845 81.4531 26.0979 86.1676 27.2072C85.3356 29.0098 86.1676 31.6444 88.6635 31.6444C89.6341 31.6444 90.3274 31.367 90.8821 30.8124C91.1594 34.6949 91.5754 47.8678 87.1382 56.3262C85.4743 59.3768 80.6211 62.0114 76.4612 62.0114C72.024 62.0114 67.3095 59.6541 65.5069 56.3262C61.763 49.6705 61.6244 38.3002 61.763 32.8923Z" fill="#A0A090"/>
<path d="M76.1839 52.721C81.5918 51.889 82.8397 53.4143 82.8397 53.4143C82.8397 56.1875 76.1839 56.1875 76.1839 56.1875C76.1839 56.1875 69.5281 56.1875 69.5281 53.4143C69.5281 53.4143 70.9148 51.889 76.1839 52.721Z" fill="#B3B3A6"/>
<path d="M76.1839 52.721C81.5918 51.889 82.8397 53.4143 82.8397 53.4143C82.8397 57.2968 77.7092 57.0195 76.4613 56.8808C76.3226 56.8808 76.0453 56.8808 75.9066 56.8808C74.6586 57.0195 69.5281 57.4355 69.5281 53.4143C69.5281 53.4143 70.9148 51.889 76.1839 52.721Z" fill="#B3B3A6"/>
<path d="M76.1839 52.721C81.5918 51.889 82.8397 53.4143 82.8397 53.4143V53.5529C80.3438 54.5236 76.1839 54.5236 76.1839 54.5236C76.1839 54.5236 72.0241 54.5236 69.5281 53.5529V53.4143C69.5281 53.4143 70.9148 51.889 76.1839 52.721Z" fill="#C0C0B5"/>
<path d="M73.5494 46.62C74.1041 46.0653 74.6587 43.0148 74.936 41.4895C75.0747 40.9348 75.4907 40.5189 76.0453 40.5189C76.6 40.5189 77.1546 40.9348 77.1546 41.4895C77.432 43.1534 77.9866 46.204 78.5413 46.62C79.2346 47.1746 80.3439 48.0066 79.6506 49.3932C79.5119 49.6706 79.2346 49.8092 79.0959 49.6706C78.5413 49.5319 77.5706 49.5319 77.016 50.2252C76.6 50.6412 76.0453 50.6412 76.0453 50.6412C76.0453 50.6412 75.352 50.6412 75.0747 50.2252C74.3814 49.5319 73.4108 49.6706 72.9948 49.6706C72.7174 49.6706 72.4401 49.5319 72.4401 49.3932C71.7468 47.868 72.8561 47.1746 73.5494 46.62Z" fill="#B3B3A6"/>
<path d="M86.1677 41.9053C86.1677 41.9053 84.2264 46.0652 79.5119 43.5693C79.5119 43.5693 82.1465 36.6362 86.1677 41.9053Z" fill="#BBBBB0"/>
<path d="M66.4776 41.9053C66.4776 41.9053 68.1416 46.0652 72.9948 43.5693C72.9948 43.5693 70.7761 36.6362 66.4776 41.9053Z" fill="#BBBBB0"/>
<path d="M86.029 42.46C86.029 42.46 84.2264 45.6493 79.3732 43.708C79.5119 43.708 81.8691 38.5775 86.029 42.46Z" fill="#777760"/>
<path d="M66.339 42.46C66.339 42.46 68.1416 45.6493 72.9948 43.708C72.9948 43.708 70.6375 38.5775 66.339 42.46Z" fill="#777760"/>
<path d="M71.6081 68.39C71.8854 68.1126 72.4401 68.1126 72.856 68.1126C75.352 67.9739 77.7092 67.8353 80.2052 67.9739C80.4825 67.9739 80.8985 67.974 81.1758 68.2513C81.5918 68.5286 81.8691 69.0833 81.8691 69.6379C82.1464 71.0245 82.0078 72.5498 81.7304 74.0751C81.5918 75.0457 81.5918 76.0163 81.4531 76.987C81.4531 77.1256 81.4531 77.1257 81.4531 77.2643C81.3145 77.403 81.0371 77.5417 80.7598 77.403C77.8479 77.2643 74.7973 77.6803 72.0241 77.2643C71.8854 77.2643 71.7468 77.2643 71.6081 77.1257C71.4694 76.987 71.4694 76.987 71.4694 76.8484C71.1921 75.7391 71.1921 74.6297 71.1921 73.5204C71.1921 72.4111 71.1921 71.3018 71.3308 70.1925C71.1921 69.3606 71.1921 68.6673 71.6081 68.39Z" fill="#9C9C8B"/>
<path d="M70.3601 76.8482C70.0828 77.1255 69.6668 77.1255 69.2508 77.1255C67.0322 77.2642 64.9523 77.4028 62.7337 77.2642C62.4564 77.2642 62.1791 77.2642 61.9017 76.9868C61.4858 76.7095 61.3471 76.1549 61.2084 75.6002C61.0698 74.2136 61.2084 72.6883 61.2084 71.163C61.3471 70.1924 61.3471 69.2218 61.4858 68.2511C61.4858 68.1125 61.4858 68.1124 61.4858 67.9738C61.6244 67.8351 61.9017 67.6965 62.0404 67.8352C64.675 67.9738 67.3096 67.5578 69.9442 67.9738C70.0828 67.9738 70.2215 67.9738 70.3601 68.1125C70.4988 68.2511 70.4988 68.2511 70.4988 68.3898C70.7761 69.4991 70.7761 70.6084 70.7761 71.7177C70.7761 72.827 70.7761 73.9363 70.7761 75.0456C70.7761 75.7389 70.7761 76.4322 70.3601 76.8482Z" fill="#8B8B77"/>
<path d="M51.3634 68.3898C51.6407 68.1125 52.0567 68.1125 52.4727 68.1125C54.6913 67.9738 56.7713 67.8352 58.9899 67.8352C59.2672 67.8352 59.5445 67.8352 59.8218 68.1125C60.2378 68.3898 60.3765 68.9445 60.5151 69.4991C60.6538 70.8857 60.6538 72.4111 60.5151 73.9363C60.3765 74.907 60.3765 75.8776 60.2378 76.8483C60.2378 76.9869 60.2378 76.9869 60.2378 77.1256C60.0992 77.2642 59.8218 77.4029 59.6832 77.4029C57.0486 77.2642 54.414 77.6802 51.7794 77.2642C51.6408 77.2642 51.5021 77.2642 51.3634 77.1256C51.2248 76.9869 51.2248 76.9869 51.2248 76.8483C50.9474 75.739 50.9474 74.6296 50.9474 73.5203C50.9474 72.411 50.9474 71.3017 50.9474 70.1924C50.9474 69.3605 50.9474 68.8058 51.3634 68.3898Z" fill="#74745C"/>
<path d="M92.8234 68.3898C93.1007 68.1125 93.5167 68.1125 93.9327 68.1125C96.1513 67.9738 98.2312 67.8352 100.45 67.8352C100.727 67.8352 101.004 67.8352 101.282 68.1125C101.698 68.3898 101.836 68.9445 101.975 69.4991C102.114 70.8857 102.114 72.4111 101.975 73.9363C101.836 74.907 101.836 75.8776 101.698 76.8483C101.698 76.9869 101.698 76.9869 101.698 77.1256C101.559 77.2642 101.282 77.4029 101.143 77.4029C98.5086 77.2642 95.874 77.6802 93.2394 77.2642C93.1007 77.2642 92.9621 77.2642 92.8234 77.1256C92.6847 76.9869 92.6847 76.9869 92.6847 76.8483C92.4074 75.739 92.4074 74.6296 92.4074 73.5203C92.4074 72.411 92.4074 71.3017 92.4074 70.1924C92.4074 69.3605 92.4074 68.8058 92.8234 68.3898Z" fill="#9C9C8B"/>
<path d="M91.4368 76.8482C91.1595 77.1255 90.7435 77.1255 90.3275 77.1255C88.1089 77.2642 86.029 77.4028 83.8104 77.2642C83.533 77.2642 83.2557 77.2642 82.9784 76.9868C82.5624 76.7095 82.4237 76.1549 82.2851 75.6002C82.1464 74.2136 82.2851 72.6883 82.2851 71.163C82.4237 70.1924 82.4237 69.2218 82.5624 68.2511C82.5624 68.1125 82.5624 68.1124 82.5624 67.9738C82.7011 67.8351 82.9784 67.6965 83.1171 67.8352C85.7516 67.9738 88.3862 67.5578 91.0208 67.9738C91.1595 67.9738 91.2981 67.9738 91.4368 68.1125C91.5755 68.2511 91.5755 68.2511 91.5755 68.3898C91.8528 69.4991 91.8528 70.6084 91.8528 71.7177C91.8528 72.827 91.8528 73.9363 91.8528 75.0456C91.8528 75.7389 91.8528 76.4322 91.4368 76.8482Z" fill="#8B8B77"/>
<path d="M71.3307 62.1498C73.5493 62.5658 75.6293 62.5657 77.8479 62.5657C79.2345 62.5657 80.4825 62.2884 81.5918 61.7338C81.8691 62.4271 81.8691 63.2591 81.8691 63.9524C81.8691 64.7843 81.8691 65.4777 81.7304 66.3096C81.7304 66.7256 81.7304 67.1416 81.1758 67.4189C80.8984 67.5576 80.3438 67.6963 79.9278 67.6963C77.4319 67.8349 75.0746 67.9736 72.5787 67.8349C72.3014 67.8349 71.8854 67.8349 71.6081 67.6963C71.1921 67.5576 70.9148 67.0029 70.9148 66.7256C70.6374 65.755 70.7761 64.6457 71.0534 63.6751C71.3308 62.9818 71.3307 62.5658 71.3307 62.1498Z" fill="#9C9C8B"/>
<path d="M70.3601 67.5578C70.0828 67.6964 69.6668 67.6964 69.2508 67.6964C67.0322 67.8351 64.9523 67.8351 62.7337 67.8351C62.4564 67.8351 62.1791 67.8351 61.9017 67.6964C61.4858 67.5578 61.3471 67.1418 61.2084 66.8645C61.0698 66.0325 61.2084 65.2005 61.2084 64.5072C61.3471 63.9525 61.3471 63.3979 61.4858 62.8433V62.7046C61.6244 62.5659 61.9017 62.5659 62.0404 62.5659C64.675 62.7046 67.3096 62.4273 69.9442 62.7046C70.0828 62.7046 70.2215 62.7046 70.3601 62.8433C70.4988 62.8433 70.4988 62.9819 70.4988 62.9819C70.7761 63.5366 70.7761 64.2299 70.7761 64.7845C70.7761 65.3392 70.7761 66.0325 70.7761 66.5871C70.7761 67.0031 70.7761 67.2804 70.3601 67.5578Z" fill="#9C9C8B"/>
<path d="M91.4368 67.5578C91.1595 67.6964 90.7435 67.6964 90.3275 67.6964C88.1089 67.8351 86.029 67.8351 83.8104 67.8351C83.533 67.8351 83.2557 67.8351 82.9784 67.6964C82.5624 67.5578 82.4237 67.1418 82.2851 66.8645C82.1464 66.0325 82.2851 65.2005 82.2851 64.5072C82.4237 63.9525 82.4237 63.3979 82.5624 62.8433V62.7046C82.7011 62.5659 82.9784 62.5659 83.1171 62.5659C85.7516 62.7046 88.3862 62.4273 91.0208 62.7046C91.1595 62.7046 91.2981 62.7046 91.4368 62.8433C91.5755 62.8433 91.5755 62.9819 91.5755 62.9819C91.8528 63.5366 91.8528 64.2299 91.8528 64.7845C91.8528 65.3392 91.8528 66.0325 91.8528 66.5871C91.8528 67.0031 91.8528 67.2804 91.4368 67.5578Z" fill="#B3B3A6"/>
<path d="M61.2084 32.199C61.3471 30.9511 61.9017 29.5644 62.7337 28.5938C63.2883 28.0391 63.9816 27.4845 64.8136 27.0685H64.9523C72.024 23.0473 80.6211 23.0473 87.6929 27.0685H87.8315C88.5249 27.4845 89.2182 27.9005 89.9115 28.5938C90.7434 29.5644 91.2981 30.8124 91.4368 32.199C91.7141 33.7243 91.4368 35.3882 91.2981 37.0522C91.1594 38.7161 90.8821 40.3801 90.4661 42.044C90.3275 42.46 90.1888 43.0147 89.9115 43.4307C89.6342 43.8467 89.0795 44.124 88.6635 43.8466C87.9702 42.876 87.9702 41.6281 87.8315 40.5188C87.6929 39.4095 87.5542 38.4388 87.2769 37.4682C86.9996 36.2202 86.7222 34.8336 86.0289 33.7243C85.0583 32.199 83.2557 31.3671 81.4531 30.9511C79.7891 30.6737 72.856 30.6737 71.1921 30.9511C69.3895 31.2284 67.7255 32.199 66.6162 33.7243C65.9229 34.8336 65.6456 36.2202 65.3683 37.4682C65.0909 38.4388 64.9523 39.5481 64.8136 40.5188C64.6749 41.6281 64.6749 42.876 63.9816 43.8466C63.5656 43.9853 63.011 43.708 62.7337 43.4307C62.4563 43.0147 62.3177 42.5987 62.179 42.044C61.763 40.3801 61.6244 38.7161 61.347 37.0522C61.2084 35.3882 61.0697 33.863 61.2084 32.199Z" fill="#84846F"/>
<path d="M51.7794 54.5235C52.4727 54.1075 53.166 53.9688 53.8593 53.8301C55.8006 53.5528 57.7418 53.8301 59.4058 54.5235C59.8218 54.6621 60.2378 54.9394 60.5151 55.3554C60.6537 55.6327 60.7924 56.0487 60.7924 56.4647C61.2084 59.3766 61.2084 62.4272 60.5151 65.3391C60.3764 65.7551 60.2378 66.3097 59.9604 66.5871C59.6831 66.8644 59.2671 66.8644 58.8511 66.8644C55.6619 67.1417 52.4727 67.419 49.4221 66.8644C49.1448 66.8644 48.8674 66.7257 48.5901 66.4484C48.4515 66.1711 48.4515 65.8938 48.4515 65.6164C48.4515 63.9525 48.4515 62.1499 48.7288 60.4859C49.0061 58.2673 49.6994 55.6328 51.7794 54.5235Z" fill="#9C9C8B"/>
<path d="M101.282 54.5235C100.589 54.1075 99.8952 53.9688 99.2019 53.8301C97.2606 53.5528 95.3194 53.8301 93.6554 54.5235C93.2394 54.6621 92.8235 54.9394 92.5461 55.3554C92.4075 55.6327 92.2688 56.0487 92.2688 56.4647C91.8528 59.3766 91.8528 62.4272 92.5461 65.3391C92.6848 65.7551 92.8235 66.3097 93.1008 66.5871C93.3781 66.8644 93.7941 66.8644 94.2101 66.8644C97.3993 67.1417 100.589 67.419 103.639 66.8644C103.916 66.8644 104.194 66.7257 104.471 66.4484C104.61 66.1711 104.61 65.8938 104.61 65.6164C104.61 63.9525 104.61 62.1499 104.332 60.4859C104.055 58.2673 103.362 55.6328 101.282 54.5235Z" fill="#B3B3A6"/>
<path d="M91.9914 54.2462C90.7435 51.473 90.7435 48.1451 91.0208 45.0945C91.2981 42.044 91.9914 38.9934 91.9914 35.9428C92.1301 28.871 89.2182 22.0766 89.3568 15.1435L89.2182 15.0048C91.7141 14.7275 94.3487 15.0048 96.7059 15.8368C97.8152 16.2528 98.7859 16.8074 99.4792 17.6394C100.034 18.4714 100.311 19.442 100.45 20.5513C100.727 23.4632 100.172 26.3751 100.311 29.287C100.588 34.9722 103.5 40.38 102.946 46.0652C102.807 47.1745 102.668 48.2838 102.53 49.5317C102.53 50.5023 102.668 51.3343 102.668 52.305C102.668 52.5823 102.668 52.8596 102.53 53.1369C102.252 53.6916 101.42 53.4143 100.866 53.1369C97.8152 51.889 94.0714 52.305 91.4368 54.1076L91.9914 54.2462Z" fill="#C4C4BA"/>
<path d="M91.9915 35.9429C91.9915 35.6656 91.9915 35.3882 91.9915 35.2496C93.3781 36.0815 94.9034 36.7749 96.706 37.0522C98.5086 37.3295 100.311 37.6068 102.114 37.6068C102.807 40.3801 103.5 43.292 103.223 46.0652C103.084 47.1745 102.946 48.2838 102.807 49.5318C102.807 50.5024 102.946 51.3344 102.946 52.305C102.946 52.5824 102.946 52.8597 102.807 53.137C102.53 53.6917 101.698 53.4143 101.143 53.137C98.0926 51.8891 94.3487 52.305 91.7141 54.1076V54.2463C90.4662 51.4731 90.4662 48.1452 90.7435 45.0946C91.2981 42.044 91.9915 38.9935 91.9915 35.9429Z" fill="#A3A393"/>
<path d="M60.6538 54.2462C61.9018 51.473 61.9018 48.1451 61.6244 45.0945C61.3471 42.044 60.6538 38.9934 60.6538 35.9428C60.5152 28.871 63.4271 22.0766 63.2884 15.1435L63.4271 15.0048C60.9311 14.7275 58.2966 15.0048 55.9393 15.8368C54.83 16.2528 53.8594 16.8074 53.1661 17.6394C52.6114 18.4714 52.3341 19.442 52.1954 20.5513C51.9181 23.4632 52.4727 26.3751 52.3341 29.287C52.0568 34.9722 49.1448 40.38 49.6995 46.0652C49.8382 47.1745 49.9768 48.2838 50.1155 49.5317C50.1155 50.5023 49.9768 51.3343 49.9768 52.305C49.9768 52.5823 49.9768 52.8596 50.1155 53.1369C50.3928 53.6916 51.2248 53.4143 51.7794 53.1369C54.83 51.889 58.5739 52.305 61.2085 54.1076L60.6538 54.2462Z" fill="#8B8B77"/>
<path d="M52.0567 26.5137C53.3046 27.7617 54.414 29.287 55.2459 30.535C57.0485 32.8922 58.5738 35.2495 60.6538 37.3294C60.7924 39.964 61.3471 42.5986 61.6244 45.2331C61.9017 48.2837 61.9017 51.473 60.6538 54.3849V54.2462C57.8805 52.4436 54.2753 52.0276 51.2247 53.2756C50.6701 53.5529 49.9768 53.6915 49.5608 53.2756C49.4221 52.9982 49.4221 52.7209 49.4221 52.4436C49.5608 51.473 49.6994 50.641 49.5608 49.6704C49.5608 48.5611 49.2834 47.4518 49.1448 46.2038C48.7288 40.5186 51.6407 35.1108 51.7794 29.4256C52.0567 28.3164 52.0567 27.3457 52.0567 26.5137Z" fill="#74745C"/>
<path d="M63.5657 15.8369C63.5657 15.6982 63.5657 15.4209 63.7043 15.2822C63.843 15.0049 64.259 14.8662 64.5363 14.7276C66.8936 13.8956 69.3895 13.6183 71.8854 13.3409C77.2932 12.7863 82.9784 12.3703 87.9702 14.7276C88.2476 14.8662 88.5249 15.0049 88.6635 15.2822C88.8022 15.4209 88.8022 15.6982 88.9409 15.9755C89.4955 19.4421 90.1888 22.9086 90.7435 26.3752C90.8821 26.7912 90.7435 27.4845 90.3275 27.4845C90.1888 27.4845 90.0502 27.3458 89.9115 27.3458C86.029 24.9886 81.4531 23.8793 76.8772 23.602C75.6293 23.4633 74.2427 23.4633 72.9947 23.7406C71.8854 23.8793 70.7761 24.2953 69.8055 24.7113C68.5575 25.2659 67.4482 25.8206 66.2003 26.3752C65.091 26.9298 63.9817 27.6232 62.7337 27.7618C62.3177 24.5726 64.1203 21.522 64.1203 18.3328C63.7043 17.3621 63.5657 16.6688 63.5657 15.8369Z" fill="#B3B3A6"/>
<path d="M77.8479 19.4422C81.5918 20.2742 85.197 21.3835 88.9409 21.9381C89.2182 21.9381 89.6342 21.9381 89.9115 21.9381C90.1888 23.3247 90.4661 24.7114 90.6048 26.2366C90.7435 26.6526 90.6048 27.3459 90.1888 27.3459C90.0501 27.3459 89.9115 27.2073 89.7728 27.2073C86.4449 25.1273 82.5624 24.1567 78.6798 23.6021C78.4025 22.2154 78.1252 20.8288 77.8479 19.4422Z" fill="#8B8B77"/>
<path d="M63.7043 19.5807C66.3389 18.7487 68.8348 18.3327 71.4694 18.3327C72.024 20.1353 72.3013 22.3539 72.44 23.6019C71.4694 23.8792 70.4987 24.1565 69.5281 24.5725C68.2801 25.1272 67.1708 25.6818 65.9229 26.2364C64.8136 26.7911 63.7043 27.4844 62.4563 27.6231C62.0403 24.8498 63.2883 22.2152 63.7043 19.5807Z" fill="#8B8B77"/>
<path d="M91.0208 13.757C90.4661 14.3116 89.6342 14.4503 88.9409 14.3116C88.2476 14.173 87.5542 13.757 86.8609 13.4796C82.2851 11.3997 76.8772 11.9543 71.8854 12.6477C69.2508 13.0636 66.6162 13.341 63.9817 14.0343C63.843 12.925 64.5363 11.677 65.5069 11.1224C66.4776 10.4291 67.7255 10.2904 68.8348 10.1518C76.0453 9.04246 83.533 9.18111 90.1888 12.093C90.7435 12.3703 91.4368 12.925 91.1595 13.4796C91.1595 13.6183 91.0208 13.6183 91.0208 13.757Z" fill="#B3B3A6"/>
<path d="M86.5836 12.3703C86.861 11.9543 87.1383 11.5384 87.4156 11.1224C88.2476 11.3997 89.2182 11.8157 90.0502 12.093C90.6049 12.3703 91.2982 12.925 91.0208 13.4796C91.0208 13.6183 90.8822 13.6183 90.8822 13.757C90.3275 14.3116 89.4956 14.4503 88.8022 14.3116C88.1089 14.1729 87.4156 13.757 86.7223 13.4796C86.445 13.341 86.3063 13.341 86.029 13.2023C86.3063 12.925 86.445 12.6477 86.5836 12.3703Z" fill="#A3A393"/>
<path d="M78.2639 11.9541C77.9866 11.1221 77.8479 10.2902 77.7093 9.45819C79.9279 9.45819 82.2851 9.73552 84.5037 10.1515C84.2264 10.5675 83.9491 10.9835 83.6718 11.3995C83.5331 11.6768 83.3944 11.9541 83.2558 12.2314C81.4532 11.9541 79.7892 11.9541 78.2639 11.9541Z" fill="#A3A393"/>
<path d="M71.0534 12.6474C70.7761 11.6768 70.6374 10.7061 70.4988 9.73551C71.8854 9.59685 73.1334 9.45819 74.52 9.45819C74.6587 10.4288 74.7973 11.2608 75.0746 12.2314C73.9653 12.3701 72.856 12.5087 71.7467 12.6474C71.4694 12.6474 71.3308 12.6474 71.0534 12.6474Z" fill="#8B8B77"/>
<path d="M65.3683 11.1224C66.0616 10.7064 66.7549 10.4291 67.5869 10.2904C67.7256 11.261 67.8642 12.2317 68.1415 13.2023C66.7549 13.4796 65.3683 13.757 63.843 14.0343C63.5657 12.925 64.3977 11.677 65.3683 11.1224Z" fill="#8B8B77"/>
<path d="M74.7973 1.27721C72.9947 1.27721 71.3307 0.167906 69.8055 1.55453C68.4188 2.80249 67.0322 2.52517 65.3683 2.94115C63.7043 3.35714 63.427 4.74377 62.179 5.43708C59.4058 6.96236 60.7924 6.68504 61.2084 8.90363C61.4857 10.5676 61.347 10.9836 62.4563 12.3702C63.2883 13.3408 63.5656 13.0635 63.843 12.2315C64.259 11.2609 65.0909 10.5676 66.0616 10.1516C69.6668 8.62632 74.52 8.48765 78.2638 8.62631C82.2851 8.76498 86.1676 9.45828 89.9115 10.9836C91.4368 11.6769 91.4368 13.7568 93.1007 12.7862C94.9033 11.6769 94.3487 9.59695 92.8234 8.62631C91.2981 7.65568 91.9914 6.40772 91.1594 4.88244C90.1888 3.07983 87.5542 3.63448 85.8903 2.8025C84.0877 1.83187 83.117 1.55454 81.0371 1.41588C78.8185 1.55454 76.8772 1.27721 74.7973 1.27721Z" fill="#B3B3A6"/>
<path d="M91.0208 9.04248C91.0208 8.34917 91.2982 7.79452 91.5755 7.23987C91.7141 7.79452 91.9915 8.2105 92.6848 8.62649C94.2101 9.59713 94.7647 11.6771 92.9621 12.7864C92.5461 13.0637 92.1301 13.2023 91.7142 12.7864C91.0208 12.093 90.0502 11.1224 89.3569 10.7064C89.3569 9.87445 91.0208 10.0131 91.0208 9.04248Z" fill="#8F8F7C"/>
<path d="M85.197 6.82368C84.9197 7.51699 85.0583 8.48763 85.0583 9.3196C84.0877 9.04228 81.4531 8.62628 80.6212 8.48762C81.0371 6.13036 82.7011 4.05043 82.8398 1.5545C83.8104 1.69317 84.6424 2.10917 85.8903 2.80248C86.1676 2.94114 86.5836 3.0798 86.861 3.0798C86.3063 4.46642 85.613 5.57571 85.197 6.82368Z" fill="#8F8F7C"/>
<path d="M73.1334 0.999939C73.688 1.1386 74.2427 1.27726 74.7973 1.27726C75.352 1.27726 76.0453 1.27726 76.5999 1.27726C76.5999 3.77318 78.4026 6.13043 77.9866 8.48769C77.1546 8.48769 74.3813 8.4877 73.4107 8.62636C72.8561 6.13044 72.8561 3.63452 73.1334 0.999939Z" fill="#8B8B77"/>
<path d="M62.0404 5.57586C63.4271 4.88255 63.5657 3.49592 65.2297 3.07993C65.7843 2.94127 66.339 2.80261 66.8936 2.80261C66.755 5.15987 69.2509 6.96247 69.5282 9.18107C69.1122 9.31973 66.339 10.013 65.923 10.2904C64.9523 10.7064 64.1204 11.3997 63.7044 12.3703C63.4271 13.3409 63.0111 13.4796 62.3178 12.509C61.0698 11.1223 61.3471 10.7064 61.0698 9.04242C60.6538 6.82382 59.2672 7.10114 62.0404 5.57586Z" fill="#8B8B77"/>
<path d="M78.6799 39.4094C78.8185 39.4094 79.0959 39.4094 79.2345 39.2708C80.2052 38.8548 83.1171 38.5774 86.1676 39.4094C87.8316 39.8254 83.8104 34.6949 78.9572 37.0522C77.4319 38.0228 77.5706 39.4094 78.6799 39.4094Z" fill="#8A8A75"/>
<path d="M73.8267 39.4094C73.688 39.4094 73.4107 39.4094 73.272 39.2708C72.3014 38.8548 69.2508 38.5774 66.0616 39.4094C64.259 39.8254 68.4188 34.6949 73.4107 37.0522C75.0746 38.0228 74.936 39.4094 73.8267 39.4094Z" fill="#8A8A75"/>
<path opacity="0.55" d="M82.8397 55.3555C82.5624 57.2968 82.8397 58.5448 82.9784 60.2087C82.8397 60.2087 82.8397 60.3473 82.7011 60.3473C81.8691 56.7421 82.7011 52.7209 82.9784 48.9771C83.2557 45.3718 82.9784 41.7666 82.1464 38.1614C81.8691 36.7748 81.4531 35.5268 81.4531 34.1402C81.3145 30.9509 82.9784 28.039 82.9784 24.8498C82.9784 23.0472 82.2851 21.3832 82.1464 19.5806C81.8691 17.362 82.2851 15.1435 82.7011 12.9249H82.8397C82.9784 14.7275 82.4237 16.6687 82.5624 18.4714C82.9784 21.7993 83.533 24.9885 82.9784 28.3164C82.7011 29.8417 82.1464 31.9216 82.0078 33.4469C81.8691 35.3881 82.8397 38.5774 83.1171 40.5187C83.8104 45.6492 83.6717 49.393 82.8397 55.3555Z" fill="#5F5F43"/>
<path opacity="0.55" d="M74.2426 40.1027C74.52 44.1239 74.2426 48.1451 73.688 52.9983C73.4107 55.6328 72.856 59.238 72.9947 61.734H72.856C72.5787 60.7633 72.7173 59.6541 72.7173 58.8221C73.1333 54.6622 73.4107 50.5023 73.8266 46.2038C73.9653 44.2625 74.104 42.4599 73.9653 40.5186C73.8266 38.8547 73.5493 37.3294 73.5493 35.6655C73.4107 30.8123 76.0452 26.0978 75.6293 21.2446C75.4906 19.7193 75.0746 18.194 74.7973 16.5301C74.6586 15.2821 74.6586 14.0342 74.6586 12.9249H74.7973C74.9359 15.8368 76.0452 18.61 76.3226 21.5219C76.5999 25.4045 74.3813 29.0097 74.104 33.0309C73.9653 34.8335 73.8266 35.6655 74.2426 40.1027Z" fill="#5F5F43"/>
<path opacity="0.55" d="M66.7549 40.6572C66.8936 38.9932 67.0323 38.1613 66.7549 33.7241C66.4776 29.7029 66.7549 25.6817 67.3096 20.8285C67.5869 18.7485 67.8642 15.9753 68.0029 13.7567C68.1415 13.7567 68.2802 13.7567 68.2802 13.618C68.2802 14.034 68.2802 14.5887 68.1416 15.0047C67.7256 19.1645 67.4482 23.3244 67.0322 27.6229C66.8936 29.5642 66.7549 31.3668 66.8936 33.3081C67.0323 34.972 67.3096 36.4973 67.3096 38.1613C67.5869 41.9051 65.091 48.8382 65.091 49.3929C64.9523 49.9475 64.9523 50.3635 64.9523 50.7795C64.9523 51.0568 64.9523 51.4728 64.8137 51.7502C64.8137 53.5528 65.091 55.2167 65.6456 56.8807C65.6456 57.0193 65.7843 57.2966 65.7843 57.4353C65.7843 57.4353 65.7843 57.4353 65.7843 57.2967C65.6456 57.0193 65.3683 56.6033 65.2296 56.326C64.9523 54.9394 64.5363 53.4141 64.5363 52.0275C64.259 48.1449 66.4776 44.5397 66.7549 40.6572Z" fill="#5F5F43"/>
<path opacity="0.55" d="M72.3014 51.6117C73.688 51.1957 74.936 50.7797 76.3226 50.641C79.3732 50.3637 82.4237 51.889 85.613 51.7503C86.7223 51.6117 87.8316 51.3343 88.9409 51.057C88.9409 51.1957 88.9408 51.3343 88.8022 51.6117C86.5836 51.889 84.5037 52.1663 82.1464 51.889C80.6211 51.7503 78.5412 51.1957 77.0159 51.1957C75.0746 51.057 71.8854 52.305 69.9441 52.5823C67.8642 52.9983 65.9229 53.1369 63.9816 53.2756C63.9816 53.1369 63.9816 52.9983 63.843 52.8596C66.8935 52.8596 69.6668 52.4436 72.3014 51.6117Z" fill="#5F5F43"/>
<path opacity="0.55" d="M64.259 45.0947C66.2003 45.2333 68.0029 45.2333 69.9442 44.956C71.6081 44.8173 73.1334 44.4013 74.6587 44.2627C79.5119 43.9853 84.365 46.3426 89.0796 45.6493C89.4955 45.6493 89.9115 45.5106 90.3275 45.372C90.3275 45.6493 90.3275 45.9266 90.3275 46.0653C89.7729 46.2039 89.3569 46.2039 88.8022 46.3426C84.9197 46.7586 81.1758 44.8173 77.2933 44.6787C75.4907 44.54 74.7973 44.54 70.3601 45.0947C67.7256 45.372 65.091 45.5106 62.1791 45.372C62.1791 45.2333 62.1791 44.956 62.0404 44.8173C62.7337 45.0947 63.5657 45.0947 64.259 45.0947Z" fill="#5F5F43"/>
<path opacity="0.55" d="M61.3471 32.4763C63.9816 32.8923 66.4776 33.8629 69.2508 34.0016C71.0534 34.1403 71.7467 34.1403 76.1839 33.5856C80.0665 33.031 84.2263 33.1696 89.0795 33.5856C89.7728 33.5856 90.6048 33.7243 91.4368 33.7243C91.4368 33.863 91.4368 34.0016 91.4368 34.1403C88.3862 34.0016 85.3356 33.8629 82.2851 33.8629C80.3438 33.7243 78.5412 33.7243 76.5999 34.0016C74.936 34.1403 73.4107 34.5563 71.8854 34.6949C68.2802 34.9722 64.8136 33.7243 61.3471 33.3083C61.3471 32.8923 61.3471 32.615 61.3471 32.4763Z" fill="#5F5F43"/>
</svg>
