<svg width="132" height="83" viewBox="0 0 132 83" fill="none" xmlns="http://www.w3.org/2000/svg">
<ellipse cx="66" cy="73.8529" rx="66" ry="8.62745" fill="black" fill-opacity="0.12"/>
<path d="M119.716 59.4978C118.049 54.3685 112.151 38.8521 110.484 23.9769C110.484 23.9769 107.406 19.8734 106.893 23.464C106.893 23.464 112.535 49.2391 118.691 59.4978C118.819 59.6261 118.947 59.8825 118.947 60.0107C117.152 61.4213 121.127 64.6272 121.127 64.6272C121.127 64.6272 121.64 59.1131 119.716 59.4978Z" fill="#5F3516"/>
<path d="M47.0077 29.8758C47.1359 28.0806 47.3924 26.2853 48.4183 24.8747C50.2136 22.4383 54.3171 22.4382 56.2406 24.7465C57.7794 26.67 57.6512 29.3629 57.5229 31.7993C56.6253 42.6993 56.6253 52.0604 58.4206 64.4991C58.8053 67.192 60.857 70.3979 62.1393 72.8343C60.6005 73.9884 48.803 74.7579 47.7771 73.0908C49.5724 69.2438 50.3418 65.6532 50.0853 61.4215C49.8289 58.4721 49.1877 55.6509 48.5465 52.7015C46.8795 45.2639 46.4948 37.5699 47.0077 29.8758Z" fill="#5F3516"/>
<path d="M106.893 66.5508C108.175 64.7555 107.534 62.1909 106.765 60.1391C105.739 57.4462 104.328 54.8815 102.661 52.5733C102.02 51.6756 101.379 50.9062 100.738 50.0086C98.5579 47.1874 96.2497 44.3663 94.0697 41.4169C93.1721 40.2628 93.0438 38.9804 92.5309 37.5699C92.0179 36.1593 91.8897 34.4922 92.5309 33.0817C93.172 32.0558 94.1979 31.2864 95.0956 30.517C96.3779 29.6193 97.6602 28.7217 99.0708 28.2088C100.481 27.6958 102.277 27.6958 103.559 28.5935C103.687 28.7217 103.815 28.7217 103.815 28.8499C103.815 28.9782 103.815 29.2346 103.815 29.3629C103.303 31.0299 103.687 32.697 104.072 34.364C105.739 41.5451 106.765 43.3404 109.971 51.9321C111.638 56.4203 114.715 62.7038 115.357 63.9861C115.741 64.7555 115.87 65.5249 116.126 66.2943C116.639 68.2179 117.537 69.5002 118.562 71.8084C117.408 73.8602 106.124 73.9884 102.918 72.9625C101.764 72.5778 103.431 69.8849 104.2 68.9873C105.098 68.0896 106.252 67.4485 106.893 66.5508Z" fill="#5F3516"/>
<path d="M33.543 55.1379C35.3382 53.0862 39.8265 48.598 41.1088 46.0333C42.7758 42.8274 42.9041 36.6722 42.7758 33.0816C42.7758 32.3122 42.7758 31.671 42.6476 30.9016C40.2112 26.9263 37.9029 22.9511 35.4665 18.9758C33.03 14.8723 30.4653 9.74297 35.0818 5.7677C35.723 5.12653 36.6206 4.74181 37.39 4.22887C44.1864 0.894782 52.0087 -0.0028587 59.4463 1.66419C62.7804 2.43359 65.9863 3.58769 69.3203 3.97239C75.3474 4.61356 81.6308 2.56182 87.6579 3.45946C91.3767 4.10063 94.839 5.7677 98.0448 7.69122C101.122 9.4865 104.2 11.2818 106.637 13.8464C109.073 16.4111 110.997 19.7452 111.125 23.2075C111.381 27.6957 108.945 32.0557 108.175 36.4157C107.791 37.9545 104.585 44.1098 102.661 46.6744C101.379 48.4697 100.097 50.265 99.0707 52.1885C98.9425 52.3167 98.9425 52.445 98.8142 52.5732C97.6601 54.8815 96.506 57.1897 95.6084 59.4979C94.0696 63.4731 92.7872 67.9613 94.4543 71.9366C94.7107 72.4495 94.839 72.8342 94.839 73.3472C94.839 73.7319 94.5825 74.2448 94.1978 74.3731C90.9919 76.2966 81.7591 75.5272 81.1179 73.4754C82.7849 68.7307 85.8626 65.6531 87.7861 61.0367C88.6837 58.8567 89.3249 56.5485 89.8378 54.2403C90.3508 52.445 90.6072 50.5215 90.7355 48.598C81.6308 48.4697 72.398 46.6744 63.4216 44.7509C60.8569 44.238 58.164 43.5968 55.5993 42.8274C54.7016 44.7509 53.804 46.2897 52.9063 47.1874C51.3675 48.7262 49.3158 49.7521 47.5205 50.9062C45.2123 52.3167 43.0323 54.112 41.3653 56.1638C40.4676 57.1897 39.6982 58.3438 39.8265 59.6261C39.9547 61.1649 41.4935 62.319 43.0323 62.9602C44.5711 63.6014 46.2382 63.7296 47.6487 64.499C48.0334 64.6272 48.2899 64.8837 48.4181 65.2684C48.5464 65.6531 48.4181 66.0378 48.2899 66.4225C46.8793 70.1413 42.5194 74.886 39.9547 74.886C37.0053 72.1931 35.5947 68.0896 33.9277 64.6273C32.5171 61.4214 30.9783 58.2155 33.543 55.1379Z" fill="#744F34"/>
<path d="M96.5061 29.3627C95.6084 31.5427 94.3261 33.4661 92.0179 34.7485C88.5555 36.672 67.3969 36.9285 58.5487 33.8509C54.7017 32.4403 55.3429 28.0803 55.2146 24.3615C55.0864 20.1298 55.0864 15.7698 55.0864 11.5381C55.0864 8.07578 54.7017 4.61345 54.8299 1.15112C56.3687 1.27936 57.9075 1.40759 59.4464 1.79229C62.7805 2.5617 65.9863 3.71579 69.3204 4.1005C75.3474 4.74167 81.6309 2.68993 87.6579 3.58757C91.3767 4.22874 94.839 5.89577 98.0449 7.81928C98.8143 8.07575 98.3014 24.618 96.5061 29.3627Z" fill="#B88A51"/>
<path d="M62.5239 30.004C59.4463 28.5934 60.0874 24.3616 59.9592 20.6428C59.831 16.4111 59.831 12.1794 59.831 7.94766C59.831 5.89591 59.7027 3.84417 59.7027 1.66418C62.9086 2.43359 66.1145 3.58771 69.4485 3.84418C75.4756 4.48536 81.759 2.43357 87.7861 3.33122C89.8378 3.71592 91.8896 4.35709 93.6848 5.25473C93.9413 8.97353 93.4284 21.4123 92.146 25.3875C91.5049 27.5675 90.3507 29.491 88.6837 30.6451C85.8625 32.8251 69.4486 33.0816 62.5239 30.004Z" fill="#A5743D"/>
<path d="M90.8638 7.94781C91.3767 7.94781 91.7614 7.43489 91.7614 6.92195C91.7614 6.40901 91.2485 6.02429 90.7355 6.02429C90.2226 6.02429 89.8379 6.53725 89.8379 7.05019C89.9661 7.56313 90.3508 7.94781 90.8638 7.94781Z" fill="#FFDB3D"/>
<path d="M90.8638 11.6666C91.3767 11.6666 91.7614 11.2819 91.7614 10.769C91.7614 10.2561 91.3767 9.87134 90.8638 9.87134C90.3508 9.87134 89.9661 10.2561 89.9661 10.769C89.9661 11.2819 90.3508 11.6666 90.8638 11.6666Z" fill="#FFDB3D"/>
<path d="M90.7355 15.3854C91.2485 15.3854 91.7614 15.0007 91.7614 14.4877C91.7614 13.9748 91.3767 13.5901 90.8638 13.5901C90.3508 13.5901 89.9661 13.9748 89.8379 14.4877C89.8379 14.8724 90.2226 15.2572 90.7355 15.3854Z" fill="#FFDB3D"/>
<path d="M90.2227 18.9762C90.7356 19.1044 91.2485 18.7197 91.2485 18.2068C91.3768 17.6938 90.9921 17.1809 90.4791 17.1809C89.9662 17.1809 89.4532 17.4374 89.4532 17.9503C89.4532 18.4633 89.7097 18.9762 90.2227 18.9762Z" fill="#FFDB3D"/>
<path d="M89.4532 22.5663C89.9662 22.6945 90.4791 22.438 90.6073 21.9251C90.7356 21.4122 90.3509 20.8992 89.838 20.771C89.325 20.6428 88.8121 21.0275 88.6838 21.4122C88.6838 21.9251 89.0685 22.438 89.4532 22.5663Z" fill="#FFDB3D"/>
<path d="M88.1709 26.0288C88.5556 26.2852 89.1967 26.0288 89.4532 25.5159C89.7097 25.0029 89.4532 24.49 88.9403 24.2335C88.4274 24.1053 87.9144 24.2335 87.7862 24.7464C87.5297 25.2594 87.7862 25.7723 88.1709 26.0288Z" fill="#FFDB3D"/>
<path d="M85.8626 28.8502C86.1191 29.2349 86.7603 29.3631 87.145 28.9784C87.6579 28.5937 87.5297 27.9525 87.145 27.696C86.7603 27.3113 86.2473 27.4396 85.8626 27.696C85.6061 27.8243 85.6061 28.3372 85.8626 28.8502Z" fill="#FFDB3D"/>
<path d="M82.4003 29.6194C82.4003 30.1323 82.785 30.517 83.2979 30.517C83.9391 30.517 84.3238 30.0041 84.1956 29.4912C84.0673 28.9782 83.6827 28.5935 83.2979 28.7218C82.785 28.7218 82.4003 29.1064 82.4003 29.6194Z" fill="#FFDB3D"/>
<path d="M78.8098 29.6193C78.8098 30.1322 79.1945 30.517 79.7074 30.517C80.2204 30.517 80.6051 30.1322 80.6051 29.6193C80.6051 29.1064 80.2204 28.7217 79.7074 28.7217C79.1945 28.7217 78.8098 29.1064 78.8098 29.6193Z" fill="#FFDB3D"/>
<path d="M75.3474 29.491C75.3474 30.004 75.7321 30.3887 76.2451 30.3887C76.758 30.3887 77.1427 30.004 77.1427 29.491C77.1427 28.9781 76.758 28.5934 76.2451 28.5934C75.7321 28.5934 75.3474 28.9781 75.3474 29.491Z" fill="#FFDB3D"/>
<path d="M71.7568 29.2347C71.7568 29.7476 72.0133 30.1323 72.5262 30.2606C73.0391 30.2606 73.4238 29.8759 73.4238 29.3629C73.4238 28.85 73.0391 28.4653 72.6544 28.337C72.2697 28.4653 71.885 28.7218 71.7568 29.2347Z" fill="#FFDB3D"/>
<path d="M68.4228 28.7217C68.2946 29.2346 68.6793 29.6193 69.064 29.7475C69.5769 29.8758 69.9616 29.4911 70.0898 28.9781C70.2181 28.4652 69.8334 28.0805 69.4487 27.9523C68.9357 27.9523 68.551 28.2087 68.4228 28.7217Z" fill="#FFDB3D"/>
<path d="M65.0887 27.5677C64.8323 27.9524 65.0887 28.5936 65.4734 28.7218C65.9864 28.85 66.4993 28.5936 66.6275 28.2089C66.7558 27.6959 66.4993 27.183 66.1146 27.0547C65.8581 26.9265 65.3452 27.183 65.0887 27.5677Z" fill="#FFDB3D"/>
<path d="M63.037 25.0026C62.6523 25.1309 62.2676 25.772 62.5241 26.285C62.7806 26.9261 63.4217 26.9261 63.8064 26.5414C64.1911 26.1567 64.1911 25.6438 64.0629 25.3873C63.8064 25.1308 63.4217 24.8744 63.037 25.0026Z" fill="#FFDB3D"/>
<path d="M62.6523 21.5405C62.1394 21.5405 61.8829 22.0534 61.8829 22.5664C61.8829 23.0793 62.3959 23.464 62.7806 23.3358C63.2935 23.3358 63.6782 22.8229 63.55 22.3099C63.55 21.797 63.1653 21.5405 62.6523 21.5405Z" fill="#FFDB3D"/>
<path d="M62.3957 17.9502C61.8827 17.9502 61.498 18.4631 61.6263 18.8478C61.6263 19.3607 62.011 19.7455 62.5239 19.6172C63.0368 19.6172 63.4216 19.1043 63.2933 18.7196C63.2933 18.3349 62.9086 17.9502 62.3957 17.9502Z" fill="#FFDB3D"/>
<path d="M62.2675 14.4875C61.7545 14.4875 61.3698 14.8723 61.498 15.3852C61.498 15.8981 61.8827 16.2828 62.3957 16.2828C62.9086 16.2828 63.2933 15.8981 63.1651 15.3852C63.1651 14.8723 62.7804 14.4875 62.2675 14.4875Z" fill="#FFDB3D"/>
<path d="M62.2675 10.8971C61.7545 10.8971 61.3698 11.2818 61.3698 11.7947C61.3698 12.3076 61.7545 12.6924 62.2675 12.6924C62.7804 12.6924 63.1651 12.3076 63.1651 11.7947C63.1651 11.2818 62.7804 10.8971 62.2675 10.8971Z" fill="#FFDB3D"/>
<path d="M62.2675 7.43445C61.7545 7.43445 61.3698 7.81917 61.3698 8.3321C61.3698 8.84504 61.7545 9.22972 62.2675 9.22972C62.7804 9.22972 63.1651 8.84504 63.1651 8.3321C63.1651 7.81917 62.7804 7.43445 62.2675 7.43445Z" fill="#FFDB3D"/>
<path d="M62.2675 3.97241C61.7545 3.97241 61.3698 4.35713 61.3698 4.87007C61.3698 5.38301 61.7545 5.76772 62.2675 5.76772C62.7804 5.76772 63.1651 5.38301 63.1651 4.87007C63.1651 4.35713 62.7804 3.97241 62.2675 3.97241Z" fill="#FFDB3D"/>
<path opacity="0.35" d="M35.0819 5.89608C35.723 5.25491 36.6207 4.87023 37.3901 4.35729C44.1865 1.0232 52.0088 0.125559 59.4464 1.79261C60.2158 1.92084 60.857 2.1773 61.6264 2.30553C62.1393 3.07494 62.7805 3.7161 63.2934 4.61374C64.5758 6.53725 65.7299 8.58902 66.884 10.6408C67.5251 11.7949 68.0381 12.8208 68.6793 13.9749C69.3204 15.129 69.4487 16.5396 69.1922 17.9501C68.6793 21.0278 66.2428 23.4642 63.5499 25.1312C60.857 26.67 58.2923 28.3371 55.5994 29.6194C53.5476 30.6453 51.3676 31.6712 49.0594 32.1841C47.0077 32.5688 44.8277 32.3124 42.7759 32.3124C42.7759 31.9277 42.7759 31.543 42.7759 31.1583C40.3395 27.183 38.0313 23.2077 35.5948 19.2325C33.0301 15.0007 30.5937 9.87134 35.0819 5.89608Z" fill="#A3918B"/>
<path d="M7.12683 66.166C7.51153 63.2167 9.43504 60.652 10.4609 57.9591C10.9739 56.8049 11.2303 55.6509 11.4868 54.3685C12.3844 49.6238 11.2303 44.8792 11.1021 40.1345C10.9739 36.8004 11.2303 33.5945 11.9997 30.3887C12.2562 28.9781 11.8715 24.8746 12.5127 23.5923C13.0256 22.3099 13.1538 21.797 13.6668 21.1558C18.5397 13.4618 17.642 11.7947 19.6938 7.56298C21.7455 3.33125 37.7748 0.766539 41.7501 2.69005C45.7254 4.61357 40.2113 9.35825 41.3654 13.2053C41.3654 13.2053 46.623 31.5428 19.3091 34.2357C19.3091 34.2357 19.1809 34.1075 18.9244 33.9793C18.0267 36.4157 18.0267 39.4933 18.155 41.6733C18.2832 44.1098 18.7962 46.418 19.0526 48.8544C19.3091 51.2909 19.3091 53.7273 18.2832 56.0355C16.3597 60.2673 11.3586 62.832 10.5892 67.4484C10.3327 68.9872 10.7174 70.6543 11.8715 71.5519C12.3844 71.9366 13.0256 72.0649 13.5385 71.8084C14.0515 71.5519 14.0515 70.1413 14.3079 70.3978C14.9491 70.9107 15.8468 71.6801 16.4879 72.1931C16.8726 72.4495 16.2315 72.706 16.1032 72.8342C13.9233 74.6295 11.2303 74.3731 9.43505 72.8342C7.51154 71.2954 6.74213 68.6025 7.12683 66.166Z" fill="#744F34"/>
<path d="M24.9513 18.0783C24.9513 18.0783 24.4384 22.0536 20.3349 20.2583C20.3349 20.2583 21.2325 16.283 24.9513 18.0783Z" fill="#312725"/>
<path d="M24.8231 30.0042C24.8231 30.0042 21.2326 47.444 5.20326 40.0065C5.20326 40.0065 4.69033 39.237 8.15266 39.8782C11.615 40.6476 18.9243 37.1853 20.3349 30.9018C20.3349 30.9018 20.5914 29.7477 21.489 28.8501C22.7714 27.8242 25.3361 28.0807 24.8231 30.0042Z" fill="#FBF9E2"/>
<path d="M34.056 2.69009C34.056 2.69009 47.3924 -1.4134 50.8547 1.66423C54.0606 4.48538 65.9863 14.7441 54.7017 20.3864C52.5217 21.4123 50.47 22.6947 48.5465 24.2335C45.5971 26.5417 41.1089 29.4911 37.2619 28.9781C30.9784 28.2087 37.903 20.0018 37.903 12.8206C37.7748 6.40891 36.1078 4.35713 34.056 2.69009Z" fill="#826048"/>
</svg>
