<svg width="28" height="28" viewBox="0 0 28 28" fill="none" xmlns="http://www.w3.org/2000/svg">
<path d="M5.8975 3.78662C5.82066 3.70001 5.72739 3.6295 5.6231 3.5792C5.51881 3.52889 5.40557 3.49978 5.28995 3.49356C5.17433 3.48734 5.05862 3.50413 4.94953 3.54296C4.84045 3.58179 4.74015 3.64188 4.65446 3.71975C4.56877 3.79763 4.49939 3.89173 4.45034 3.99662C4.40129 4.1015 4.37354 4.21508 4.36871 4.33077C4.36387 4.44646 4.38205 4.56196 4.42218 4.67057C4.46231 4.77918 4.5236 4.87875 4.6025 4.9635L8.04453 8.75006H3.5C3.03587 8.75006 2.59075 8.93444 2.26256 9.26263C1.93437 9.59081 1.75 10.0359 1.75 10.5001V17.5001C1.75 17.9642 1.93437 18.4093 2.26256 18.7375C2.59075 19.0657 3.03587 19.2501 3.5 19.2501H8.44922L16.088 25.1902C16.2172 25.2907 16.3721 25.3529 16.535 25.3698C16.6978 25.3866 16.8621 25.3574 17.0092 25.2855C17.1563 25.2136 17.2803 25.1019 17.3671 24.9631C17.4538 24.8242 17.4999 24.6638 17.5 24.5001V19.1505L22.1025 24.2135C22.1793 24.3001 22.2726 24.3706 22.3769 24.4209C22.4812 24.4712 22.5944 24.5003 22.71 24.5066C22.8257 24.5128 22.9414 24.496 23.0505 24.4572C23.1595 24.4183 23.2598 24.3582 23.3455 24.2804C23.4312 24.2025 23.5006 24.1084 23.5497 24.0035C23.5987 23.8986 23.6265 23.785 23.6313 23.6694C23.6361 23.5537 23.6179 23.4382 23.5778 23.3296C23.5377 23.2209 23.4764 23.1214 23.3975 23.0366L5.8975 3.78662ZM3.5 10.5001H7.875V17.5001H3.5V10.5001ZM15.75 22.7107L9.625 17.9474V10.488L15.75 17.2255V22.7107ZM20.3437 15.7358C20.7658 15.2565 20.9986 14.6398 20.9986 14.0012C20.9986 13.3625 20.7658 12.7458 20.3437 12.2665C20.2634 12.181 20.201 12.0803 20.1603 11.9702C20.1196 11.8602 20.1015 11.7431 20.107 11.6259C20.1125 11.5087 20.1415 11.3938 20.1923 11.2881C20.2431 11.1823 20.3146 11.0878 20.4027 11.0103C20.4907 10.9327 20.5935 10.8737 20.7048 10.8367C20.8161 10.7996 20.9337 10.7853 21.0507 10.7947C21.1676 10.804 21.2815 10.8368 21.3855 10.891C21.4896 10.9452 21.5816 11.0198 21.6562 11.1104C22.36 11.9093 22.7483 12.9375 22.7483 14.0022C22.7483 15.067 22.36 16.0952 21.6562 16.8941C21.5802 16.9803 21.4879 17.0507 21.3847 17.1012C21.2814 17.1517 21.1692 17.1814 21.0545 17.1885C20.9398 17.1957 20.8248 17.1802 20.7161 17.1429C20.6074 17.1056 20.507 17.0473 20.4209 16.9712C20.3347 16.8952 20.2643 16.8029 20.2138 16.6997C20.1633 16.5964 20.1336 16.4842 20.1264 16.3695C20.1193 16.2548 20.1348 16.1398 20.1721 16.0311C20.2094 15.9223 20.2677 15.822 20.3437 15.7358ZM11.5762 7.42334C11.5056 7.33265 11.4536 7.22893 11.423 7.11811C11.3925 7.00729 11.3841 6.89154 11.3983 6.77748C11.4125 6.66341 11.4491 6.55326 11.5059 6.45333C11.5627 6.3534 11.6386 6.26564 11.7294 6.19506L16.088 2.80444C16.2176 2.70366 16.373 2.64139 16.5363 2.62475C16.6997 2.6081 16.8644 2.63776 17.0117 2.71032C17.159 2.78288 17.2829 2.89542 17.3692 3.03508C17.4556 3.17473 17.5009 3.33587 17.5 3.50006V11.6846C17.5 11.9167 17.4078 12.1392 17.2437 12.3033C17.0796 12.4674 16.8571 12.5596 16.625 12.5596C16.3929 12.5596 16.1704 12.4674 16.0063 12.3033C15.8422 12.1392 15.75 11.9167 15.75 11.6846V5.28944L12.8034 7.58631C12.6197 7.72801 12.3871 7.7909 12.157 7.76116C11.9269 7.73142 11.718 7.61148 11.5762 7.42772V7.42334ZM27.125 14.0001C27.1263 16.1528 26.3329 18.2302 24.897 19.8341C24.7412 20.0028 24.5252 20.1034 24.2958 20.1143C24.0664 20.1251 23.842 20.0454 23.6708 19.8922C23.4997 19.739 23.3957 19.5247 23.3812 19.2955C23.3667 19.0663 23.4428 18.8406 23.5933 18.6671C24.7411 17.3837 25.3756 15.7224 25.3756 14.0006C25.3756 12.2789 24.7411 10.6175 23.5933 9.33412C23.5145 9.24888 23.4535 9.14881 23.4137 9.03974C23.374 8.93068 23.3564 8.81479 23.3619 8.69885C23.3673 8.5829 23.3959 8.4692 23.4457 8.36438C23.4956 8.25956 23.5658 8.16571 23.6523 8.08829C23.7388 8.01087 23.8398 7.95143 23.9495 7.91344C24.0592 7.87545 24.1753 7.85966 24.2912 7.86699C24.407 7.87433 24.5202 7.90464 24.6243 7.95616C24.7283 8.00768 24.821 8.07938 24.897 8.16709C26.3333 9.77033 27.1267 11.8476 27.125 14.0001Z" fill="#343330"/>
</svg>
