<svg width="28" height="28" viewBox="0 0 28 28" fill="none" xmlns="http://www.w3.org/2000/svg">
<path d="M19.25 1.75H8.75C8.05381 1.75 7.38613 2.02656 6.89384 2.51884C6.40156 3.01113 6.125 3.67881 6.125 4.375V23.625C6.125 24.3212 6.40156 24.9889 6.89384 25.4812C7.38613 25.9734 8.05381 26.25 8.75 26.25H19.25C19.9462 26.25 20.6139 25.9734 21.1062 25.4812C21.5984 24.9889 21.875 24.3212 21.875 23.625V4.375C21.875 3.67881 21.5984 3.01113 21.1062 2.51884C20.6139 2.02656 19.9462 1.75 19.25 1.75ZM20.125 23.625C20.125 23.8571 20.0328 24.0796 19.8687 24.2437C19.7046 24.4078 19.4821 24.5 19.25 24.5H8.75C8.51794 24.5 8.29538 24.4078 8.13128 24.2437C7.96719 24.0796 7.875 23.8571 7.875 23.625V4.375C7.875 4.14294 7.96719 3.92038 8.13128 3.75628C8.29538 3.59219 8.51794 3.5 8.75 3.5H19.25C19.4821 3.5 19.7046 3.59219 19.8687 3.75628C20.0328 3.92038 20.125 4.14294 20.125 4.375V23.625ZM18.375 6.125C18.375 6.35706 18.2828 6.57962 18.1187 6.74372C17.9546 6.90781 17.7321 7 17.5 7H10.5C10.2679 7 10.0454 6.90781 9.88128 6.74372C9.71719 6.57962 9.625 6.35706 9.625 6.125C9.625 5.89294 9.71719 5.67038 9.88128 5.50628C10.0454 5.34219 10.2679 5.25 10.5 5.25H17.5C17.7321 5.25 17.9546 5.34219 18.1187 5.50628C18.2828 5.67038 18.375 5.89294 18.375 6.125Z" fill="#343330"/>
</svg>
