<svg width="40" height="40" viewBox="0 0 40 40" fill="none" xmlns="http://www.w3.org/2000/svg">
<path d="M38.75 32.4999C38.75 32.8314 38.6183 33.1493 38.3839 33.3838C38.1495 33.6182 37.8315 33.7499 37.5 33.7499H2.5C2.16848 33.7499 1.85054 33.6182 1.61612 33.3838C1.3817 33.1493 1.25 32.8314 1.25 32.4999C1.25 32.1683 1.3817 31.8504 1.61612 31.616C1.85054 31.3816 2.16848 31.2499 2.5 31.2499H37.5C37.8315 31.2499 38.1495 31.3816 38.3839 31.616C38.6183 31.8504 38.75 32.1683 38.75 32.4999ZM2.54687 15.3405C2.47253 15.0784 2.48587 14.7991 2.58488 14.5452C2.68388 14.2914 2.86312 14.0768 3.09531 13.9342L19.3453 3.93424C19.5422 3.81318 19.7688 3.74908 20 3.74908C20.2312 3.74908 20.4578 3.81318 20.6547 3.93424L36.9047 13.9342C37.137 14.0767 37.3163 14.2911 37.4155 14.5448C37.5147 14.7986 37.5283 15.0778 37.4541 15.3399C37.38 15.6021 37.2223 15.8329 37.0049 15.9972C36.7875 16.1614 36.5224 16.2501 36.25 16.2499H32.5V26.2499H35C35.3315 26.2499 35.6495 26.3816 35.8839 26.616C36.1183 26.8504 36.25 27.1683 36.25 27.4999C36.25 27.8314 36.1183 28.1493 35.8839 28.3838C35.6495 28.6182 35.3315 28.7499 35 28.7499H5C4.66848 28.7499 4.35054 28.6182 4.11612 28.3838C3.8817 28.1493 3.75 27.8314 3.75 27.4999C3.75 27.1683 3.8817 26.8504 4.11612 26.616C4.35054 26.3816 4.66848 26.2499 5 26.2499H7.5V16.2499H3.75C3.47779 16.25 3.213 16.1612 2.99585 15.9971C2.77869 15.8329 2.62105 15.6024 2.54687 15.3405ZM22.5 24.9999C22.5 25.3314 22.6317 25.6493 22.8661 25.8838C23.1005 26.1182 23.4185 26.2499 23.75 26.2499C24.0815 26.2499 24.3995 26.1182 24.6339 25.8838C24.8683 25.6493 25 25.3314 25 24.9999V17.4999C25 17.1683 24.8683 16.8504 24.6339 16.616C24.3995 16.3816 24.0815 16.2499 23.75 16.2499C23.4185 16.2499 23.1005 16.3816 22.8661 16.616C22.6317 16.8504 22.5 17.1683 22.5 17.4999V24.9999ZM15 24.9999C15 25.3314 15.1317 25.6493 15.3661 25.8838C15.6005 26.1182 15.9185 26.2499 16.25 26.2499C16.5815 26.2499 16.8995 26.1182 17.1339 25.8838C17.3683 25.6493 17.5 25.3314 17.5 24.9999V17.4999C17.5 17.1683 17.3683 16.8504 17.1339 16.616C16.8995 16.3816 16.5815 16.2499 16.25 16.2499C15.9185 16.2499 15.6005 16.3816 15.3661 16.616C15.1317 16.8504 15 17.1683 15 17.4999V24.9999Z" fill="white"/>
</svg>
