<svg width="370" height="100" viewBox="0 0 370 100" fill="none" xmlns="http://www.w3.org/2000/svg">
<g filter="url(#filter0_d_448_2806)">
<circle cx="25" cy="82" r="50" fill="white" fill-opacity="0.25" shape-rendering="crispEdges"/>
</g>
<path d="M50.9517 78.6417L15.1363 56.7319C14.5325 56.3621 13.8409 56.1603 13.133 56.1472C12.4251 56.1341 11.7265 56.3102 11.1093 56.6573C10.4981 56.9991 9.98894 57.4975 9.63419 58.1012C9.27943 58.705 9.0919 59.3924 9.09088 60.0927V103.907C9.09549 104.958 9.51703 105.963 10.2628 106.703C11.0087 107.443 12.0177 107.856 13.0682 107.852C13.8013 107.852 14.5203 107.65 15.1463 107.268L50.9517 85.3583C51.5272 85.0075 52.0029 84.5146 52.3329 83.9269C52.663 83.3392 52.8363 82.6765 52.8363 82.0025C52.8363 81.3285 52.663 80.6658 52.3329 80.0781C52.0029 79.4904 51.5272 78.9975 50.9517 78.6467V78.6417ZM13.0682 103.86V60.125L48.8214 82L13.0682 103.86Z" fill="#2FB9D8" fill-opacity="0.25"/>
<circle cx="105.5" cy="0.5" r="9.5" fill="#2FB9D8" fill-opacity="0.25"/>
<circle cx="180.5" cy="87.5" r="17.5" fill="#2FB9D8" fill-opacity="0.25"/>
<circle cx="366.5" cy="18.5" r="46.5" fill="#2FB9D8" fill-opacity="0.25"/>
<defs>
<filter id="filter0_d_448_2806" x="-41" y="21" width="132" height="132" filterUnits="userSpaceOnUse" color-interpolation-filters="sRGB">
<feFlood flood-opacity="0" result="BackgroundImageFix"/>
<feColorMatrix in="SourceAlpha" type="matrix" values="0 0 0 0 0 0 0 0 0 0 0 0 0 0 0 0 0 0 127 0" result="hardAlpha"/>
<feMorphology radius="1" operator="dilate" in="SourceAlpha" result="effect1_dropShadow_448_2806"/>
<feOffset dy="5"/>
<feGaussianBlur stdDeviation="7.5"/>
<feComposite in2="hardAlpha" operator="out"/>
<feColorMatrix type="matrix" values="0 0 0 0 0.184314 0 0 0 0 0.72549 0 0 0 0 0.847059 0 0 0 0.25 0"/>
<feBlend mode="normal" in2="BackgroundImageFix" result="effect1_dropShadow_448_2806"/>
<feBlend mode="normal" in="SourceGraphic" in2="effect1_dropShadow_448_2806" result="shape"/>
</filter>
</defs>
</svg>
