<svg width="37" height="37" viewBox="0 0 37 37" fill="none" xmlns="http://www.w3.org/2000/svg">
<path d="M34.39 15.4951C34.3578 15.3322 34.291 15.1783 34.1939 15.0436C34.0969 14.9089 33.9721 14.7967 33.8278 14.7146L29.5164 12.2576L29.4991 7.39843C29.4986 7.23108 29.4617 7.06584 29.3911 6.91412C29.3205 6.7624 29.2178 6.62782 29.0901 6.51968C27.5261 5.19678 25.7252 4.18299 23.7829 3.53221C23.6299 3.48044 23.4678 3.46128 23.307 3.47597C23.1462 3.49066 22.9903 3.53887 22.8492 3.61749L18.5003 6.0485L14.147 3.61315C14.0059 3.53409 13.8497 3.48551 13.6886 3.47058C13.5276 3.45564 13.3651 3.47467 13.2119 3.52643C11.2708 4.18139 9.47175 5.1991 7.91047 6.52546C7.78295 6.63345 7.68035 6.76779 7.60974 6.91925C7.53912 7.0707 7.50218 7.23566 7.50145 7.40276L7.47977 12.2662L3.1684 14.7233C3.02416 14.8054 2.89929 14.9176 2.80228 15.0523C2.70526 15.1869 2.63838 15.3409 2.60617 15.5037C2.2116 17.4865 2.2116 19.5277 2.60617 21.5105C2.63838 21.6733 2.70526 21.8273 2.80228 21.9619C2.89929 22.0966 3.02416 22.2088 3.1684 22.2909L7.47977 24.748L7.49711 29.6085C7.49763 29.7759 7.53448 29.9411 7.6051 30.0928C7.67571 30.2446 7.77843 30.3791 7.90613 30.4873C9.47006 31.8102 11.271 32.824 13.2133 33.4748C13.3663 33.5265 13.5284 33.5457 13.6892 33.531C13.85 33.5163 14.0059 33.4681 14.147 33.3895L18.5003 30.9512L22.8536 33.3866C23.0258 33.4826 23.22 33.5324 23.4172 33.5311C23.5435 33.5311 23.6689 33.5106 23.7887 33.4704C25.7293 32.8158 27.5282 31.7991 29.0901 30.4743C29.2176 30.3663 29.3202 30.2319 29.3908 30.0805C29.4614 29.929 29.4984 29.7641 29.4991 29.597L29.5208 24.7335L33.8321 22.2765C33.9764 22.1944 34.1013 22.0821 34.1983 21.9475C34.2953 21.8128 34.3622 21.6588 34.3944 21.496C34.7868 19.5148 34.7853 17.4757 34.39 15.4951ZM18.5003 24.2811C17.3568 24.2811 16.2391 23.9421 15.2884 23.3068C14.3377 22.6716 13.5967 21.7686 13.1591 20.7123C12.7215 19.6559 12.607 18.4935 12.8301 17.372C13.0532 16.2506 13.6038 15.2204 14.4123 14.4119C15.2208 13.6034 16.251 13.0528 17.3724 12.8297C18.4939 12.6066 19.6563 12.7211 20.7127 13.1587C21.769 13.5963 22.672 14.3373 23.3072 15.288C23.9425 16.2387 24.2815 17.3564 24.2815 18.4999C24.2815 20.0332 23.6724 21.5036 22.5882 22.5878C21.504 23.672 20.0336 24.2811 18.5003 24.2811Z" fill="white"/>
</svg>
