<svg width="28" height="28" viewBox="0 0 28 28" fill="none" xmlns="http://www.w3.org/2000/svg">
<path d="M16.8374 0.108825C16.675 0.0205747 16.4937 -0.0151068 16.3141 0.00583465C16.1345 0.0267761 15.9637 0.103501 15.8212 0.227291L7.39224 7.53852H1.93103C1.41889 7.53852 0.927726 7.76545 0.565587 8.16939C0.203448 8.57333 0 9.12119 0 9.69244V18.3081C0 18.8794 0.203448 19.4273 0.565587 19.8312C0.927726 20.2351 1.41889 20.4621 1.93103 20.4621H7.39224L15.8212 27.7733C15.9638 27.897 16.1347 27.9735 16.3144 27.9943C16.4941 28.015 16.6755 27.9791 16.8378 27.8906C17.0001 27.8021 17.1369 27.6646 17.2326 27.4937C17.3284 27.3228 17.3792 27.1254 17.3793 26.9238V1.07674C17.3793 0.874987 17.3285 0.677278 17.2327 0.506147C17.1369 0.335016 17 0.197346 16.8374 0.108825ZM1.93103 9.69244H6.75862V18.3081H1.93103V9.69244ZM15.4483 24.7215L8.68965 18.8587V9.14185L15.4483 3.27913V24.7215ZM21.9655 10.4409C22.7421 11.4243 23.1705 12.6898 23.1705 14.0003C23.1705 15.3108 22.7421 16.5763 21.9655 17.5597C21.7949 17.7687 21.5575 17.8946 21.3044 17.9101C21.0514 17.9256 20.803 17.8296 20.6129 17.6426C20.4228 17.4557 20.3062 17.1928 20.2883 16.9108C20.2704 16.6289 20.3527 16.3503 20.5172 16.1354C20.9829 15.5454 21.2398 14.7863 21.2398 14.0003C21.2398 13.2143 20.9829 12.4552 20.5172 11.8652C20.3527 11.6503 20.2704 11.3717 20.2883 11.0897C20.3062 10.8078 20.4228 10.5449 20.6129 10.358C20.803 10.171 21.0514 10.075 21.3044 10.0905C21.5575 10.106 21.7949 10.2319 21.9655 10.4409ZM28 14.0003C28.0014 16.6499 27.126 19.2068 25.5415 21.1809C25.3696 21.3885 25.1313 21.5124 24.8782 21.5257C24.625 21.5391 24.3773 21.4409 24.1885 21.2524C23.9997 21.0639 23.8849 20.8001 23.8689 20.518C23.8529 20.2359 23.9369 19.9581 24.1029 19.7445C25.3695 18.165 26.0697 16.1201 26.0697 14.001C26.0697 11.8818 25.3695 9.83697 24.1029 8.25739C24.016 8.15247 23.9486 8.0293 23.9048 7.89506C23.861 7.76082 23.8415 7.61819 23.8476 7.47548C23.8536 7.33277 23.8851 7.19284 23.9401 7.06382C23.9951 6.9348 24.0726 6.81929 24.168 6.724C24.2635 6.62871 24.375 6.55555 24.496 6.50879C24.617 6.46203 24.7452 6.4426 24.873 6.45163C25.0008 6.46065 25.1258 6.49796 25.2406 6.56137C25.3553 6.62479 25.4576 6.71304 25.5415 6.82099C27.1264 8.79428 28.0019 11.351 28 14.0003Z" fill="#343330"/>
</svg>
