<svg width="370" height="100" viewBox="0 0 370 100" fill="none" xmlns="http://www.w3.org/2000/svg">
<g filter="url(#filter0_d_448_2807)">
<circle cx="25" cy="82" r="50" fill="white" fill-opacity="0.25" shape-rendering="crispEdges"/>
</g>
<path d="M50.9517 78.6418L15.1363 56.732C14.5325 56.3623 13.8409 56.1604 13.133 56.1473C12.4251 56.1342 11.7265 56.3103 11.1093 56.6574C10.4981 56.9992 9.98894 57.4976 9.63419 58.1014C9.27943 58.7051 9.0919 59.3925 9.09088 60.0928V103.907C9.09549 104.958 9.51703 105.964 10.2628 106.703C11.0087 107.443 12.0177 107.856 13.0682 107.852C13.8013 107.852 14.5203 107.65 15.1463 107.268L50.9517 85.3584C51.5272 85.0076 52.0029 84.5147 52.3329 83.927C52.663 83.3393 52.8363 82.6766 52.8363 82.0026C52.8363 81.3286 52.663 80.6659 52.3329 80.0782C52.0029 79.4905 51.5272 78.9976 50.9517 78.6468V78.6418ZM13.0682 103.86V60.1251L48.8214 82.0001L13.0682 103.86Z" fill="#D72DC0" fill-opacity="0.25"/>
<circle cx="368.5" cy="9.5" r="46.5" fill="#D72DC0" fill-opacity="0.25"/>
<circle cx="105.5" cy="1.5" r="9.5" fill="#D72DC0" fill-opacity="0.25"/>
<rect x="184.757" y="71" width="29" height="29" rx="6" transform="rotate(55.0067 184.757 71)" fill="#D72DC0" fill-opacity="0.25"/>
<defs>
<filter id="filter0_d_448_2807" x="-41" y="21" width="132" height="132" filterUnits="userSpaceOnUse" color-interpolation-filters="sRGB">
<feFlood flood-opacity="0" result="BackgroundImageFix"/>
<feColorMatrix in="SourceAlpha" type="matrix" values="0 0 0 0 0 0 0 0 0 0 0 0 0 0 0 0 0 0 127 0" result="hardAlpha"/>
<feMorphology radius="1" operator="dilate" in="SourceAlpha" result="effect1_dropShadow_448_2807"/>
<feOffset dy="5"/>
<feGaussianBlur stdDeviation="7.5"/>
<feComposite in2="hardAlpha" operator="out"/>
<feColorMatrix type="matrix" values="0 0 0 0 0.843137 0 0 0 0 0.176471 0 0 0 0 0.752941 0 0 0 0.25 0"/>
<feBlend mode="normal" in2="BackgroundImageFix" result="effect1_dropShadow_448_2807"/>
<feBlend mode="normal" in="SourceGraphic" in2="effect1_dropShadow_448_2807" result="shape"/>
</filter>
</defs>
</svg>
