<svg width="32" height="32" viewBox="0 0 32 32" fill="none" xmlns="http://www.w3.org/2000/svg">
<path d="M30.2364 16.0002C30.2369 16.3329 30.1573 16.6603 30.0049 16.9519C29.8526 17.2435 29.6326 17.4897 29.3653 17.6677L18.8846 24.6877C18.5994 24.8795 18.2705 24.9872 17.9322 24.9997C17.5939 25.0121 17.2586 24.9288 16.9614 24.7584C16.6641 24.5881 16.4158 24.3369 16.2424 24.0311C16.0689 23.7254 15.9767 23.3762 15.9753 23.0202V18.3577L6.52498 24.6877C6.23978 24.8795 5.91086 24.9872 5.57256 24.9997C5.23426 25.0121 4.89899 24.9288 4.60175 24.7584C4.30451 24.5881 4.05621 24.3369 3.88276 24.0311C3.70932 23.7254 3.6171 23.3762 3.61572 23.0202V8.9802C3.6171 8.62415 3.70932 8.27503 3.88276 7.96927C4.05621 7.66351 4.30451 7.41233 4.60175 7.24197C4.89899 7.0716 5.23426 6.98828 5.57256 7.00073C5.91086 7.01317 6.23978 7.12091 6.52498 7.3127L15.9753 13.6427V8.9802C15.9767 8.62415 16.0689 8.27503 16.2424 7.96927C16.4158 7.66351 16.6641 7.41233 16.9614 7.24197C17.2586 7.0716 17.5939 6.98828 17.9322 7.00073C18.2705 7.01317 18.5994 7.12091 18.8846 7.3127L29.3653 14.3327C29.6326 14.5107 29.8526 14.7569 30.0049 15.0485C30.1573 15.3401 30.2369 15.6675 30.2364 16.0002Z" fill="white"/>
</svg>
