<svg width="105" height="77" viewBox="0 0 105 77" fill="none" xmlns="http://www.w3.org/2000/svg">
<ellipse cx="49.6364" cy="70.214" rx="29.7818" ry="6.25668" fill="black" fill-opacity="0.12"/>
<path d="M25.9239 42.2158C24.2229 42.6101 22.5219 43.2672 20.8209 43.3987C19.4844 43.5301 18.1479 43.3987 16.8114 43.7929C15.4749 44.1872 14.2599 45.2387 14.1384 46.6844C14.1384 48.1302 15.2319 49.3131 16.5684 49.7074C17.9049 49.9702 19.2414 49.5759 20.4564 49.0502C21.6714 48.5245 22.8864 47.7359 24.1014 47.473C26.2884 46.9473 28.4754 47.473 30.6624 48.1302C36.3729 49.5759 42.5694 50.7588 47.6724 47.8673C46.9434 46.8159 46.3359 45.5015 45.9714 44.3187C45.3639 42.2158 45.3639 39.9814 45.2424 37.7471C45.1209 35.5128 44.9994 33.2785 44.1489 31.307C43.2984 29.3355 41.7189 27.4955 39.6534 27.2326C37.5879 26.9697 35.4009 28.4155 35.2794 30.6498C35.1579 32.4899 36.3729 34.067 37.2234 35.6442C37.9524 37.09 38.5599 38.6671 38.6814 40.2443C38.6814 40.6386 38.8029 41.1643 38.4384 41.4272C38.1954 41.69 37.9524 41.69 37.5879 41.69C33.8214 42.2158 29.8119 41.4272 25.9239 42.2158Z" fill="#683F22"/>
<path d="M40.3825 67.9761C36.0085 67.0561 31.3915 66.7932 26.896 67.319C25.8025 67.4504 24.3445 67.9761 24.5875 69.159C24.709 70.2105 26.0455 70.4733 27.0175 70.6047C32.728 70.6047 38.317 70.7362 44.0275 70.7362C45.7285 70.7362 47.551 70.7362 49.009 69.8162C50.8315 68.6333 51.682 66.1361 51.5605 63.7703C51.439 61.4046 50.5885 59.3017 49.495 57.1988C48.523 55.2273 47.4295 53.1244 45.607 51.8101C42.934 49.7072 38.803 50.1015 36.4945 52.5987C35.7655 53.3873 35.158 54.3073 34.915 55.4902C34.5505 57.4616 35.5225 59.3017 36.4945 61.0103C37.831 63.376 39.046 65.7418 40.3825 67.9761Z" fill="#683F22"/>
<path d="M102.834 70.8676C97.4875 71.6561 92.02 71.3933 86.5525 70.999C77.3185 70.4733 68.0846 70.079 58.8506 69.9475C58.0001 69.9475 57.1496 69.9475 56.4206 69.5532C55.6916 69.2904 55.0841 68.5018 55.2056 67.8447C68.8136 65.6103 82.9075 67.9761 96.7585 67.7132C98.4595 67.7132 100.161 67.5818 101.862 67.8447C102.591 67.9761 103.32 68.1075 103.806 68.6332C104.292 69.159 104.413 69.9476 103.927 70.3418C103.684 70.7361 103.32 70.7361 102.834 70.8676Z" fill="#683F22"/>
<path d="M34.3075 33.8038C34.0645 31.5695 33.943 29.2038 35.0365 27.3637C35.401 26.838 35.7655 26.4437 36.2515 25.918C38.074 24.0779 40.1395 22.5008 42.448 21.1865C43.7845 20.3979 45.2425 19.8721 46.7005 19.7407C48.523 19.6093 50.3455 20.2664 52.0465 21.055C56.9065 23.4208 61.159 27.2323 63.9535 31.9638C66.748 36.8268 68.0845 42.7412 67.234 48.3927C66.6265 52.7299 64.804 56.6729 62.9815 60.4844C61.645 63.3759 60.43 66.1359 59.0935 69.0274C58.972 69.2903 58.8505 69.5531 58.729 69.6846C58.486 69.9474 58 69.9474 57.6355 69.9474C51.682 69.6846 45.85 69.4217 39.8965 69.1589C39.1675 69.1589 38.4385 69.1588 37.831 68.7646C36.859 68.2388 36.2515 67.1874 35.7655 66.1359C33.5785 61.6673 31.8775 56.6729 32.6065 51.6785C32.971 49.5756 33.7001 47.6041 34.0646 45.5012C34.9151 41.5583 34.672 37.6153 34.3075 33.8038Z" fill="#734D32"/>
<path d="M28.7185 43.793C27.0175 44.1873 25.3165 44.8445 23.6155 44.9759C22.279 45.1074 20.9425 44.9759 19.606 45.3702C18.2695 45.7645 17.0545 46.816 16.933 48.2617C16.933 49.7074 18.0265 50.8903 19.363 51.2846C20.6995 51.5475 22.036 51.1532 23.251 50.6275C24.466 50.1017 25.681 49.3132 26.896 49.0503C29.083 48.5246 31.27 49.0503 33.457 49.7075C39.1675 51.1532 45.364 52.3361 50.467 49.4446C49.738 48.3931 49.1305 47.0788 48.766 45.8959C48.1585 43.793 48.1585 41.5587 48.037 39.3244C47.9155 37.09 47.794 34.8557 46.9435 32.8843C46.093 30.9128 44.5135 29.0727 42.448 28.8099C40.3825 28.547 38.1955 29.9928 38.074 32.2271C37.9525 34.0671 39.1675 35.6443 40.018 37.2215C40.747 38.6672 41.3545 40.2444 41.476 41.8216C41.476 42.2159 41.5975 42.7416 41.233 43.0045C40.99 43.2673 40.747 43.2673 40.3825 43.2673C36.616 43.793 32.6065 43.0045 28.7185 43.793Z" fill="#826048"/>
<path d="M44.5135 69.5531C40.1395 68.6331 35.5225 68.3702 31.027 68.8959C29.9335 69.0274 28.4755 69.5531 28.7185 70.736C28.84 71.7874 30.1765 72.0503 31.1485 72.1817C36.859 72.1817 42.448 72.3131 48.1585 72.3131C49.8595 72.3131 51.682 72.3131 53.14 71.3931C54.9625 70.2102 55.813 67.713 55.6915 65.3473C55.57 62.9815 54.7195 60.8786 53.626 58.7757C52.654 56.8043 51.5605 54.7014 49.738 53.3871C47.065 51.2842 42.934 51.6784 40.6255 54.1756C39.8965 54.9642 39.289 55.8842 39.046 57.0671C38.6815 59.0386 39.6535 60.8786 40.6255 62.5872C42.0835 64.953 43.2985 67.1873 44.5135 69.5531Z" fill="#826048"/>
<path d="M49.738 16.455C48.8875 16.8493 47.9155 16.1922 47.551 15.4036C47.1865 14.7464 47.065 13.9578 46.336 13.4321C45.9715 13.1692 45.364 12.9064 45.4855 12.5121C45.4855 12.1178 46.093 11.8549 46.579 11.5921C47.794 10.8035 48.1585 9.48917 47.4295 8.56915C46.9435 7.91199 45.9715 7.64913 45.607 6.86054C45.2425 6.07195 46.2145 5.02051 47.308 4.62621C48.523 4.10049 49.981 3.96906 51.196 4.36336C52.411 4.62622 53.383 5.41481 53.7475 6.33482C53.9905 7.12341 53.9905 7.912 53.869 8.70059C53.5045 10.9349 52.411 13.1692 50.8315 15.535C50.467 15.9293 50.1025 16.3236 49.738 16.455Z" fill="#604939"/>
<path d="M27.9896 26.0496C28.5971 27.6267 29.4476 29.2039 30.9056 29.5982C32.4851 29.9925 34.0646 28.941 35.5226 28.021C36.8591 27.2324 38.1956 26.7067 39.6536 26.3124C41.5976 25.6553 43.5416 25.1295 44.9996 23.6838C46.5791 21.9752 47.0651 19.6094 47.4296 17.2437C47.7941 15.2722 48.1586 13.4321 48.1586 11.4607C48.1586 10.2778 48.0371 8.96348 48.1586 7.7806C48.2801 7.12344 48.4016 6.46629 48.2801 5.80913C48.0371 5.02055 47.4296 4.36339 46.8221 3.83766C44.8781 2.39192 42.5696 1.4719 40.3826 0.551884C39.5321 0.289022 38.6816 -0.105264 37.7096 0.0261676C36.9806 0.157599 36.2516 0.551888 35.5226 0.946182C33.2141 2.39193 31.0271 4.23196 29.0831 6.20343C28.4756 6.86059 27.9896 7.38631 27.5036 8.1749C26.5316 10.0149 26.7746 12.2493 27.1391 14.3522C27.5036 16.4551 28.1111 18.558 27.8681 20.5294C27.7466 21.5809 27.3821 22.5009 27.5036 23.5523C27.5036 24.6038 27.7466 25.261 27.9896 26.0496Z" fill="#826048"/>
<path d="M27.5035 16.4552C27.868 16.3238 28.354 16.3238 28.84 16.3238C31.27 16.1923 33.8215 16.1924 36.13 16.5867C38.803 16.981 40.99 18.0324 42.5695 20.5296C43.2985 21.7125 43.906 23.0268 44.2705 24.3411C42.934 25.3925 41.233 25.7868 39.6535 26.3126C38.1955 26.7069 36.859 27.2326 35.5225 28.0212C34.0645 28.8098 32.485 29.9926 30.9055 29.5983C29.4475 29.204 28.597 27.6269 27.9895 26.0497C27.7465 25.2611 27.5035 24.4725 27.382 23.6839C27.382 22.6325 27.625 21.7125 27.7465 20.661C27.9895 19.3467 27.868 17.901 27.5035 16.4552Z" fill="#7D5940"/>
<path d="M38.9245 26.5754C38.1955 25.6554 37.345 24.9983 36.2515 24.4725C33.457 22.8954 30.4195 23.4211 27.5035 24.2097C27.5035 24.0782 27.5035 23.9468 27.5035 23.8154C27.5035 22.7639 27.7465 21.8439 27.868 20.7925C27.9895 19.3467 27.868 17.901 27.5035 16.4552C27.868 16.3238 28.354 16.3238 28.84 16.3238C31.27 16.1923 33.8215 16.1924 36.13 16.5867C38.803 16.981 40.99 18.0324 42.5695 20.5296C43.2985 21.7125 43.906 23.0268 44.2705 24.3411C42.934 25.3925 41.233 25.7868 39.6535 26.3126C39.4105 26.444 39.1675 26.5754 38.9245 26.5754Z" fill="#7D5940"/>
<path d="M29.2044 24.998C30.9054 24.6038 32.7279 24.4723 34.3074 24.8666C34.4289 25.9181 34.9149 26.9695 35.2794 28.1524C33.9429 28.941 32.4849 29.9924 30.9054 29.5981C29.5689 29.2038 28.5969 27.7581 28.1109 26.3124C28.4754 25.9181 28.8399 25.3923 29.2044 24.998Z" fill="#826048"/>
<path d="M29.083 16.8496C29.4475 19.084 28.4755 21.4497 28.354 23.8155C28.354 24.2098 28.354 24.7355 28.4755 25.1298C28.597 25.5241 28.9615 25.9184 29.4475 25.9184C29.812 25.9184 30.298 25.5241 30.298 25.1298C31.756 26.5755 34.0645 27.1013 35.7655 26.0498C36.4945 25.6555 36.9805 24.8669 37.588 24.2098C38.1955 23.4212 38.803 22.764 39.4105 21.9754C39.532 21.844 39.6535 21.5811 39.775 21.4497C40.018 20.7926 39.532 20.1354 39.1675 19.6097C38.56 18.4268 38.56 16.981 39.046 15.7982C39.532 14.8781 40.261 13.9581 40.261 12.9067C40.261 11.8552 39.4105 11.0666 38.6815 10.5409C36.13 8.70088 32.971 7.38656 29.9335 8.43801C29.2045 8.70087 28.4755 9.09517 27.9895 9.75232C27.382 10.8038 27.5035 12.1181 27.868 13.301C28.2325 14.6153 28.84 15.6667 29.083 16.8496Z" fill="#997D69"/>
<path d="M30.9055 20.9239C30.4195 21.0553 29.9335 21.1867 29.569 20.7924C29.4475 20.5296 29.4475 20.2667 29.4475 20.0038C29.569 18.2952 30.298 16.7181 30.9055 15.1409C31.3915 13.5637 31.756 11.7237 31.027 10.1465C31.6345 10.1465 32.242 10.0151 32.8495 9.7522C31.999 12.3808 33.8215 15.1409 33.3355 17.7695C33.0925 19.0838 32.1205 20.3981 30.9055 20.9239Z" fill="#826048"/>
<path d="M32.1206 20.7923C31.9991 21.5809 31.1486 22.1067 30.4196 22.1067C30.4196 21.1866 31.2701 20.5295 31.9991 20.5295H32.1206C32.2421 20.6609 32.2421 20.7923 32.1206 20.7923Z" fill="#473129"/>
<path d="M28.9614 20.792C29.2044 20.5291 29.5689 20.792 29.6904 21.1863C29.8119 21.4491 29.6905 21.8434 29.812 22.1063C29.569 21.9748 29.326 21.8434 29.2045 21.5805C28.9615 21.3177 28.9614 21.0548 28.9614 20.792Z" fill="#473129"/>
<path d="M33.8215 12.6438C33.8215 12.6438 35.0365 9.09518 37.4665 12.6438C37.4665 12.6438 35.5225 15.7982 33.8215 12.6438Z" fill="#1D140F"/>
<path d="M28.1111 11.7238C28.1111 11.7238 29.8121 9.35805 31.0271 12.5124C31.0271 12.5124 29.2046 15.0096 28.1111 11.7238Z" fill="#1D140F"/>
<path d="M34.7935 12.512C34.7935 13.0377 35.1581 13.432 35.6441 13.432C36.1301 13.432 36.4946 13.0377 36.4946 12.512C36.4946 11.9863 36.1301 11.592 35.6441 11.592C35.1581 11.592 34.7935 11.9863 34.7935 12.512Z" fill="#826048"/>
<path d="M28.84 12.2491C28.84 12.7749 29.2045 13.0377 29.569 13.0377C30.055 13.0377 30.298 12.6434 30.298 12.2491C30.298 11.7234 29.9335 11.4605 29.569 11.4605C29.2045 11.3291 28.84 11.7234 28.84 12.2491Z" fill="#826048"/>
<path d="M35.644 12.9066C35.4427 12.9066 35.2795 12.7301 35.2795 12.5123C35.2795 12.2946 35.4427 12.118 35.644 12.118C35.8453 12.118 36.0085 12.2946 36.0085 12.5123C36.0085 12.7301 35.8453 12.9066 35.644 12.9066Z" fill="#1D140F"/>
<path d="M29.3259 12.2493C29.3259 12.3807 29.4474 12.6436 29.6904 12.6436C29.8119 12.6436 30.0549 12.5121 30.0549 12.2493C30.0549 12.1178 29.9334 11.855 29.6904 11.855C29.4474 11.855 29.3259 11.9864 29.3259 12.2493Z" fill="#1D140F"/>
<path d="M47.4295 4.62621C48.28 3.96906 50.5885 4.10048 51.682 4.49477C52.168 4.75764 52.654 5.15193 53.14 5.54623C51.196 5.80909 48.523 7.38628 48.28 9.35774C48.28 9.35774 47.9155 8.04342 47.6725 7.51769C47.1865 6.46624 46.579 5.15194 47.4295 4.62621Z" fill="#826048"/>
<path d="M16.5245 37.365C17.1094 36.8904 17.6944 36.2972 17.9869 35.5854C18.2793 34.8735 18.3159 33.9244 17.8406 33.2916C15.4277 34.7153 12.6127 35.3481 9.87077 35.0317C7.12885 34.7153 4.4966 33.4498 2.41274 31.4725C2.08371 31.8284 1.79124 32.2239 1.46221 32.5798C3.36327 33.608 4.20414 36.0204 5.73961 37.6023C7.16541 39.0655 9.17616 39.7378 11.1138 39.6192C13.0514 39.5006 14.9525 38.6701 16.5245 37.365Z" fill="#FFBD00"/>
<path d="M4.46007 34.7154C3.50954 33.9245 1.82782 32.1448 1.82782 32.1448C2.01062 31.9076 2.22997 31.7098 2.41277 31.4725C4.49663 33.4499 7.12887 34.7154 9.87079 35.0318C12.6127 35.3482 15.4278 34.755 17.8407 33.2917C17.9869 33.4894 18.0966 33.7267 18.1331 34.0036C12.8686 38.3142 7.53102 37.286 4.46007 34.7154Z" fill="#FFDB3D"/>
<path opacity="0.55" d="M6.65367 35.862C8.33538 36.0202 10.0537 35.9016 11.7719 35.9016C13.5268 35.9016 15.5375 35.8225 17.2923 35.4665C17.5848 35.427 17.8407 35.3479 18.0966 35.2688C18.0601 35.3874 18.0235 35.5061 17.9869 35.6247C17.6945 36.3366 17.1095 36.9298 16.5246 37.4043C14.9526 38.6699 13.088 39.5399 11.1504 39.6585C9.21279 39.7772 7.1655 39.1049 5.77626 37.6416C5.08164 36.9298 4.56982 36.0993 3.98487 35.2688C4.86229 35.5061 5.7397 35.7829 6.65367 35.862Z" fill="#EDBE28"/>
<path d="M18.316 40.0543C19.0106 39.5798 19.7052 39.0261 20.0708 38.2352C20.4364 37.4838 20.473 36.4555 19.9611 35.6646C17.1461 36.8906 13.8558 37.1278 10.7117 36.3764C7.60421 35.6251 4.71605 33.8454 2.59563 31.433C2.19349 31.789 1.79134 32.1053 1.38919 32.4613C3.39993 33.8454 4.09455 36.6137 5.70314 38.6306C7.20206 40.5289 9.54183 41.6362 11.8816 41.7944C14.1483 42.0317 16.4149 41.2803 18.316 40.0543Z" fill="#FFBD00"/>
<path d="M4.49675 35.2691C3.50966 34.2805 1.82794 32.1054 1.82794 32.1054C2.08385 31.9076 2.30321 31.6703 2.55912 31.4726C4.67954 33.885 7.5677 35.6251 10.6752 36.416C13.8193 37.2069 17.1096 36.9301 19.9246 35.7041C20.1074 35.9414 20.2171 36.2183 20.2537 36.4951C13.929 40.608 7.7505 38.5911 4.49675 35.2691Z" fill="#FFD428"/>
<path opacity="0.55" d="M3.14405 33.0941C4.93544 34.2014 6.14189 35.981 7.96984 37.0883C10.2365 38.4725 11.9913 38.6702 14.1483 39.0657C14.2214 39.0657 14.3311 39.1053 14.4042 39.1053C15.4279 39.2634 16.415 39.6194 17.2924 40.2126C17.402 40.2917 17.5117 40.3708 17.6214 40.4499C15.9031 41.4385 13.8924 41.9922 11.8451 41.834C9.50532 41.6758 7.20209 40.5685 5.66662 38.6702C4.09458 36.7324 3.43653 34.0828 1.57202 32.6591C2.12041 32.6986 2.7419 32.8568 3.14405 33.0941Z" fill="#EDBE28"/>
<path d="M15.3181 44.879C16.1589 44.6021 16.9998 44.2462 17.6579 43.6134C18.2794 42.9411 18.6815 41.9525 18.389 41.0429C15.1718 41.5174 11.8084 40.8451 8.92027 39.2237C6.03211 37.6023 3.65578 34.9921 2.15686 31.8284C1.68159 32.1052 1.16977 32.3425 0.694502 32.6193C2.37621 34.6362 2.33965 37.6814 3.39986 40.1333C4.38695 42.3875 6.32458 44.088 8.51812 44.879C10.6751 45.6303 13.088 45.5513 15.3181 44.879Z" fill="#FFBD00"/>
<path d="M3.10789 36.3765C2.37671 35.0714 1.24339 32.3427 1.24339 32.3427C1.53586 32.1845 1.86489 32.0263 2.15736 31.8681C3.65628 34.9923 6.03261 37.6024 8.92077 39.2634C11.8089 40.8849 15.1723 41.5572 18.3895 41.0826C18.4627 41.3594 18.4992 41.6758 18.4626 41.9922C10.8949 44.2068 5.44766 40.5685 3.10789 36.3765Z" fill="#FFDB3D"/>
<path d="M2.55902 31.4726C2.55902 31.4726 2.15688 32.5008 1.93753 32.5404C1.6085 32.5799 1.16979 32.5799 0.657962 32.6195L-0.000105381 30.9189L0.657962 30.1675L2.55902 31.4726Z" fill="#F0A33B"/>
<path opacity="0.44" d="M9.61946 51.0796C10.7162 51.0005 12.9098 51.396 14.1162 52.9779C14.7743 53.8479 12.2517 54.8366 13.0194 56.4976C10.8259 55.7067 8.88827 54.0061 7.90118 51.7519C7.82806 51.5938 7.7915 51.4356 7.71839 51.2774C8.33989 51.2378 8.99795 51.1192 9.61946 51.0796Z" fill="#F0A33B"/>
<path d="M6.14627 58.9103C8.15701 58.8708 10.0581 58.0798 10.5699 55.7861C10.7892 54.7579 10.6796 53.611 10.0946 52.741C9.25378 51.4755 7.7183 51.5941 6.4753 52.0291C5.52477 52.3455 2.34414 52.9783 1.7592 53.176C0.552752 53.611 0.260281 55.0347 0.662429 56.3002C0.954901 57.1703 1.61296 57.9217 2.27102 58.238C3.36779 58.6731 5.48821 58.9103 6.14627 58.9103Z" fill="#FAA736"/>
<path d="M10.0946 52.7013C9.25378 51.4358 7.7183 51.5544 6.4753 51.9894C5.52477 52.3058 2.34414 52.9386 1.7592 53.1363C1.10113 53.3736 0.735539 53.8877 0.589304 54.5205C3.66026 53.9273 7.06024 53.8482 8.41292 57.5656C8.52259 57.8029 8.55915 58.0797 8.55915 58.317C9.50968 57.8424 10.2409 57.0119 10.5333 55.7069C10.7893 54.7182 10.6796 53.5713 10.0946 52.7013Z" fill="#F96A33"/>
<path d="M12.0689 53.0574L10.3506 53.2156C10.3506 53.2156 9.58285 53.967 10.6431 54.7184L12.2151 53.5715C12.142 53.3343 12.142 53.2947 12.0689 53.0574Z" fill="#AA8740"/>
<path d="M6.47536 51.9892C7.71836 51.5937 9.21728 51.4355 10.0947 52.701C10.2044 52.8592 10.2775 53.0174 10.3506 53.2151L11.5571 53.0965C11.5936 53.2151 11.6667 53.3338 11.7398 53.4524C11.7764 53.492 11.0087 54.2038 9.21728 54.2829C8.52266 54.2829 7.82804 54.0456 7.31621 53.5711C7.20653 53.492 7.09686 53.3733 7.02374 53.2547C6.76783 52.9383 6.58503 52.4637 6.40224 51.9892C6.43879 51.9892 6.47536 51.9892 6.47536 51.9892Z" fill="#DBBE28"/>
<path d="M11.7032 53.3732C11.7032 53.3732 8.37639 54.4014 7.24306 50.9213C7.24306 50.9608 9.94842 49.5371 11.7032 53.3732Z" fill="#49A929"/>
</svg>
