<svg width="28" height="28" viewBox="0 0 28 28" fill="none" xmlns="http://www.w3.org/2000/svg">
<path d="M17.5 3.5H10.5C9.80381 3.5 9.13613 3.77656 8.64384 4.26884C8.15156 4.76113 7.875 5.42881 7.875 6.125V21.875C7.875 22.5712 8.15156 23.2389 8.64384 23.7312C9.13613 24.2234 9.80381 24.5 10.5 24.5H17.5C18.1962 24.5 18.8639 24.2234 19.3562 23.7312C19.8484 23.2389 20.125 22.5712 20.125 21.875V6.125C20.125 5.42881 19.8484 4.76113 19.3562 4.26884C18.8639 3.77656 18.1962 3.5 17.5 3.5ZM18.375 21.875C18.375 22.1071 18.2828 22.3296 18.1187 22.4937C17.9546 22.6578 17.7321 22.75 17.5 22.75H10.5C10.2679 22.75 10.0454 22.6578 9.88128 22.4937C9.71719 22.3296 9.625 22.1071 9.625 21.875V6.125C9.625 5.89294 9.71719 5.67038 9.88128 5.50628C10.0454 5.34219 10.2679 5.25 10.5 5.25H17.5C17.7321 5.25 17.9546 5.34219 18.1187 5.50628C18.2828 5.67038 18.375 5.89294 18.375 6.125V21.875ZM23.625 9.625V18.375C23.625 18.6071 23.5328 18.8296 23.3687 18.9937C23.2046 19.1578 22.9821 19.25 22.75 19.25C22.5179 19.25 22.2954 19.1578 22.1313 18.9937C21.9672 18.8296 21.875 18.6071 21.875 18.375V9.625C21.875 9.39294 21.9672 9.17038 22.1313 9.00628C22.2954 8.84219 22.5179 8.75 22.75 8.75C22.9821 8.75 23.2046 8.84219 23.3687 9.00628C23.5328 9.17038 23.625 9.39294 23.625 9.625ZM27.125 11.375V16.625C27.125 16.8571 27.0328 17.0796 26.8687 17.2437C26.7046 17.4078 26.4821 17.5 26.25 17.5C26.0179 17.5 25.7954 17.4078 25.6313 17.2437C25.4672 17.0796 25.375 16.8571 25.375 16.625V11.375C25.375 11.1429 25.4672 10.9204 25.6313 10.7563C25.7954 10.5922 26.0179 10.5 26.25 10.5C26.4821 10.5 26.7046 10.5922 26.8687 10.7563C27.0328 10.9204 27.125 11.1429 27.125 11.375ZM6.125 9.625V18.375C6.125 18.6071 6.03281 18.8296 5.86872 18.9937C5.70462 19.1578 5.48206 19.25 5.25 19.25C5.01794 19.25 4.79538 19.1578 4.63128 18.9937C4.46719 18.8296 4.375 18.6071 4.375 18.375V9.625C4.375 9.39294 4.46719 9.17038 4.63128 9.00628C4.79538 8.84219 5.01794 8.75 5.25 8.75C5.48206 8.75 5.70462 8.84219 5.86872 9.00628C6.03281 9.17038 6.125 9.39294 6.125 9.625ZM2.625 11.375V16.625C2.625 16.8571 2.53281 17.0796 2.36872 17.2437C2.20462 17.4078 1.98206 17.5 1.75 17.5C1.51794 17.5 1.29538 17.4078 1.13128 17.2437C0.967187 17.0796 0.875 16.8571 0.875 16.625V11.375C0.875 11.1429 0.967187 10.9204 1.13128 10.7563C1.29538 10.5922 1.51794 10.5 1.75 10.5C1.98206 10.5 2.20462 10.5922 2.36872 10.7563C2.53281 10.9204 2.625 11.1429 2.625 11.375Z" fill="#343330"/>
</svg>
