<svg width="28" height="28" viewBox="0 0 28 28" fill="none" xmlns="http://www.w3.org/2000/svg">
<path d="M23.0016 6.16219L14.2516 3.53719C14.1209 3.49797 13.9829 3.48984 13.8486 3.51344C13.7143 3.53705 13.5873 3.59173 13.4778 3.67312C13.3684 3.75452 13.2795 3.86037 13.2182 3.98224C13.157 4.1041 13.125 4.2386 13.125 4.375V16.2159C12.2289 15.4144 11.0849 14.9448 9.88407 14.8855C8.68329 14.8261 7.49852 15.1807 6.52777 15.89C5.55703 16.5993 4.85913 17.6202 4.5507 18.7822C4.24228 19.9442 4.34202 21.1769 4.83326 22.2742C5.3245 23.3715 6.17747 24.267 7.24962 24.8109C8.32178 25.3549 9.54814 25.5144 10.7238 25.2628C11.8994 25.0112 12.953 24.3637 13.7086 23.4285C14.4642 22.4934 14.8759 21.3272 14.875 20.125V5.55078L22.4984 7.83781C22.6093 7.87393 22.7263 7.88752 22.8425 7.87778C22.9587 7.86804 23.0718 7.83517 23.1751 7.7811C23.2784 7.72703 23.3699 7.65286 23.4442 7.56293C23.5184 7.47301 23.5739 7.36915 23.6075 7.25746C23.641 7.14578 23.6519 7.02851 23.6394 6.91256C23.627 6.79661 23.5915 6.68432 23.5351 6.58228C23.4786 6.48023 23.4024 6.39051 23.3107 6.31836C23.2191 6.24622 23.114 6.19312 23.0016 6.16219ZM9.625 23.625C8.93277 23.625 8.25608 23.4197 7.68051 23.0351C7.10493 22.6506 6.65633 22.1039 6.39142 21.4644C6.12652 20.8248 6.0572 20.1211 6.19225 19.4422C6.3273 18.7632 6.66064 18.1396 7.15013 17.6501C7.63961 17.1606 8.26325 16.8273 8.94219 16.6923C9.62112 16.5572 10.3249 16.6265 10.9644 16.8914C11.6039 17.1563 12.1506 17.6049 12.5351 18.1805C12.9197 18.7561 13.125 19.4328 13.125 20.125C13.125 21.0533 12.7563 21.9435 12.0999 22.5999C11.4435 23.2562 10.5533 23.625 9.625 23.625Z" fill="#343330"/>
</svg>
