<svg width="21" height="20" viewBox="0 0 21 20" fill="none" xmlns="http://www.w3.org/2000/svg">
<path fill-rule="evenodd" clip-rule="evenodd" d="M14.1775 0.000163447C14.8234 0.000163447 15.4683 0.0912677 16.0814 0.29702C19.8597 1.52539 21.2212 5.67115 20.0839 9.29484C19.439 11.1466 18.3846 12.8366 17.0038 14.2175C15.0271 16.1318 12.858 17.831 10.5231 19.2948L10.2672 19.4494L10.001 19.2846C7.65789 17.831 5.47651 16.1318 3.48143 14.2073C2.10975 12.8264 1.05437 11.1466 0.399238 9.29484C-0.757479 5.67115 0.603967 1.52539 4.42318 0.275523C4.72004 0.173159 5.0261 0.101504 5.3332 0.061582H5.45603C5.74368 0.0196127 6.02928 0.000163447 6.3159 0.000163447H6.4285C7.07339 0.0196127 7.69781 0.132213 8.30279 0.337966H8.36318C8.40413 0.357415 8.43484 0.378911 8.45531 0.398361C8.68153 0.471039 8.89548 0.552931 9.1002 0.665531L9.48919 0.839551C9.58318 0.88968 9.68868 0.966277 9.77986 1.03248C9.83763 1.07442 9.88965 1.11219 9.92936 1.13641C9.94606 1.14626 9.96304 1.15617 9.98016 1.16617C10.0679 1.2174 10.1594 1.27077 10.2364 1.32988C11.3737 0.460803 12.7546 -0.010073 14.1775 0.000163447ZM16.9004 7.37041C17.3201 7.35915 17.6784 7.02237 17.7091 6.59142V6.46961C17.7398 5.03548 16.8707 3.73648 15.5492 3.23489C15.1295 3.09056 14.6689 3.31678 14.5153 3.74671C14.372 4.17664 14.5972 4.64752 15.0272 4.80004C15.6833 5.04572 16.1225 5.69164 16.1225 6.40716V6.4389C16.103 6.67331 16.1736 6.89954 16.3169 7.07356C16.4603 7.24757 16.6752 7.34892 16.9004 7.37041Z" fill="#E74C3C"/>
</svg>
