<svg width="43" height="28" viewBox="0 0 43 28" fill="none" xmlns="http://www.w3.org/2000/svg">
<g filter="url(#filter0_d_356_16871)">
<path d="M22.2363 9.38275L18.5367 12.6115L19.645 17.4185C19.7036 17.6698 19.6869 17.9328 19.5969 18.1747C19.5068 18.4165 19.3475 18.6265 19.1388 18.7782C18.9301 18.93 18.6813 19.0169 18.4235 19.0281C18.1657 19.0392 17.9104 18.9742 17.6893 18.841L13.4967 16.298L9.31312 18.841C9.09211 18.9742 8.83673 19.0392 8.57892 19.0281C8.32112 19.0169 8.07231 18.93 7.86363 18.7782C7.65494 18.6265 7.49563 18.4165 7.40561 18.1747C7.31559 17.9328 7.29885 17.6698 7.3575 17.4185L8.4641 12.6164L4.76367 9.38275C4.56795 9.21395 4.42643 8.99112 4.35684 8.74221C4.28726 8.4933 4.29271 8.22938 4.37252 7.98355C4.45233 7.73773 4.60295 7.52094 4.80547 7.36037C5.008 7.1998 5.25343 7.1026 5.51098 7.08096L10.3886 6.6585L12.2925 2.11725C12.3919 1.87896 12.5596 1.67542 12.7745 1.53225C12.9894 1.38908 13.2418 1.31268 13.5 1.31268C13.7582 1.31268 14.0106 1.38908 14.2255 1.53225C14.4404 1.67542 14.6081 1.87896 14.7075 2.11725L16.6172 6.6585L21.4931 7.08096C21.7507 7.1026 21.9961 7.1998 22.1986 7.36037C22.4012 7.52094 22.5518 7.73773 22.6316 7.98355C22.7114 8.22938 22.7168 8.4933 22.6473 8.74221C22.5777 8.99112 22.4361 9.21395 22.2404 9.38275H22.2363Z" fill="#FFDF26"/>
</g>
<g filter="url(#filter1_d_356_16871)">
<path d="M30.2363 9.38275L26.5367 12.6115L27.645 17.4185C27.7036 17.6698 27.6869 17.9328 27.5969 18.1747C27.5068 18.4165 27.3475 18.6265 27.1388 18.7782C26.9301 18.93 26.6813 19.0169 26.4235 19.0281C26.1657 19.0392 25.9104 18.9742 25.6893 18.841L21.4967 16.298L17.3131 18.841C17.0921 18.9742 16.8367 19.0392 16.5789 19.0281C16.3211 19.0169 16.0723 18.93 15.8636 18.7782C15.6549 18.6265 15.4956 18.4165 15.4056 18.1747C15.3156 17.9328 15.2989 17.6698 15.3575 17.4185L16.4641 12.6164L12.7637 9.38275C12.568 9.21395 12.4264 8.99112 12.3568 8.74221C12.2873 8.4933 12.2927 8.22938 12.3725 7.98355C12.4523 7.73773 12.6029 7.52094 12.8055 7.36037C13.008 7.1998 13.2534 7.1026 13.511 7.08096L18.3886 6.6585L20.2925 2.11725C20.3919 1.87896 20.5596 1.67542 20.7745 1.53225C20.9894 1.38908 21.2418 1.31268 21.5 1.31268C21.7582 1.31268 22.0106 1.38908 22.2255 1.53225C22.4404 1.67542 22.6081 1.87896 22.7075 2.11725L24.6172 6.6585L29.4931 7.08096C29.7507 7.1026 29.9961 7.1998 30.1986 7.36037C30.4012 7.52094 30.5518 7.73773 30.6316 7.98355C30.7114 8.22938 30.7168 8.4933 30.6473 8.74221C30.5777 8.99112 30.4361 9.21395 30.2404 9.38275H30.2363Z" fill="#FFDF26"/>
</g>
<g filter="url(#filter2_d_356_16871)">
<path d="M38.2363 9.38275L34.5367 12.6115L35.645 17.4185C35.7036 17.6698 35.6869 17.9328 35.5969 18.1747C35.5068 18.4165 35.3475 18.6265 35.1388 18.7782C34.9301 18.93 34.6813 19.0169 34.4235 19.0281C34.1657 19.0392 33.9104 18.9742 33.6893 18.841L29.4967 16.298L25.3131 18.841C25.0921 18.9742 24.8367 19.0392 24.5789 19.0281C24.3211 19.0169 24.0723 18.93 23.8636 18.7782C23.6549 18.6265 23.4956 18.4165 23.4056 18.1747C23.3156 17.9328 23.2989 17.6698 23.3575 17.4185L24.4641 12.6164L20.7637 9.38275C20.568 9.21395 20.4264 8.99112 20.3568 8.74221C20.2873 8.4933 20.2927 8.22938 20.3725 7.98355C20.4523 7.73773 20.6029 7.52094 20.8055 7.36037C21.008 7.1998 21.2534 7.1026 21.511 7.08096L26.3886 6.6585L28.2925 2.11725C28.3919 1.87896 28.5596 1.67542 28.7745 1.53225C28.9894 1.38908 29.2418 1.31268 29.5 1.31268C29.7582 1.31268 30.0106 1.38908 30.2255 1.53225C30.4404 1.67542 30.6081 1.87896 30.7075 2.11725L32.6172 6.6585L37.4931 7.08096C37.7507 7.1026 37.9961 7.1998 38.1986 7.36037C38.4012 7.52094 38.5518 7.73773 38.6316 7.98355C38.7114 8.22938 38.7168 8.4933 38.6473 8.74221C38.5777 8.99112 38.4361 9.21395 38.2404 9.38275H38.2363Z" fill="#FFDF26"/>
</g>
<defs>
<filter id="filter0_d_356_16871" x="-1" y="0" width="29" height="29" filterUnits="userSpaceOnUse" color-interpolation-filters="sRGB">
<feFlood flood-opacity="0" result="BackgroundImageFix"/>
<feColorMatrix in="SourceAlpha" type="matrix" values="0 0 0 0 0 0 0 0 0 0 0 0 0 0 0 0 0 0 127 0" result="hardAlpha"/>
<feOffset dy="4"/>
<feGaussianBlur stdDeviation="2"/>
<feComposite in2="hardAlpha" operator="out"/>
<feColorMatrix type="matrix" values="0 0 0 0 0 0 0 0 0 0 0 0 0 0 0 0 0 0 0.25 0"/>
<feBlend mode="normal" in2="BackgroundImageFix" result="effect1_dropShadow_356_16871"/>
<feBlend mode="normal" in="SourceGraphic" in2="effect1_dropShadow_356_16871" result="shape"/>
</filter>
<filter id="filter1_d_356_16871" x="7" y="0" width="29" height="29" filterUnits="userSpaceOnUse" color-interpolation-filters="sRGB">
<feFlood flood-opacity="0" result="BackgroundImageFix"/>
<feColorMatrix in="SourceAlpha" type="matrix" values="0 0 0 0 0 0 0 0 0 0 0 0 0 0 0 0 0 0 127 0" result="hardAlpha"/>
<feOffset dy="4"/>
<feGaussianBlur stdDeviation="2"/>
<feComposite in2="hardAlpha" operator="out"/>
<feColorMatrix type="matrix" values="0 0 0 0 0 0 0 0 0 0 0 0 0 0 0 0 0 0 0.25 0"/>
<feBlend mode="normal" in2="BackgroundImageFix" result="effect1_dropShadow_356_16871"/>
<feBlend mode="normal" in="SourceGraphic" in2="effect1_dropShadow_356_16871" result="shape"/>
</filter>
<filter id="filter2_d_356_16871" x="15" y="0" width="29" height="29" filterUnits="userSpaceOnUse" color-interpolation-filters="sRGB">
<feFlood flood-opacity="0" result="BackgroundImageFix"/>
<feColorMatrix in="SourceAlpha" type="matrix" values="0 0 0 0 0 0 0 0 0 0 0 0 0 0 0 0 0 0 127 0" result="hardAlpha"/>
<feOffset dy="4"/>
<feGaussianBlur stdDeviation="2"/>
<feComposite in2="hardAlpha" operator="out"/>
<feColorMatrix type="matrix" values="0 0 0 0 0 0 0 0 0 0 0 0 0 0 0 0 0 0 0.25 0"/>
<feBlend mode="normal" in2="BackgroundImageFix" result="effect1_dropShadow_356_16871"/>
<feBlend mode="normal" in="SourceGraphic" in2="effect1_dropShadow_356_16871" result="shape"/>
</filter>
</defs>
</svg>
