<svg width="17" height="19" viewBox="0 0 17 19" fill="none" xmlns="http://www.w3.org/2000/svg">
<path d="M15.7821 10.3199L9.40711 17.0862C9.33281 17.1651 9.23811 17.2189 9.13501 17.2407C9.0319 17.2625 8.92502 17.2513 8.82789 17.2086C8.73077 17.1659 8.64777 17.0936 8.5894 17.0007C8.53103 16.9079 8.49992 16.7988 8.5 16.6872V13.868H3.1875C2.90571 13.868 2.63546 13.7491 2.4362 13.5377C2.23694 13.3262 2.125 13.0393 2.125 12.7402V7.10165C2.125 6.80256 2.23694 6.51572 2.4362 6.30423C2.63546 6.09274 2.90571 5.97393 3.1875 5.97393H8.5V3.15463C8.49992 3.04305 8.53103 2.93395 8.5894 2.84114C8.64777 2.74833 8.73077 2.67599 8.82789 2.63328C8.92502 2.59056 9.0319 2.5794 9.13501 2.60119C9.23811 2.62298 9.33281 2.67676 9.40711 2.7557L15.7821 9.52201C15.8315 9.57438 15.8707 9.63657 15.8974 9.70502C15.9242 9.77347 15.9379 9.84684 15.9379 9.92094C15.9379 9.99504 15.9242 10.0684 15.8974 10.1369C15.8707 10.2053 15.8315 10.2675 15.7821 10.3199Z" fill="white"/>
</svg>
