<svg width="224" height="203" viewBox="0 0 224 203" fill="none" xmlns="http://www.w3.org/2000/svg">
<g filter="url(#filter0_d_356_13839)">
<path d="M87.3709 161.647C86.9292 162.658 86.4263 163.655 85.7214 164.596C85.3666 165.067 84.9531 165.52 84.4197 165.925C84.2905 166.028 84.1377 166.118 83.992 166.212C83.8417 166.304 83.6701 166.381 83.5056 166.464C83.3294 166.534 83.1438 166.598 82.9511 166.654C82.749 166.692 82.5493 166.746 82.3355 166.758C81.9078 166.793 81.459 166.748 81.0455 166.635C80.6296 166.525 80.249 166.358 79.9106 166.167C79.2292 165.782 78.6793 165.314 78.2024 164.836C77.2507 163.872 76.5435 162.844 75.8973 161.812C75.2558 160.779 74.7013 159.728 74.2008 158.667C73.698 157.609 73.2374 156.541 72.8051 155.468C71.9639 153.321 71.2308 151.155 70.5846 148.975C69.4661 140.056 69.0596 131.246 69.5319 122.307C69.6541 120.072 69.8374 117.831 70.1123 115.571C70.3896 113.311 70.7491 111.034 71.2942 108.706C71.5715 107.539 71.8887 106.363 72.3069 105.149C72.7299 103.936 73.2257 102.694 73.9917 101.37C74.3817 100.707 74.8305 100.025 75.4508 99.3167C75.7587 98.9663 76.1135 98.6088 76.52 98.2631C76.9382 97.915 77.4011 97.5763 77.9533 97.2752C78.5031 96.9766 79.1211 96.7178 79.7884 96.5462C80.4557 96.3792 81.1371 96.2992 81.788 96.3016C82.4318 96.3086 83.0404 96.3886 83.5949 96.5156C84.1401 96.6449 84.65 96.8096 85.1035 96.9977C86.0151 97.374 86.76 97.8232 87.4203 98.2842C88.0758 98.7475 88.6562 99.2297 89.1802 99.7259C90.2352 100.723 91.1046 101.742 91.9293 102.92C92.1385 103.214 92.3405 103.541 92.5309 103.868L92.8175 104.359C92.9115 104.524 92.9891 104.693 93.076 104.86C93.2428 105.196 93.4144 105.533 93.5483 105.876C93.6869 106.22 93.8397 106.561 93.9477 106.909C94.4318 108.292 94.7349 109.693 94.8923 111.067C95.1931 113.816 94.9816 116.462 94.4717 118.96C94.2133 120.209 93.882 121.429 93.4919 122.617C93.0924 123.802 92.6319 124.957 92.1197 126.086C91.0858 128.335 89.8358 130.47 88.3648 132.464C87.6364 133.466 86.8352 134.424 85.9916 135.348C85.1434 136.277 84.2481 137.145 83.2542 137.984C82.2673 138.845 81.2029 139.584 80.1244 140.285C79.5746 140.611 79.0318 140.96 78.4655 141.249C78.1836 141.399 77.9039 141.552 77.622 141.696L76.7643 142.105C76.48 142.246 76.1887 142.368 75.8973 142.491L75.0232 142.855L74.1397 143.182L73.698 143.344L73.2515 143.488L72.3563 143.772L71.454 144.019C70.8525 144.193 70.2415 144.311 69.6353 144.454C64.762 145.445 59.7125 145.449 54.7852 144.252C53.5539 143.965 52.3344 143.565 51.1314 143.114C50.5322 142.872 49.933 142.636 49.3479 142.35C48.7558 142.086 48.1801 141.769 47.6045 141.458C46.4672 140.8 45.3464 140.087 44.3055 139.233L43.9107 138.92L43.5301 138.586C43.2787 138.361 43.0225 138.142 42.7782 137.909C42.2988 137.427 41.8124 136.957 41.3683 136.434C39.5614 134.384 38.1445 131.919 37.2493 129.393C36.34 126.862 35.9076 124.308 35.7149 121.871C35.5246 119.43 35.5622 117.085 35.675 114.816C35.7032 114.247 35.7384 113.687 35.776 113.127C35.8136 112.57 35.863 112.015 35.8747 111.462C35.8959 110.909 35.8888 110.357 35.9241 109.813C35.9593 109.268 36.0486 108.731 36.1802 108.2C36.4504 107.149 36.723 106.053 37.0284 104.933C37.3292 103.818 37.6652 102.675 38.067 101.542C38.4571 100.408 38.9434 99.272 39.4674 98.1643C40.0196 97.0542 40.6352 95.9746 41.373 94.9633C42.8158 92.9289 44.7237 91.2214 46.8056 90.0784C48.9062 88.9472 51.1666 88.3615 53.3636 88.2675C51.4133 89.2882 49.7215 90.6052 48.4621 92.1599C48.307 92.3574 48.1613 92.5597 48.0133 92.7572C47.87 92.9572 47.7126 93.1406 47.5927 93.357L47.2144 93.9755C47.1486 94.0743 47.0922 94.1825 47.0405 94.2907L46.8808 94.6129C46.6575 95.0292 46.4884 95.4784 46.3098 95.9111C46.2628 96.017 46.2252 96.1275 46.1899 96.2428L46.0819 96.5791C46.0137 96.8049 45.9291 97.0165 45.8821 97.2517L45.7153 97.9338C45.6589 98.1572 45.6284 98.3995 45.5837 98.6276C45.4874 99.0815 45.4404 99.5637 45.3746 100.025C45.2853 100.977 45.2242 101.923 45.236 102.906C45.2383 103.884 45.2618 104.87 45.3252 105.893C45.3816 106.909 45.4615 107.955 45.5391 109.044C45.5743 109.585 45.5673 110.119 45.5085 110.643C45.4521 111.17 45.3558 111.688 45.29 112.207C45.2172 112.725 45.1866 113.245 45.1514 113.757C45.1185 114.27 45.0856 114.783 45.0597 115.288C44.9587 117.311 44.9375 119.277 45.0832 121.124C45.2289 122.97 45.5461 124.691 46.0936 126.211C46.6411 127.732 47.4094 129.059 48.441 130.237C48.69 130.538 48.9861 130.806 49.2587 131.093C49.402 131.23 49.5571 131.359 49.7051 131.493L49.9283 131.693L50.168 131.879C50.786 132.396 51.4909 132.831 52.2075 133.255C52.5788 133.45 52.9407 133.659 53.3331 133.829C53.7114 134.019 54.1132 134.17 54.5103 134.334C55.3186 134.633 56.1457 134.913 57.0056 135.108C58.7162 135.538 60.5161 135.734 62.323 135.762C64.1323 135.781 65.951 135.597 67.7227 135.237C71.2519 134.492 74.612 133.003 77.1708 130.806C77.8194 130.261 78.4726 129.633 79.0717 128.972C79.6756 128.309 80.2607 127.617 80.7941 126.879C81.8749 125.413 82.8078 123.819 83.5691 122.163C83.945 121.333 84.2787 120.489 84.5701 119.637C84.8497 118.783 85.0823 117.925 85.2585 117.069C85.611 115.359 85.7167 113.663 85.5499 112.135C85.463 111.373 85.3008 110.66 85.0729 110.016C85.0259 109.846 84.9507 109.7 84.8896 109.545C84.8332 109.385 84.7533 109.244 84.6828 109.101C84.6453 109.03 84.6147 108.952 84.5748 108.884L84.4526 108.682C84.375 108.543 84.2998 108.412 84.1941 108.268C83.79 107.685 83.2542 107.059 82.7467 106.584C82.4906 106.342 82.2392 106.14 82.0183 105.982C81.7998 105.827 81.6118 105.73 81.5295 105.697C81.4872 105.679 81.4825 105.686 81.506 105.686C81.5366 105.695 81.6118 105.709 81.7175 105.707C81.9384 105.723 82.3214 105.615 82.4647 105.523C82.5446 105.476 82.5728 105.46 82.5752 105.45C82.5752 105.453 82.547 105.476 82.5 105.528C82.4083 105.629 82.2556 105.843 82.1029 106.107C81.788 106.643 81.4637 107.398 81.1841 108.216C80.8998 109.037 80.6531 109.936 80.4346 110.862C79.9975 112.72 79.6803 114.698 79.4336 116.704C79.1892 118.713 79.0201 120.759 78.9073 122.819C78.684 126.94 78.6746 131.11 78.8415 135.268C78.9261 137.347 79.0553 139.424 79.2339 141.489L79.3772 143.036C79.4242 143.551 79.4853 144.064 79.5746 144.574C79.6592 145.085 79.7696 145.59 79.8471 146.098C79.9317 146.606 79.9717 147.117 79.9787 147.634C79.9411 149.709 79.9388 151.785 80.0445 153.831C80.1221 155.882 80.3218 157.912 80.6695 159.827C80.8481 160.779 81.0948 161.694 81.4074 162.472C81.5601 162.863 81.7387 163.204 81.9149 163.467C82.0042 163.601 82.0888 163.709 82.1734 163.799C82.258 163.891 82.3402 163.956 82.4483 164.018C82.6597 164.149 83.031 164.17 83.4493 164.074C83.8699 163.98 84.3186 163.78 84.7674 163.538C85.2139 163.293 85.6533 162.995 86.0856 162.672C86.5203 162.355 86.9456 162.009 87.3615 161.647H87.3709Z" fill="#84B604"/>
<path d="M67.1611 153.624C61.5171 161.388 52.4331 169.443 43.2904 172.682C24.2202 176.755 12.5187 166.042 7.42216 148.408C5.30507 141.183 4.40044 134.007 3.68377 126.679C1.78991 109.771 4.03388 92.5854 7.93205 76.1314C11.2216 62.321 15.3689 48.6165 19.4362 35.0836C20.3221 31.8756 21.3418 28.8723 21.652 25.6831C21.652 25.5843 21.6614 25.469 21.652 25.3844L21.6379 25.121C21.6332 25.0363 21.6167 24.9799 21.612 24.9093C21.612 24.8293 21.5979 24.7988 21.5909 24.7611C21.5862 24.74 21.5909 24.7141 21.5862 24.6976C21.5862 24.6976 21.5909 24.6953 21.5979 24.6929C21.6073 24.7329 21.6308 24.7823 21.6637 24.8199C21.699 24.914 21.753 24.994 21.8141 25.0716C22.1149 25.542 22.6177 25.9512 23.1417 26.1558C23.5952 26.3369 23.9852 26.3534 24.185 26.3157C24.3941 26.2805 24.4458 26.2146 24.4176 26.177C24.387 26.1393 24.2837 26.1182 24.145 26.1276C23.3931 26.224 22.4509 26.5603 21.6731 26.9366C19.7041 27.8468 17.7468 29.0722 15.8788 30.2834C12.0017 32.8423 8.18346 35.7045 4.32759 38.555C6.80654 34.4016 9.44996 30.4033 12.4388 26.5697C14.4407 24.0485 16.5132 21.579 19.1331 19.5822C21.3465 17.8653 24.5092 16.6659 27.3289 18.0253C29.3332 18.9519 30.7242 20.9581 31.072 23.1171C31.2905 24.2578 31.1847 25.5984 31.0579 26.5345C30.6044 30.3634 29.4859 34.1687 28.4497 37.7366C24.3894 51.253 20.3432 64.6047 17.0795 78.2787C13.4092 93.846 11.2498 109.806 13.0356 125.766C13.6841 132.478 14.5629 139.398 16.4333 145.743C18.5433 153.083 22.7094 161.284 30.4164 163.448C33.5227 164.354 37.1178 164.396 40.2852 163.458C40.7786 163.331 41.2744 163.255 41.7796 163.173C44.0917 162.957 46.5495 162.411 48.9039 161.76C55.3256 159.876 61.3785 157.018 67.1564 153.622L67.1611 153.624Z" fill="#84B604"/>
<path d="M38.1398 85.05C33.2736 87.4912 25.1788 89.5727 23.7855 82.1477C23.1135 77.8131 24.918 73.281 27.2701 69.7931C28.1089 68.5913 29.0324 67.4342 30.1414 66.4417C32.0212 64.8494 34.3756 63.9534 36.7864 63.4124C45.4333 61.6767 51.4274 69.6262 59.3553 70.3788C61.1012 70.5787 63.0232 70.487 64.7174 70.1107C67.4642 69.5674 70.0183 67.7564 72.5959 66.1477C76.0101 63.951 80.1221 62.3447 84.2105 61.9119C91.9176 61.1617 100.635 62.935 107.282 67.0297C111.185 69.4215 114.32 72.479 116.068 76.7595C117.637 80.4802 118.178 84.6337 118.472 88.432C118.822 93.2628 118.796 97.9784 118.747 102.762C118.552 113.818 118.197 126.667 117.929 137.796C117.783 139.885 117.536 142.251 116.646 144.41C113.746 151.43 106.197 151.087 100.769 147.223C99.446 146.298 98.149 145.339 97.1809 143.998C96.1471 142.535 95.4609 140.847 95.1367 139.017C94.373 134.118 96.7744 131.549 99.8056 128.445C101.295 126.869 102.543 125.244 103.544 123.313C105.132 120.289 105.974 117.036 106.307 113.55C107.701 118.059 107.867 123.214 106.267 128.191C105.872 129.43 105.372 130.646 104.825 131.785C104.322 132.994 102.637 135.661 103.206 136.488L103.504 136.867C103.795 137.243 104.27 137.646 104.66 138.008C105.139 138.478 105.576 139.106 106.15 139.506C106.7 139.901 107.346 140.23 107.95 140.426C108.215 140.51 108.443 140.548 108.563 140.555C108.683 140.564 108.676 140.536 108.485 140.595C108.328 140.644 107.997 140.837 107.905 140.969C108.269 140.12 108.469 138.589 108.549 137.211C108.69 133.005 108.899 121.004 109.047 116.502C109.216 109.58 109.435 102.687 109.362 95.8029C109.289 91.5483 109.16 87.0067 108.234 82.9991C107.731 80.9059 106.979 79.0056 105.527 77.498C103.159 75.1908 100.243 73.6667 97.0611 72.6295C94.2297 71.717 91.1281 71.2278 88.1228 71.1478C85.3361 71.0467 82.6174 71.543 80.1103 72.726C77.0087 74.2265 74.2572 76.5243 70.9182 77.9378C66.9731 79.6712 62.5556 80.1933 58.298 79.7276C55.5347 79.4242 52.7809 78.6104 50.2784 77.5145C47.8347 76.4537 45.6706 75.1814 43.7791 74.1818C42.2636 73.3986 40.7786 72.639 39.3241 72.5825C37.9942 72.4931 36.9979 73.4598 35.8935 74.0854C34.2981 74.8921 32.8389 76.0022 31.6358 77.3663C30.3153 78.8198 29.0277 80.7718 28.882 82.6557C28.8467 83.3048 29.3402 83.6365 29.9511 83.9775C32.4277 85.1182 35.4142 85.0899 38.1398 85.05Z" fill="#84B604"/>
<path d="M130.927 97.8373C132.448 96.873 134.055 96.0381 135.81 95.3631C137.572 94.7257 139.478 94.1801 141.788 94.3471C142.363 94.3941 142.965 94.4882 143.585 94.6716C144.201 94.8574 144.831 95.1256 145.439 95.4901C145.59 95.5842 145.742 95.6806 145.89 95.7817C146.036 95.8876 146.182 95.9981 146.325 96.1087C146.567 96.2968 146.746 96.4168 146.978 96.6167C147.089 96.7084 147.197 96.7954 147.319 96.9107C147.439 97.0236 147.549 97.12 147.681 97.2658C147.808 97.4022 147.93 97.5292 148.071 97.7174C148.139 97.8044 148.205 97.8891 148.273 97.9831C148.346 98.0913 148.416 98.2042 148.484 98.3171L148.585 98.4888L148.689 98.6958C148.755 98.8369 148.818 98.9709 148.877 99.1238C148.992 99.4484 149.093 99.7753 149.152 100.137C149.185 100.316 149.208 100.495 149.218 100.664C149.229 100.834 149.239 101.017 149.236 101.177C149.234 101.332 149.227 101.487 149.215 101.643L149.206 101.758L149.194 101.857L149.171 102.054C149.133 102.337 149.095 102.529 149.051 102.748L148.99 103.028L148.928 103.291L148.729 104.119C148.611 104.601 148.527 104.992 148.452 105.387C148.372 105.775 148.325 106.151 148.254 106.523C148.181 106.89 148.083 107.243 147.946 107.588C147.815 107.936 147.653 108.275 147.519 108.63C147.378 108.983 147.267 109.348 147.173 109.721C147.075 110.093 146.981 110.469 146.891 110.85C146.797 111.229 146.72 111.617 146.635 112C146.56 112.391 146.478 112.779 146.405 113.172L146.299 113.764L146.245 114.061L146.193 114.374L146.09 114.997L146.001 115.55C145.907 116.199 145.836 116.989 145.782 117.777C145.728 118.572 145.688 119.39 145.66 120.216C145.601 121.867 145.58 123.546 145.585 125.223C145.599 128.577 145.702 131.968 145.966 135.221C146.034 136.03 146.114 136.83 146.212 137.58C146.262 137.954 146.316 138.318 146.374 138.648C146.431 138.972 146.501 139.28 146.544 139.417C146.558 139.48 146.586 139.515 146.487 139.301L146.442 139.214C146.417 139.163 146.388 139.113 146.358 139.064C146.323 139.007 146.177 138.775 146.034 138.612L145.886 138.445C145.815 138.37 145.742 138.297 145.667 138.227C145.5 138.078 145.406 137.994 145.063 137.763C144.915 137.669 144.76 137.582 144.6 137.507C144.434 137.429 144.307 137.378 144.05 137.291C143.82 137.215 143.578 137.159 143.336 137.124C143.085 137.088 142.869 137.079 142.594 137.081C142.323 137.086 142.049 137.116 141.783 137.173C141.508 137.232 141.266 137.309 141.043 137.394C140.813 137.483 140.587 137.596 140.378 137.726C140.143 137.876 140.058 137.935 139.903 138.055C139.767 138.163 139.638 138.283 139.516 138.408C139.384 138.546 139.353 138.579 139.274 138.676C139.205 138.758 139.14 138.843 139.079 138.932L138.945 139.137C138.879 139.24 138.82 139.351 138.766 139.461C138.733 139.525 138.705 139.586 138.679 139.649L138.623 139.795C138.611 139.828 138.599 139.863 138.587 139.899C138.573 139.946 138.566 139.965 138.559 140C138.557 140.007 138.555 140.012 138.555 140.019L138.571 139.929C138.585 139.831 138.606 139.692 138.623 139.525L138.674 138.991L138.764 137.773C138.879 136.063 139.001 134.205 139.266 132.281C139.4 131.317 139.567 130.329 139.805 129.306C140.042 128.285 140.343 127.229 140.791 126.121C141.243 125.018 141.832 123.849 142.765 122.685C143.233 122.107 143.79 121.533 144.448 121.02C145.106 120.507 145.86 120.056 146.666 119.729C147.469 119.385 148.32 119.19 149.14 119.082C149.967 118.979 150.742 119 151.48 119.066C152.935 119.226 154.161 119.609 155.254 120.042C156.344 120.481 157.298 120.987 158.196 121.512C159.089 122.038 159.918 122.586 160.71 123.149C162.289 124.273 163.722 125.439 165.109 126.615C167.862 128.962 170.405 131.361 172.917 133.572C174.169 134.673 175.414 135.736 176.62 136.632C177.219 137.079 177.809 137.479 178.337 137.789C178.603 137.949 178.845 138.069 179.054 138.168C179.261 138.262 179.414 138.309 179.479 138.328C179.543 138.349 179.463 138.304 179.204 138.328C179.172 138.328 179.15 138.339 179.106 138.342C179.063 138.344 179.024 138.351 178.984 138.361C178.941 138.37 178.906 138.384 178.861 138.394C178.814 138.403 178.767 138.417 178.72 138.434C178.673 138.45 178.631 138.471 178.587 138.49C178.54 138.506 178.493 138.525 178.448 138.549C178.403 138.572 178.359 138.598 178.319 138.626C178.279 138.645 178.239 138.666 178.201 138.69C178.164 138.713 178.128 138.742 178.095 138.77L178.046 138.815L178.008 138.84C177.959 138.876 177.914 138.92 177.879 138.97C177.846 139.007 177.83 139.012 177.811 139.043C177.802 139.054 177.795 139.069 177.79 139.083C177.785 139.087 177.785 139.083 177.783 139.083C177.783 139.083 177.783 139.083 177.785 139.085C177.792 139.071 177.802 139.043 177.811 139.024C177.832 139 177.863 138.902 177.896 138.824C178.032 138.474 178.18 137.869 178.286 137.213C178.391 136.55 178.476 135.823 178.528 135.059C178.641 133.537 178.657 131.905 178.643 130.261C178.626 128.612 178.568 126.933 178.488 125.242C178.408 123.551 178.309 121.848 178.201 120.138L178.117 118.854C178.088 118.426 178.067 117.995 178.006 117.57C177.954 117.142 177.87 116.716 177.83 116.288C177.788 115.86 177.797 115.427 177.851 114.99L178.525 109.738C178.648 108.844 178.772 107.927 178.925 106.996C179.073 106.064 179.256 105.121 179.501 104.162C179.747 103.204 180.034 102.224 180.511 101.217C180.753 100.714 181.042 100.199 181.453 99.6953C181.651 99.446 181.902 99.1967 182.179 98.9756C182.468 98.7569 182.79 98.557 183.15 98.437C183.502 98.3053 183.873 98.2607 184.216 98.2607C184.386 98.2654 184.55 98.2865 184.71 98.3077C184.86 98.343 185.015 98.3712 185.154 98.4206C185.715 98.6064 186.16 98.8816 186.547 99.185C187.32 99.7917 187.898 100.497 188.425 101.222C188.016 101.041 187.602 100.876 187.189 100.74C186.778 100.601 186.366 100.488 185.969 100.427C185.575 100.368 185.194 100.354 184.895 100.422C184.59 100.486 184.43 100.648 184.379 100.794C184.324 100.935 184.303 101.104 184.275 101.351C184.249 101.593 184.242 101.899 184.259 102.231C184.294 102.899 184.393 103.649 184.552 104.418C184.874 105.963 185.316 107.558 185.807 109.218L187.224 114.324C187.339 114.75 187.41 115.183 187.426 115.615C187.447 116.05 187.424 116.488 187.428 116.923C187.426 117.36 187.466 117.793 187.492 118.228L187.576 119.536C187.687 121.281 187.79 123.033 187.873 124.8C187.955 126.566 188.018 128.349 188.037 130.16C188.051 131.975 188.037 133.807 187.896 135.741C187.83 136.703 187.722 137.697 187.553 138.742C187.377 139.791 187.154 140.887 186.679 142.157C186.55 142.481 186.435 142.792 186.251 143.149C186.164 143.323 186.082 143.49 185.988 143.667C185.878 143.852 185.765 144.038 185.65 144.222C185.591 144.313 185.535 144.403 185.471 144.497L185.248 144.791C185.093 144.986 184.95 145.172 184.771 145.365C184.578 145.565 184.379 145.757 184.172 145.943L184.014 146.082L183.833 146.221C183.711 146.312 183.587 146.402 183.462 146.486C183.338 146.571 183.208 146.656 183.079 146.738C182.943 146.816 182.802 146.889 182.661 146.962C182.52 147.032 182.377 147.1 182.231 147.166C182.085 147.227 181.94 147.279 181.789 147.331C181.641 147.383 181.491 147.43 181.34 147.474C181.192 147.517 181.049 147.545 180.901 147.575C180.755 147.606 180.607 147.632 180.459 147.658C180.309 147.684 180.18 147.691 180.039 147.705C178.918 147.801 177.966 147.655 177.193 147.46C175.649 147.053 174.566 146.479 173.598 145.922C172.635 145.358 171.798 144.774 171.009 144.189C169.439 143.015 168.055 141.825 166.709 140.644C164.03 138.281 161.535 135.931 159.02 133.791C157.768 132.728 156.513 131.712 155.273 130.83C154.652 130.39 154.037 129.986 153.44 129.633C152.845 129.282 152.263 128.984 151.748 128.779C151.236 128.572 150.789 128.464 150.522 128.433C150.399 128.429 150.305 128.421 150.273 128.433C150.24 128.445 150.235 128.433 150.247 128.438C150.249 128.433 150.256 128.429 150.23 128.447C150.207 128.466 150.153 128.513 150.077 128.607C149.925 128.793 149.699 129.172 149.499 129.67C149.297 130.169 149.112 130.778 148.959 131.444C148.804 132.107 148.679 132.829 148.576 133.577C148.367 135.084 148.256 136.684 148.139 138.426L148.038 139.798C148.017 140.04 147.996 140.287 147.965 140.555C147.937 140.818 147.902 141.108 147.848 141.437L147.803 141.696L147.747 141.985L147.669 142.319C147.631 142.458 147.599 142.58 147.552 142.733L147.465 142.989L147.418 143.116L147.349 143.286C147.302 143.398 147.253 143.511 147.199 143.622C147.119 143.779 147.035 143.937 146.941 144.088C146.898 144.158 146.849 144.236 146.762 144.358C146.685 144.466 146.602 144.574 146.518 144.678C146.419 144.795 146.374 144.852 146.224 145.007C146.083 145.151 145.933 145.285 145.775 145.412C145.599 145.548 145.5 145.63 145.237 145.79C145.002 145.931 144.753 146.054 144.499 146.157C144.253 146.258 143.985 146.341 143.682 146.402C143.388 146.463 143.087 146.496 142.791 146.503C142.488 146.512 142.248 146.489 141.969 146.449C141.698 146.409 141.431 146.348 141.174 146.265C140.89 146.176 140.742 146.105 140.552 146.016C140.369 145.927 140.19 145.828 140.018 145.72C139.624 145.466 139.494 145.339 139.288 145.155C139.191 145.066 139.1 144.974 139.01 144.88C138.909 144.772 138.86 144.713 138.811 144.652C138.604 144.405 138.388 144.088 138.303 143.935C138.247 143.838 138.19 143.742 138.139 143.643C138.108 143.589 138.094 143.556 138.075 143.521L138.021 143.41C137.737 142.806 137.626 142.429 137.521 142.079C137.321 141.385 137.215 140.844 137.119 140.317C137.025 139.795 136.954 139.304 136.891 138.819C136.764 137.855 136.675 136.931 136.597 136.016C136.301 132.366 136.2 128.833 136.184 125.263C136.179 123.48 136.2 121.695 136.264 119.889C136.296 118.983 136.339 118.073 136.402 117.142C136.47 116.203 136.546 115.27 136.698 114.204L136.759 113.804L136.813 113.475L136.924 112.819L137.041 112.149L137.164 111.464C137.246 111.008 137.342 110.547 137.434 110.088C137.537 109.627 137.629 109.169 137.742 108.705C137.85 108.244 137.965 107.781 138.089 107.315L138.277 106.617L138.449 105.909C138.562 105.434 138.667 104.952 138.811 104.477C138.956 104.002 139.149 103.543 139.389 103.101C139.635 102.666 139.91 102.238 140.176 101.833C140.441 101.433 140.714 101.034 140.942 100.723L141.104 100.511C141.153 100.448 141.193 100.406 141.24 100.351C141.259 100.335 141.273 100.326 141.29 100.312C141.304 100.304 141.33 100.274 141.334 100.286C141.351 100.297 141.381 100.286 141.384 100.354L141.393 100.391L141.4 100.41V100.446C141.402 100.493 141.409 100.542 141.419 100.589C141.426 100.641 141.431 100.716 141.445 100.777L141.489 100.982C141.532 101.125 141.572 101.245 141.637 101.36C141.663 101.41 141.684 101.445 141.713 101.485C141.727 101.504 141.741 101.523 141.757 101.539C141.767 101.549 141.776 101.556 141.785 101.565C141.804 101.582 141.825 101.596 141.849 101.61C141.861 101.61 141.87 101.605 141.879 101.6C141.912 101.6 141.903 101.556 141.905 101.516C141.915 101.483 141.884 101.415 141.87 101.358C141.858 101.304 141.823 101.229 141.79 101.158C141.741 101.029 141.621 100.834 141.567 100.709C141.557 100.669 141.548 100.629 141.539 100.584L141.494 100.457C141.424 100.286 141.311 100.102 141.144 99.9211C140.982 99.7329 140.759 99.5542 140.498 99.3849C139.978 99.0415 139.295 98.7781 138.552 98.5641C137.807 98.3477 136.999 98.1995 136.165 98.0984C134.49 97.8773 132.723 97.8491 130.925 97.8514L130.927 97.8373Z" fill="#84B604"/>
<path d="M151.445 89.0458C143.169 94.8785 129.966 94.3752 124.24 85.0852C121.467 80.4919 120.784 74.6639 122.609 69.5603C123.862 66.1265 126.954 63.4524 130.262 62.0553C136.268 59.5835 142.829 60.6677 148.731 62.5045C154.857 64.3437 160.268 68.1867 164.554 72.8153C165.766 74.0806 166.883 75.3365 167.914 76.3902C168.746 77.2204 169.618 78.0812 170.501 78.5234C171.107 78.7985 171.319 78.7703 171.956 78.6269C172.567 78.4575 173.41 77.9519 174.235 77.164C177.435 73.9865 179.437 69.0099 180.027 64.5295C181.098 55.0231 175.33 46.2552 169.082 39.4629C158.501 27.8939 144.201 20.5442 128.73 17.2468C106.552 12.5454 82.1686 14.7515 62.2901 26.1065C60.2482 27.2142 58.5 28.7641 56.5004 29.926C53.1568 31.8545 49.9565 34.1476 47.0546 36.7253C44.0916 39.35 41.413 42.3158 39.0938 45.5355C36.1919 49.5267 33.8845 53.8354 31.953 58.4381C33.3887 44.5125 40.4214 31.5911 50.9011 22.3434C82.6668 -1.06039 136.668 0.0285392 167.327 25.0081C175.92 32.0968 183.714 40.6013 187.614 51.3001C191.056 60.6395 189.804 70.7245 184.543 79.2031C180.767 85.4098 173.824 90.5345 166.375 86.9785C162.794 85.2051 160.334 81.9642 157.759 79.3207C154.49 75.814 150.724 72.987 146.153 71.5617C142.5 70.367 136.022 68.8829 132.826 71.3947C132.217 71.9451 131.811 72.6295 131.273 73.4503C129.722 75.7952 129.513 79.2877 130.385 82.0136C130.965 83.8598 132.189 85.4333 133.693 86.6704C138.381 90.4946 145.695 90.925 151.436 89.0481L151.445 89.0458Z" fill="#84B604"/>
<path d="M170.055 164.304C169.691 169.084 167.98 175.93 163.06 178.054C158.318 179.867 153.788 175.949 151.245 172.322C148.795 168.705 146.847 163.604 148.407 159.114C150.132 154.419 154.662 151.432 158.99 149.894C169.094 146.127 190.093 146.324 194.976 157.938C195.737 159.671 196.188 161.442 196.357 163.31C196.635 167.197 195.129 171.16 192.885 174.182C192.104 175.255 191.36 176.137 190.497 177.042C187.1 180.497 183.241 183.395 179.219 186.001C164.223 195.677 146.088 200.242 128.312 198.318C119.966 197.438 111.585 195.375 104.099 191.474C99.1712 188.988 94.7749 185.796 89.9556 183.618C84.8826 181.283 79.2833 180.154 73.7215 179.778L71.8276 179.665C71.6702 179.655 71.5128 179.641 71.353 179.639H70.8783H69.9291L68.0282 179.634L66.1249 179.735L65.1733 179.785C64.856 179.801 64.5388 179.834 64.224 179.886C62.9645 180.093 61.7074 180.283 60.4268 180.314L58.4883 180.349C57.8422 180.373 57.196 180.431 56.5451 180.469L55.5677 180.535L55.0789 180.568C53.9276 180.704 51.8622 180.895 50.6732 181.095L48.7042 181.386L46.7398 181.753L45.7506 181.932L44.7684 182.144C42.266 182.663 39.3523 183.423 36.8945 184.133C34.277 184.905 31.6664 185.775 29.0442 186.688C31.7017 184.524 34.6106 182.435 37.536 180.587C44.2068 176.349 51.2888 173.117 59.057 171.005C60.4644 170.558 61.9448 170.565 63.3992 170.462C65.4858 170.337 67.8684 170.184 69.9808 170.227C70.681 170.234 71.5081 170.212 72.1801 170.262C79.5911 170.582 87.0631 171.925 93.8397 175.053C99.4813 177.581 104.587 181.379 110.067 183.931C125.775 190.977 144.372 190.956 160.393 184.961C167.569 182.28 174.397 178.43 180.33 173.592C181.728 172.43 183.039 171.294 184.221 169.975C185.685 168.258 186.944 166.445 186.977 164.234V163.902C186.984 164.109 186.982 164.032 186.982 164.041C186.944 163.672 186.879 163.3 186.785 162.936C186.472 161.858 186.15 160.937 185.253 160.207C183.833 159.074 181.698 158.316 179.764 157.881C177.517 157.366 175.088 157.124 172.665 157.117C169.098 157.117 165.499 157.557 162.195 158.735C161.159 159.109 160.21 159.561 159.425 160.057C158.786 160.473 158.111 160.967 157.775 161.569C157.651 161.79 157.599 161.985 157.54 162.216C157.371 162.816 157.145 163.502 157.087 164.232C156.915 166.727 157.778 169.519 159.159 171.598C159.721 172.43 160.393 173.094 160.919 173.399C161.187 173.55 161.389 173.651 161.751 173.649C165.292 173.293 168.673 167.35 170.052 164.304H170.055Z" fill="#84B604"/>
<path d="M181.047 93.5239C182.424 90.6475 184.024 87.877 185.807 85.2005C186.702 83.8646 187.642 82.5523 188.648 81.2775C189.149 80.6402 189.663 80.0099 190.192 79.3866C190.725 78.768 191.273 78.1613 191.839 77.5615C192.967 76.362 194.165 75.2049 195.474 74.1301C196.785 73.0576 198.178 72.0275 199.769 71.1643C201.355 70.3035 203.132 69.5627 205.246 69.2805C206.301 69.1464 207.446 69.1488 208.614 69.3816C209.196 69.4968 209.781 69.6662 210.348 69.8943C210.912 70.1248 211.457 70.4094 211.964 70.7339C212.467 71.0632 212.937 71.4278 213.365 71.8158C213.785 72.2062 214.178 72.6155 214.523 73.0365C215.219 73.8784 215.768 74.7581 216.234 75.6306C217.157 77.3804 217.747 79.1232 218.217 80.8307C219.131 84.2527 219.547 87.583 219.822 90.8686C220.085 94.1542 220.176 97.3951 220.195 100.605C220.2 102.209 220.2 103.806 220.174 105.396L220.139 107.772L220.094 110.154C220.057 111.761 220.003 113.372 219.916 114.983C219.836 116.596 219.723 118.209 219.582 119.828C219.305 123.064 218.903 126.307 218.306 129.583C217.994 131.22 217.646 132.869 217.188 134.534C216.727 136.202 216.191 137.886 215.409 139.626C215.014 140.498 214.565 141.388 213.957 142.305C213.348 143.215 212.603 144.186 211.431 145.099C210.846 145.548 210.129 145.974 209.304 146.275C208.482 146.581 207.528 146.729 206.706 146.708C205.871 146.693 205.122 146.548 204.459 146.343C203.797 146.136 203.209 145.873 202.68 145.586C201.621 145.005 200.761 144.334 200.004 143.612C199.248 142.89 198.594 142.124 198.012 141.315C196.863 139.689 195.965 137.907 195.472 135.851C195.227 134.826 195.096 133.723 195.171 132.551C195.208 131.968 195.3 131.368 195.467 130.766C195.631 130.164 195.878 129.567 196.177 129.028C196.475 128.487 196.825 128.012 197.177 127.603C197.53 127.194 197.889 126.853 198.23 126.545C198.914 125.935 199.541 125.458 200.115 124.988C200.688 124.517 201.219 124.061 201.724 123.579C202.227 123.097 202.695 122.582 203.136 122.031C204.015 120.928 204.776 119.698 205.383 118.353C205.693 117.683 205.963 116.986 206.196 116.269C206.435 115.552 206.64 114.816 206.809 114.063C207.157 112.558 207.361 110.994 207.507 109.397C207.951 110.937 208.231 112.537 208.35 114.176C208.4 114.994 208.418 115.825 208.379 116.66C208.336 117.495 208.245 118.334 208.099 119.174C207.958 120.016 207.744 120.848 207.481 121.674C207.213 122.499 206.903 123.32 206.511 124.11C205.742 125.689 204.706 127.213 203.606 128.492C203.068 129.136 202.54 129.734 202.138 130.265C201.731 130.802 201.487 131.244 201.405 131.578C201.36 131.747 201.346 131.9 201.341 132.067C201.336 132.232 201.346 132.422 201.374 132.627C201.433 133.034 201.567 133.502 201.769 133.986C202.178 134.955 202.857 135.969 203.663 136.808C204.06 137.232 204.492 137.615 204.927 137.928C205.359 138.238 205.794 138.488 206.146 138.61C206.494 138.742 206.748 138.718 206.649 138.671C206.614 138.648 206.449 138.652 206.36 138.671C206.266 138.685 206.233 138.697 206.259 138.652C206.315 138.572 206.546 138.276 206.764 137.848C206.988 137.425 207.22 136.886 207.432 136.305C207.852 135.131 208.209 133.781 208.505 132.389C208.799 130.992 209.055 129.543 209.262 128.071C209.694 125.126 209.986 122.097 210.23 119.049C210.348 117.525 210.449 115.992 210.543 114.458C210.63 112.922 210.712 111.384 210.78 109.839C211.029 103.567 211.374 97.3293 211.271 91.3037C211.24 89.7985 211.189 88.3074 211.071 86.8468C210.966 85.3863 210.796 83.9564 210.554 82.5922C210.315 81.2305 209.976 79.9417 209.544 78.8433C209.102 77.7497 208.559 76.8936 208.005 76.4114C207.721 76.1692 207.436 75.9787 207.07 75.8446C206.708 75.7035 206.259 75.6306 205.745 75.6188C204.713 75.5953 203.454 75.8776 202.194 76.3479C200.93 76.8207 199.635 77.4604 198.378 78.2083C197.121 78.9609 195.873 79.8005 194.656 80.7037C194.048 81.1552 193.446 81.6256 192.852 82.1078C192.252 82.5852 191.66 83.0767 191.075 83.58C189.912 84.5937 188.756 85.6356 187.631 86.7175C185.37 88.8765 183.201 91.1673 181.047 93.5121V93.5239Z" fill="#84B604"/>
</g>
<g filter="url(#filter1_d_356_13839)">
<path d="M88.1731 157.141C87.7314 158.152 87.2286 159.149 86.5236 160.09C86.1688 160.56 85.7553 161.014 85.2219 161.419C85.0927 161.522 84.9399 161.612 84.7943 161.706C84.6439 161.798 84.4723 161.875 84.3079 161.957C84.1316 162.028 83.946 162.092 83.7533 162.148C83.5513 162.186 83.3515 162.24 83.1377 162.251C82.7101 162.287 82.2613 162.242 81.8477 162.129C81.4318 162.019 81.0512 161.852 80.7128 161.661C80.0314 161.275 79.4816 160.807 79.0046 160.33C78.0529 159.366 77.3457 158.338 76.6995 157.305C76.058 156.273 75.5035 155.222 75.003 154.161C74.5002 153.103 74.0396 152.035 73.6073 150.962C72.7661 148.815 72.033 146.649 71.3868 144.469C70.2684 135.55 69.8619 126.74 70.3342 117.8C70.4563 115.566 70.6396 113.325 70.9145 111.065C71.1918 108.804 71.5513 106.528 72.0964 104.199C72.3737 103.033 72.6909 101.857 73.1092 100.643C73.5321 99.4297 74.0279 98.1879 74.7939 96.8638C75.184 96.2005 75.6327 95.5185 76.2531 94.8106C76.5609 94.4601 76.9157 94.1026 77.3222 93.7569C77.7404 93.4088 78.2033 93.0702 78.7555 92.7691C79.3053 92.4704 79.9233 92.2117 80.5906 92.04C81.2579 91.873 81.9394 91.7931 82.5902 91.7954C83.2341 91.8025 83.8426 91.8824 84.3972 92.0094C84.9423 92.1388 85.4522 92.3034 85.9057 92.4916C86.8174 92.8679 87.5622 93.3171 88.2225 93.7781C88.878 94.2414 89.4584 94.7235 89.9824 95.2198C91.0374 96.217 91.9068 97.2354 92.7316 98.4137C92.9407 98.7077 93.1428 99.0346 93.3331 99.3615L93.6198 99.8531C93.7137 100.018 93.7913 100.187 93.8782 100.354C94.0451 100.69 94.2166 101.027 94.3505 101.37C94.4891 101.713 94.6419 102.054 94.75 102.403C95.234 103.785 95.5371 105.187 95.6945 106.561C95.9953 109.31 95.7838 111.956 95.274 114.454C95.0155 115.703 94.6842 116.923 94.2941 118.111C93.8947 119.296 93.4341 120.451 92.9219 121.58C91.888 123.828 90.638 125.964 89.1671 127.958C88.4387 128.96 87.6374 129.917 86.7939 130.842C85.9456 131.771 85.0504 132.639 84.0564 133.478C83.0696 134.339 82.0052 135.078 80.9266 135.778C80.3768 136.105 79.834 136.453 79.2677 136.743C78.9858 136.893 78.7062 137.046 78.4242 137.19L77.5666 137.599C77.2822 137.74 76.9909 137.862 76.6995 137.984L75.8254 138.349L74.9419 138.676L74.5002 138.838L74.0537 138.982L73.1585 139.266L72.2562 139.513C71.6547 139.687 71.0438 139.805 70.4375 139.948C65.5643 140.938 60.5147 140.943 55.5874 139.746C54.3561 139.459 53.1366 139.059 51.9336 138.608C51.3344 138.365 50.7352 138.13 50.1502 137.843C49.558 137.58 48.9824 137.262 48.4067 136.952C47.2694 136.293 46.1486 135.581 45.1077 134.727L44.7129 134.414L44.3323 134.08C44.0809 133.855 43.8248 133.636 43.5804 133.403C43.101 132.921 42.6147 132.45 42.1706 131.928C40.3636 129.877 38.9468 127.413 38.0515 124.887C37.1422 122.356 36.7098 119.802 36.5172 117.365C36.3268 114.924 36.3644 112.579 36.4772 110.31C36.5054 109.74 36.5407 109.181 36.5783 108.621C36.6159 108.064 36.6652 107.509 36.6769 106.956C36.6981 106.403 36.691 105.85 36.7263 105.307C36.7615 104.761 36.8508 104.225 36.9824 103.694C37.2526 102.642 37.5252 101.546 37.8307 100.427C38.1314 99.3121 38.4674 98.1691 38.8692 97.0355C39.2593 95.9018 39.7457 94.7659 40.2696 93.6581C40.8218 92.548 41.4375 91.4685 42.1753 90.4572C43.618 88.4228 45.5259 86.7153 47.6078 85.5723C49.7084 84.441 51.9688 83.8554 54.1658 83.7613C52.2156 84.782 50.5238 86.0991 49.2643 87.6537C49.1092 87.8513 48.9636 88.0535 48.8155 88.2511C48.6722 88.451 48.5148 88.6345 48.3949 88.8508L48.0166 89.4694C47.9508 89.5682 47.8945 89.6764 47.8428 89.7845L47.683 90.1068C47.4598 90.523 47.2906 90.9723 47.112 91.405C47.065 91.5108 47.0274 91.6214 46.9922 91.7366L46.8841 92.073C46.8159 92.2987 46.7313 92.5104 46.6844 92.7456L46.5175 93.4276C46.4611 93.6511 46.4306 93.8933 46.3859 94.1215C46.2896 94.5754 46.2426 95.0575 46.1768 95.5185C46.0875 96.471 46.0264 97.4165 46.0382 98.3996C46.0405 99.378 46.064 100.363 46.1275 101.386C46.1839 102.403 46.2638 103.449 46.3413 104.538C46.3765 105.079 46.3695 105.613 46.3108 106.137C46.2544 106.664 46.158 107.182 46.0922 107.701C46.0194 108.219 45.9888 108.739 45.9536 109.251C45.9207 109.764 45.8878 110.277 45.862 110.782C45.7609 112.805 45.7398 114.771 45.8855 116.617C46.0311 118.464 46.3483 120.185 46.8958 121.705C47.4433 123.226 48.2117 124.553 49.2432 125.731C49.4923 126.032 49.7883 126.3 50.0609 126.587C50.2042 126.724 50.3593 126.853 50.5073 126.987L50.7305 127.187L50.9702 127.373C51.5882 127.89 52.2931 128.325 53.0098 128.749C53.381 128.944 53.7429 129.153 54.1353 129.322C54.5136 129.513 54.9154 129.663 55.3125 129.828C56.1208 130.127 56.9479 130.407 57.8079 130.602C59.5185 131.032 61.3183 131.227 63.1253 131.256C64.9345 131.275 66.7532 131.091 68.5249 130.731C72.0541 129.986 75.4142 128.497 77.9731 126.3C78.6216 125.755 79.2748 125.127 79.874 124.466C80.4778 123.803 81.0629 123.111 81.5963 122.373C82.6772 120.907 83.61 119.313 84.3713 117.657C84.7473 116.827 85.0809 115.982 85.3723 115.131C85.6519 114.277 85.8845 113.419 86.0607 112.563C86.4132 110.853 86.5189 109.157 86.3521 107.628C86.2652 106.866 86.103 106.154 85.8751 105.509C85.8281 105.34 85.7529 105.194 85.6918 105.039C85.6355 104.879 85.5556 104.738 85.4851 104.594C85.4475 104.524 85.4169 104.446 85.377 104.378L85.2548 104.176C85.1773 104.037 85.1021 103.905 84.9963 103.762C84.5922 103.179 84.0565 102.553 83.5489 102.078C83.2928 101.836 83.0414 101.633 82.8205 101.476C82.602 101.321 82.414 101.224 82.3318 101.191C82.2895 101.172 82.2848 101.18 82.3083 101.18C82.3388 101.189 82.414 101.203 82.5197 101.201C82.7406 101.217 83.1236 101.109 83.2669 101.017C83.3468 100.97 83.375 100.954 83.3774 100.944C83.3774 100.947 83.3492 100.97 83.3022 101.022C83.2106 101.123 83.0578 101.337 82.9051 101.601C82.5902 102.137 82.266 102.892 81.9864 103.71C81.702 104.531 81.4553 105.429 81.2368 106.356C80.7998 108.214 80.4825 110.192 80.2358 112.198C79.9915 114.207 79.8223 116.253 79.7095 118.313C79.4863 122.434 79.4769 126.604 79.6437 130.762C79.7283 132.841 79.8575 134.918 80.0361 136.983L80.1794 138.53C80.2264 139.045 80.2875 139.558 80.3768 140.068C80.4614 140.579 80.5718 141.084 80.6494 141.592C80.734 142.1 80.7739 142.611 80.781 143.128C80.7434 145.202 80.741 147.279 80.8468 149.325C80.9243 151.376 81.124 153.406 81.4718 155.32C81.6503 156.273 81.8971 157.188 82.2096 157.966C82.3623 158.357 82.5409 158.698 82.7171 158.961C82.8064 159.095 82.891 159.203 82.9756 159.293C83.0602 159.384 83.1424 159.45 83.2505 159.511C83.462 159.643 83.8332 159.664 84.2515 159.568C84.6721 159.474 85.1209 159.274 85.5697 159.032C86.0161 158.787 86.4555 158.488 86.8878 158.166C87.3225 157.849 87.7478 157.503 88.1637 157.141H88.1731Z" fill="white"/>
<path d="M67.9633 149.118C62.3193 156.882 53.2354 164.937 44.0927 168.176C25.0224 172.249 13.3209 161.536 8.22438 143.902C6.1073 136.677 5.20266 129.501 4.486 122.172C2.59214 105.265 4.83611 88.0793 8.73427 71.6253C12.0239 57.8149 16.1711 44.1104 20.2384 30.5775C21.1243 27.3695 22.144 24.3662 22.4542 21.177C22.4542 21.0782 22.4636 20.9629 22.4542 20.8783L22.4401 20.6149C22.4354 20.5302 22.419 20.4737 22.4143 20.4032C22.4143 20.3232 22.4002 20.2927 22.3931 20.255C22.3884 20.2339 22.3931 20.208 22.3884 20.1915C22.3884 20.1915 22.3931 20.1892 22.4002 20.1868C22.4096 20.2268 22.4331 20.2762 22.466 20.3138C22.5012 20.4079 22.5552 20.4879 22.6163 20.5655C22.9171 21.0359 23.4199 21.4451 23.9439 21.6497C24.3974 21.8308 24.7875 21.8473 24.9872 21.8096C25.1963 21.7744 25.248 21.7085 25.2198 21.6709C25.1893 21.6332 25.0859 21.6121 24.9472 21.6215C24.1953 21.7179 23.2531 22.0542 22.4754 22.4305C20.5063 23.3407 18.549 24.5661 16.681 25.7773C12.804 28.3362 8.98569 31.1984 5.12982 34.0489C7.60876 29.8955 10.2522 25.8972 13.241 22.0636C15.243 19.5424 17.3154 17.0729 19.9353 15.0761C22.1487 13.3592 25.3115 12.1598 28.1311 13.5192C30.1354 14.4458 31.5264 16.452 31.8742 18.611C32.0927 19.7517 31.987 21.0923 31.8601 22.0284C31.4066 25.8573 30.2881 29.6626 29.2519 33.2305C25.1916 46.7469 21.1454 60.0986 17.8817 73.7726C14.2114 89.3399 12.0521 105.3 13.8378 121.26C14.4864 127.972 15.3651 134.892 17.2355 141.237C19.3455 148.577 23.5116 156.778 31.2186 158.942C34.3249 159.848 37.92 159.89 41.0874 158.952C41.5808 158.825 42.0766 158.749 42.5818 158.667C44.8939 158.451 47.3517 157.905 49.7061 157.253C56.1279 155.37 62.1807 152.512 67.9586 149.116L67.9633 149.118Z" fill="white"/>
<path d="M38.9421 80.5438C34.0758 82.9851 25.9811 85.0665 24.5877 77.6416C23.9157 73.307 25.7203 68.7749 28.0723 65.287C28.9112 64.0852 29.8346 62.9281 30.9437 61.9355C32.8234 60.3433 35.1778 59.4472 37.5886 58.9063C46.2355 57.1706 52.2297 65.12 60.1576 65.8726C61.9034 66.0725 63.8255 65.9808 65.5196 65.6045C68.2664 65.0612 70.8205 63.2503 73.3982 61.6416C76.8123 59.4449 80.9243 57.8385 85.0128 57.4058C92.7198 56.6555 101.437 58.4289 108.085 62.5235C111.987 64.9154 115.122 67.9729 116.87 72.2534C118.44 75.9741 118.98 80.1275 119.274 83.9259C119.624 88.7567 119.598 93.4722 119.549 98.256C119.354 109.312 118.999 122.161 118.731 133.29C118.585 135.378 118.339 137.745 117.448 139.904C114.549 146.924 106.999 146.581 101.571 142.716C100.248 141.792 98.9512 140.833 97.9832 139.492C96.9493 138.029 96.2632 136.34 95.9389 134.511C95.1753 129.612 97.5767 127.043 100.608 123.939C102.097 122.363 103.345 120.738 104.346 118.807C105.935 115.782 106.776 112.53 107.109 109.044C108.503 113.553 108.67 118.708 107.069 123.685C106.675 124.924 106.174 126.14 105.627 127.279C105.124 128.487 103.439 131.154 104.008 131.982L104.306 132.361C104.598 132.737 105.072 133.139 105.462 133.502C105.942 133.972 106.379 134.6 106.952 135C107.502 135.395 108.148 135.724 108.752 135.919C109.017 136.004 109.245 136.042 109.365 136.049C109.485 136.058 109.478 136.03 109.288 136.089C109.13 136.138 108.799 136.331 108.707 136.463C109.071 135.614 109.271 134.083 109.351 132.704C109.492 128.499 109.701 116.497 109.849 111.996C110.018 105.074 110.237 98.1808 110.164 91.2967C110.091 87.0421 109.962 82.5006 109.036 78.493C108.533 76.3998 107.781 74.4994 106.329 72.9919C103.961 70.6846 101.045 69.1606 97.8633 68.1234C95.0319 67.2109 91.9303 66.7217 88.925 66.6417C86.1383 66.5406 83.4197 67.0368 80.9125 68.2198C77.8109 69.7204 75.0594 72.0182 71.7205 73.4317C67.7753 75.165 63.3579 75.6871 59.1002 75.2215C56.3369 74.9181 53.5831 74.1043 51.0806 73.0083C48.637 71.9476 46.4729 70.6752 44.5814 69.6757C43.0658 68.8925 41.5808 68.1328 40.1263 68.0764C38.7964 67.987 37.8001 68.9536 36.6957 69.5792C35.1003 70.3859 33.6411 71.496 32.4381 72.8602C31.1175 74.3136 29.8299 76.2657 29.6842 78.1496C29.649 78.7987 30.1424 79.1303 30.7533 79.4714C33.2299 80.612 36.2164 80.5838 38.9421 80.5438Z" fill="white"/>
<path d="M131.73 93.3312C133.25 92.3669 134.857 91.532 136.612 90.857C138.375 90.2196 140.28 89.674 142.59 89.841C143.166 89.888 143.767 89.9821 144.387 90.1655C145.003 90.3513 145.633 90.6195 146.241 90.984C146.392 91.0781 146.545 91.1745 146.693 91.2756C146.838 91.3815 146.984 91.492 147.127 91.6026C147.369 91.7907 147.548 91.9107 147.78 92.1106C147.891 92.2023 147.999 92.2893 148.121 92.4046C148.241 92.5175 148.351 92.6139 148.483 92.7597C148.61 92.8961 148.732 93.0231 148.873 93.2113C148.941 93.2983 149.007 93.383 149.075 93.477C149.148 93.5852 149.218 93.6981 149.287 93.811L149.388 93.9827L149.491 94.1897C149.557 94.3308 149.62 94.4648 149.679 94.6177C149.794 94.9423 149.895 95.2692 149.954 95.6314C149.987 95.8101 150.01 95.9889 150.02 96.1582C150.031 96.3275 150.041 96.511 150.039 96.6709C150.036 96.8261 150.029 96.9814 150.017 97.1366L150.008 97.2518L149.996 97.3506L149.973 97.5482C149.935 97.8304 149.898 98.0233 149.853 98.242L149.792 98.5219L149.731 98.7853L149.531 99.6131C149.414 100.095 149.329 100.486 149.254 100.881C149.174 101.269 149.127 101.645 149.056 102.017C148.984 102.384 148.885 102.736 148.749 103.082C148.617 103.43 148.455 103.769 148.321 104.124C148.18 104.477 148.069 104.841 147.975 105.215C147.877 105.587 147.783 105.963 147.694 106.344C147.6 106.723 147.522 107.111 147.437 107.494C147.362 107.885 147.28 108.273 147.207 108.666L147.101 109.258L147.047 109.555L146.996 109.867L146.892 110.491L146.803 111.043C146.709 111.693 146.638 112.483 146.584 113.271C146.53 114.066 146.49 114.884 146.462 115.71C146.404 117.361 146.382 119.04 146.387 120.717C146.401 124.071 146.505 127.462 146.768 130.715C146.836 131.524 146.916 132.323 147.014 133.074C147.064 133.448 147.118 133.812 147.177 134.141C147.233 134.466 147.303 134.774 147.346 134.911C147.36 134.974 147.388 135.009 147.289 134.795L147.245 134.708C147.219 134.657 147.191 134.607 147.16 134.558C147.125 134.501 146.979 134.268 146.836 134.106L146.688 133.939C146.617 133.864 146.545 133.791 146.469 133.72C146.302 133.572 146.208 133.488 145.865 133.257C145.717 133.163 145.562 133.076 145.403 133.001C145.236 132.923 145.109 132.871 144.853 132.784C144.622 132.709 144.38 132.653 144.138 132.617C143.887 132.582 143.671 132.573 143.396 132.575C143.126 132.58 142.851 132.61 142.585 132.667C142.31 132.726 142.068 132.803 141.845 132.888C141.615 132.977 141.389 133.09 141.18 133.22C140.945 133.37 140.861 133.429 140.705 133.549C140.569 133.657 140.44 133.777 140.318 133.902C140.186 134.04 140.156 134.073 140.076 134.17C140.008 134.252 139.942 134.337 139.881 134.426L139.747 134.631C139.681 134.734 139.622 134.845 139.568 134.955C139.535 135.019 139.507 135.08 139.481 135.143L139.425 135.289C139.413 135.322 139.401 135.357 139.39 135.393C139.376 135.44 139.369 135.459 139.361 135.494C139.359 135.501 139.357 135.506 139.357 135.513L139.373 135.423C139.387 135.324 139.408 135.186 139.425 135.019L139.477 134.485L139.566 133.267C139.681 131.557 139.803 129.699 140.069 127.775C140.203 126.811 140.369 125.823 140.607 124.8C140.844 123.779 141.145 122.723 141.594 121.615C142.045 120.512 142.635 119.343 143.567 118.179C144.035 117.601 144.592 117.027 145.25 116.514C145.908 116.001 146.662 115.55 147.468 115.223C148.272 114.879 149.122 114.684 149.942 114.576C150.769 114.472 151.545 114.494 152.282 114.559C153.737 114.719 154.964 115.103 156.056 115.536C157.146 115.975 158.1 116.481 158.998 117.005C159.891 117.532 160.72 118.08 161.512 118.642C163.091 119.767 164.524 120.933 165.911 122.109C168.665 124.456 171.207 126.855 173.719 129.066C174.971 130.167 176.217 131.23 177.422 132.126C178.021 132.573 178.611 132.973 179.14 133.283C179.405 133.443 179.647 133.563 179.856 133.662C180.063 133.756 180.216 133.803 180.282 133.822C180.345 133.843 180.265 133.798 180.007 133.822C179.974 133.822 179.953 133.833 179.908 133.836C179.866 133.838 179.826 133.845 179.786 133.855C179.744 133.864 179.708 133.878 179.664 133.887C179.617 133.897 179.57 133.911 179.523 133.927C179.476 133.944 179.433 133.965 179.389 133.984C179.342 134 179.295 134.019 179.25 134.043C179.205 134.066 179.161 134.092 179.121 134.12C179.081 134.139 179.041 134.16 179.003 134.184C178.966 134.207 178.931 134.236 178.898 134.264L178.848 134.308L178.811 134.334C178.761 134.37 178.717 134.414 178.681 134.464C178.649 134.501 178.632 134.506 178.613 134.537C178.604 134.548 178.597 134.562 178.592 134.577C178.587 134.581 178.587 134.577 178.585 134.577C178.585 134.577 178.585 134.577 178.587 134.579C178.595 134.565 178.604 134.537 178.613 134.518C178.634 134.494 178.665 134.395 178.698 134.318C178.834 133.967 178.982 133.363 179.088 132.707C179.194 132.044 179.278 131.317 179.33 130.552C179.443 129.031 179.459 127.399 179.445 125.755C179.429 124.106 179.37 122.427 179.29 120.736C179.21 119.045 179.111 117.342 179.003 115.632L178.919 114.348C178.891 113.92 178.869 113.489 178.808 113.064C178.757 112.636 178.672 112.21 178.632 111.782C178.59 111.354 178.599 110.921 178.653 110.484L179.328 105.232C179.45 104.338 179.574 103.421 179.727 102.49C179.875 101.558 180.058 100.615 180.303 99.6555C180.549 98.6983 180.836 97.7175 181.313 96.7109C181.555 96.2076 181.844 95.6925 182.255 95.1892C182.453 94.9399 182.704 94.6906 182.981 94.4695C183.27 94.2508 183.592 94.0509 183.952 93.9309C184.304 93.7992 184.676 93.7545 185.019 93.7545C185.188 93.7593 185.352 93.7804 185.512 93.8016C185.662 93.8369 185.818 93.8651 185.956 93.9145C186.518 94.1003 186.962 94.3755 187.35 94.6788C188.123 95.2856 188.701 95.9912 189.227 96.7156C188.818 96.5345 188.405 96.3699 187.991 96.2335C187.58 96.0947 187.169 95.9818 186.771 95.9207C186.377 95.8619 185.996 95.8477 185.698 95.916C185.392 95.9795 185.232 96.1417 185.181 96.2875C185.127 96.4287 185.106 96.598 185.077 96.8449C185.052 97.0872 185.044 97.3929 185.061 97.7246C185.096 98.3925 185.195 99.1428 185.355 99.9118C185.677 101.457 186.118 103.052 186.609 104.712L188.026 109.818C188.141 110.244 188.212 110.677 188.228 111.109C188.249 111.544 188.226 111.982 188.231 112.417C188.228 112.854 188.268 113.287 188.294 113.722L188.379 115.03C188.489 116.775 188.593 118.527 188.675 120.293C188.757 122.06 188.82 123.842 188.839 125.653C188.853 127.469 188.839 129.301 188.698 131.235C188.632 132.196 188.524 133.191 188.355 134.236C188.179 135.284 187.956 136.38 187.481 137.651C187.352 137.975 187.237 138.286 187.053 138.643C186.967 138.817 186.884 138.984 186.79 139.16C186.68 139.346 186.567 139.532 186.452 139.715C186.393 139.807 186.337 139.897 186.273 139.991L186.05 140.285C185.895 140.48 185.752 140.666 185.573 140.858C185.38 141.058 185.181 141.251 184.974 141.437L184.817 141.576L184.636 141.715C184.513 141.806 184.389 141.896 184.264 141.98C184.14 142.065 184.011 142.15 183.881 142.232C183.745 142.31 183.604 142.383 183.463 142.455C183.322 142.526 183.179 142.594 183.033 142.66C182.887 142.721 182.742 142.773 182.591 142.825C182.443 142.876 182.293 142.923 182.143 142.968C181.995 143.01 181.851 143.039 181.703 143.069C181.557 143.1 181.409 143.126 181.261 143.152C181.111 143.177 180.982 143.185 180.841 143.199C179.72 143.295 178.768 143.149 177.995 142.954C176.452 142.547 175.368 141.973 174.4 141.416C173.437 140.851 172.6 140.268 171.811 139.683C170.241 138.509 168.857 137.319 167.511 136.138C164.832 133.775 162.337 131.425 159.823 129.285C158.57 128.222 157.316 127.206 156.075 126.324C155.455 125.884 154.839 125.479 154.242 125.127C153.648 124.776 153.065 124.477 152.55 124.273C152.038 124.066 151.592 123.958 151.324 123.927C151.202 123.922 151.108 123.915 151.075 123.927C151.042 123.939 151.037 123.927 151.049 123.932C151.051 123.927 151.058 123.922 151.032 123.941C151.009 123.96 150.955 124.007 150.88 124.101C150.727 124.287 150.501 124.666 150.302 125.164C150.1 125.663 149.914 126.272 149.761 126.938C149.606 127.601 149.482 128.323 149.378 129.071C149.169 130.578 149.059 132.178 148.941 133.92L148.84 135.292C148.819 135.534 148.798 135.781 148.767 136.049C148.739 136.312 148.704 136.602 148.65 136.931L148.605 137.19L148.549 137.479L148.471 137.813C148.434 137.952 148.401 138.074 148.354 138.227L148.267 138.483L148.22 138.61L148.152 138.779C148.105 138.892 148.055 139.005 148.001 139.116C147.921 139.273 147.837 139.431 147.743 139.581C147.701 139.652 147.651 139.73 147.564 139.852C147.487 139.96 147.405 140.068 147.32 140.172C147.221 140.289 147.177 140.346 147.026 140.501C146.885 140.644 146.735 140.779 146.577 140.906C146.401 141.042 146.302 141.124 146.039 141.284C145.804 141.425 145.555 141.548 145.302 141.651C145.055 141.752 144.787 141.835 144.484 141.896C144.19 141.957 143.889 141.99 143.593 141.997C143.29 142.006 143.05 141.983 142.771 141.943C142.501 141.903 142.233 141.842 141.977 141.759C141.692 141.67 141.544 141.599 141.354 141.51C141.171 141.421 140.992 141.322 140.821 141.214C140.426 140.96 140.297 140.833 140.09 140.649C139.994 140.56 139.902 140.468 139.813 140.374C139.712 140.266 139.662 140.207 139.613 140.146C139.406 139.899 139.19 139.581 139.105 139.429C139.049 139.332 138.993 139.236 138.941 139.137C138.91 139.083 138.896 139.05 138.877 139.015L138.823 138.904C138.539 138.3 138.429 137.923 138.323 137.573C138.123 136.879 138.017 136.338 137.921 135.811C137.827 135.289 137.757 134.798 137.693 134.313C137.566 133.349 137.477 132.425 137.399 131.51C137.103 127.86 137.002 124.327 136.986 120.757C136.981 118.974 137.002 117.189 137.066 115.383C137.099 114.477 137.141 113.567 137.204 112.636C137.273 111.697 137.348 110.764 137.5 109.698L137.562 109.298L137.616 108.969L137.726 108.313L137.844 107.643L137.966 106.958C138.048 106.502 138.144 106.041 138.236 105.582C138.339 105.121 138.431 104.663 138.544 104.199C138.652 103.738 138.767 103.275 138.892 102.809L139.079 102.111L139.251 101.403C139.364 100.928 139.47 100.446 139.613 99.9706C139.759 99.4955 139.951 99.0369 140.191 98.5948C140.438 98.1597 140.713 97.7316 140.978 97.3271C141.244 96.9273 141.516 96.5274 141.744 96.217L141.906 96.0053C141.956 95.9418 141.995 95.8995 142.042 95.8454C142.061 95.8289 142.075 95.8195 142.092 95.8054C142.106 95.7984 142.132 95.7678 142.136 95.7795C142.153 95.7913 142.183 95.7795 142.186 95.8477L142.195 95.8854L142.202 95.9042V95.9395C142.205 95.9865 142.212 96.0359 142.221 96.0829C142.228 96.1347 142.233 96.2099 142.247 96.2711L142.292 96.4757C142.334 96.6192 142.374 96.7391 142.44 96.8544C142.465 96.9037 142.487 96.939 142.515 96.979C142.529 96.9978 142.543 97.0166 142.559 97.0331C142.569 97.0425 142.578 97.0496 142.588 97.059C142.606 97.0754 142.628 97.0895 142.651 97.1037C142.663 97.1037 142.672 97.099 142.682 97.0943C142.714 97.0943 142.705 97.0496 142.707 97.0096C142.717 96.9767 142.686 96.9085 142.672 96.852C142.66 96.7979 142.625 96.7227 142.592 96.6521C142.543 96.5227 142.423 96.3275 142.369 96.2029C142.36 96.1629 142.35 96.1229 142.341 96.0782L142.296 95.9512C142.226 95.7795 142.113 95.5961 141.946 95.415C141.784 95.2268 141.561 95.0481 141.3 94.8788C140.781 94.5354 140.097 94.272 139.354 94.0579C138.61 93.8416 137.801 93.6934 136.967 93.5923C135.292 93.3712 133.525 93.343 131.727 93.3453L131.73 93.3312Z" fill="white"/>
<path d="M152.247 84.5397C143.972 90.3724 130.769 89.8691 125.042 80.579C122.27 75.9858 121.586 70.1578 123.412 65.0541C124.664 61.6203 127.756 58.9462 131.065 57.5492C137.07 55.0773 143.631 56.1616 149.533 57.9984C155.659 59.8376 161.07 63.6806 165.356 68.3092C166.569 69.5745 167.685 70.8304 168.716 71.8841C169.548 72.7143 170.42 73.5751 171.303 74.0172C171.91 74.2924 172.121 74.2642 172.758 74.1207C173.369 73.9514 174.212 73.4457 175.037 72.6578C178.237 69.4804 180.239 64.5038 180.829 60.0234C181.901 50.517 176.132 41.7491 169.884 34.9568C159.303 23.3878 145.003 16.0381 129.533 12.7407C107.354 8.03924 82.9708 10.2453 63.0923 21.6003C61.0504 22.7081 59.3023 24.258 57.3027 25.4198C53.959 27.3484 50.7587 29.6415 47.8568 32.2192C44.8939 34.8439 42.2152 37.8097 39.896 41.0294C36.9941 45.0206 34.6867 49.3293 32.7553 53.932C34.1909 40.0063 41.2236 27.085 51.7033 17.8373C83.469 -5.56653 137.47 -4.47759 168.129 20.502C176.722 27.5906 184.516 36.0951 188.416 46.7939C191.859 56.1334 190.606 66.2183 185.345 74.6969C181.569 80.9036 174.626 86.0284 167.177 82.4723C163.596 80.699 161.136 77.4581 158.561 74.8145C155.292 71.3078 151.526 68.4809 146.956 67.0556C143.302 65.8608 136.824 64.3768 133.628 66.8886C133.02 67.439 132.613 68.1234 132.075 68.9442C130.524 71.289 130.315 74.7816 131.187 77.5075C131.767 79.3537 132.991 80.9271 134.495 82.1642C139.183 85.9884 146.498 86.4188 152.238 84.542L152.247 84.5397Z" fill="white"/>
<path d="M170.857 159.798C170.493 164.577 168.782 171.424 163.862 173.548C159.12 175.361 154.59 171.443 152.048 167.816C149.597 164.199 147.649 159.097 149.209 154.608C150.934 149.913 155.464 146.926 159.792 145.388C169.896 141.62 190.895 141.818 195.778 153.432C196.539 155.165 196.99 156.936 197.16 158.803C197.437 162.691 195.931 166.654 193.687 169.676C192.907 170.749 192.162 171.631 191.299 172.536C187.902 175.991 184.044 178.889 180.021 181.495C165.025 191.17 146.89 195.735 129.114 193.812C120.768 192.932 112.387 190.869 104.901 186.967C99.9734 184.482 95.5771 181.29 90.7578 179.112C85.6848 176.777 80.0855 175.648 74.5237 175.271L72.6299 175.159C72.4724 175.149 72.315 175.135 72.1552 175.133H71.6806H70.7313L68.8304 175.128L66.9271 175.229L65.9755 175.279C65.6583 175.295 65.3411 175.328 65.0262 175.38C63.7668 175.587 62.5097 175.777 61.2291 175.808L59.2906 175.843C58.6444 175.866 57.9982 175.925 57.3474 175.963L56.3699 176.029L55.8811 176.062C54.7298 176.198 52.6644 176.389 51.4754 176.589L49.5064 176.88L47.542 177.247L46.5528 177.426L45.5706 177.637C43.0682 178.157 40.1546 178.917 37.6968 179.627C35.0792 180.399 32.4687 181.269 29.8464 182.181C32.5039 180.018 35.4128 177.929 38.3382 176.081C45.009 171.842 52.0911 168.611 59.8592 166.499C61.2667 166.052 62.747 166.059 64.2015 165.956C66.288 165.831 68.6706 165.678 70.783 165.72C71.4832 165.727 72.3103 165.706 72.9823 165.756C80.3933 166.076 87.8654 167.418 94.6419 170.546C100.284 173.075 105.389 176.873 110.869 179.425C126.577 186.471 145.175 186.45 161.195 180.455C168.371 177.774 175.199 173.924 181.132 169.086C182.53 167.924 183.841 166.788 185.023 165.469C186.487 163.752 187.747 161.939 187.78 159.728V159.396C187.787 159.603 187.784 159.525 187.784 159.535C187.747 159.166 187.681 158.794 187.587 158.429C187.274 157.352 186.953 156.43 186.055 155.701C184.636 154.568 182.5 153.81 180.566 153.375C178.32 152.86 175.89 152.618 173.468 152.611C169.901 152.611 166.301 153.051 162.997 154.229C161.961 154.603 161.012 155.054 160.227 155.551C159.588 155.967 158.913 156.461 158.577 157.063C158.453 157.284 158.401 157.479 158.342 157.71C158.173 158.31 157.948 158.996 157.889 159.725C157.717 162.221 158.58 165.012 159.961 167.092C160.523 167.924 161.195 168.587 161.721 168.893C161.989 169.044 162.191 169.145 162.553 169.142C166.094 168.787 169.475 162.844 170.855 159.798H170.857Z" fill="white"/>
<path d="M181.849 89.0178C183.226 86.1414 184.826 83.3709 186.609 80.6944C187.505 79.3585 188.445 78.0462 189.45 76.7714C189.951 76.1341 190.465 75.5038 190.994 74.8805C191.527 74.2619 192.075 73.6552 192.641 73.0554C193.769 71.8559 194.967 70.6988 196.276 69.624C197.587 68.5515 198.981 67.5214 200.571 66.6582C202.157 65.7974 203.934 65.0566 206.049 64.7744C207.104 64.6403 208.248 64.6427 209.416 64.8755C209.998 64.9907 210.584 65.1601 211.15 65.3882C211.714 65.6187 212.259 65.9033 212.766 66.2278C213.269 66.5571 213.739 66.9217 214.167 67.3097C214.587 67.7001 214.98 68.1094 215.325 68.5304C216.021 69.3723 216.571 70.2519 217.036 71.1245C217.959 72.8743 218.549 74.6171 219.019 76.3246C219.933 79.7466 220.349 83.0769 220.624 86.3625C220.887 89.6481 220.979 92.889 220.997 96.0994C221.002 97.7034 221.002 99.3003 220.976 100.89L220.941 103.266L220.896 105.648C220.859 107.254 220.805 108.866 220.718 110.477C220.638 112.09 220.525 113.703 220.384 115.321C220.107 118.558 219.705 121.801 219.108 125.077C218.796 126.714 218.448 128.363 217.99 130.028C217.529 131.695 216.994 133.379 216.211 135.12C215.816 135.992 215.368 136.881 214.759 137.799C214.15 138.709 213.406 139.68 212.233 140.593C211.648 141.042 210.931 141.468 210.107 141.769C209.284 142.074 208.33 142.223 207.508 142.201C206.674 142.187 205.924 142.041 205.261 141.837C204.599 141.63 204.011 141.366 203.483 141.08C202.423 140.499 201.563 139.828 200.806 139.106C200.05 138.384 199.397 137.618 198.814 136.808C197.665 135.183 196.767 133.401 196.274 131.345C196.029 130.32 195.898 129.217 195.973 128.045C196.011 127.462 196.102 126.862 196.269 126.26C196.434 125.658 196.68 125.061 196.979 124.522C197.277 123.981 197.627 123.506 197.98 123.097C198.332 122.688 198.692 122.347 199.032 122.039C199.716 121.429 200.344 120.952 200.917 120.482C201.49 120.011 202.021 119.555 202.526 119.073C203.029 118.591 203.497 118.076 203.939 117.525C204.817 116.422 205.579 115.192 206.185 113.847C206.495 113.177 206.765 112.48 206.998 111.763C207.238 111.046 207.442 110.31 207.611 109.557C207.959 108.052 208.163 106.488 208.309 104.891C208.753 106.431 209.033 108.031 209.153 109.67C209.202 110.488 209.221 111.319 209.181 112.153C209.138 112.988 209.047 113.828 208.901 114.668C208.76 115.51 208.546 116.342 208.283 117.168C208.015 117.993 207.705 118.814 207.313 119.604C206.544 121.182 205.508 122.706 204.409 123.986C203.87 124.63 203.342 125.228 202.94 125.759C202.533 126.295 202.289 126.738 202.207 127.072C202.162 127.241 202.148 127.394 202.143 127.561C202.139 127.725 202.148 127.916 202.176 128.121C202.235 128.527 202.369 128.995 202.571 129.48C202.98 130.449 203.659 131.463 204.465 132.302C204.862 132.726 205.294 133.109 205.729 133.422C206.161 133.732 206.596 133.982 206.949 134.104C207.296 134.236 207.55 134.212 207.451 134.165C207.416 134.141 207.252 134.146 207.162 134.165C207.068 134.179 207.035 134.191 207.061 134.146C207.118 134.066 207.348 133.77 207.567 133.342C207.79 132.918 208.022 132.38 208.234 131.799C208.654 130.625 209.012 129.275 209.308 127.883C209.601 126.486 209.857 125.037 210.064 123.565C210.497 120.62 210.788 117.591 211.032 114.543C211.15 113.019 211.251 111.486 211.345 109.952C211.432 108.416 211.514 106.878 211.582 105.333C211.831 99.0604 212.177 92.8232 212.073 86.7976C212.043 85.2924 211.991 83.8013 211.874 82.3407C211.768 80.8802 211.599 79.4502 211.357 78.0861C211.117 76.7244 210.779 75.4355 210.346 74.3372C209.904 73.2436 209.362 72.3875 208.807 71.9053C208.523 71.6631 208.239 71.4726 207.872 71.3385C207.51 71.1974 207.061 71.1245 206.547 71.1127C205.515 71.0892 204.256 71.3715 202.996 71.8418C201.732 72.3146 200.438 72.9543 199.18 73.7022C197.923 74.4548 196.676 75.2944 195.458 76.1976C194.85 76.6491 194.248 77.1195 193.654 77.6017C193.055 78.0791 192.463 78.5706 191.878 79.0739C190.714 80.0876 189.558 81.1295 188.433 82.2114C186.172 84.3704 184.004 86.6612 181.849 89.006V89.0178Z" fill="white"/>
</g>
<defs>
<filter id="filter0_d_356_13839" x="0.764143" y="4.54648" width="221.669" height="197.717" filterUnits="userSpaceOnUse" color-interpolation-filters="sRGB">
<feFlood flood-opacity="0" result="BackgroundImageFix"/>
<feColorMatrix in="SourceAlpha" type="matrix" values="0 0 0 0 0 0 0 0 0 0 0 0 0 0 0 0 0 0 127 0" result="hardAlpha"/>
<feOffset dy="1.27763"/>
<feGaussianBlur stdDeviation="1.11793"/>
<feComposite in2="hardAlpha" operator="out"/>
<feColorMatrix type="matrix" values="0 0 0 0 0 0 0 0 0 0 0 0 0 0 0 0 0 0 0.25 0"/>
<feBlend mode="normal" in2="BackgroundImageFix" result="effect1_dropShadow_356_13839"/>
<feBlend mode="normal" in="SourceGraphic" in2="effect1_dropShadow_356_13839" result="shape"/>
</filter>
<filter id="filter1_d_356_13839" x="1.56639" y="0.0403413" width="221.669" height="197.717" filterUnits="userSpaceOnUse" color-interpolation-filters="sRGB">
<feFlood flood-opacity="0" result="BackgroundImageFix"/>
<feColorMatrix in="SourceAlpha" type="matrix" values="0 0 0 0 0 0 0 0 0 0 0 0 0 0 0 0 0 0 127 0" result="hardAlpha"/>
<feOffset dy="1.27763"/>
<feGaussianBlur stdDeviation="1.11793"/>
<feComposite in2="hardAlpha" operator="out"/>
<feColorMatrix type="matrix" values="0 0 0 0 0 0 0 0 0 0 0 0 0 0 0 0 0 0 0.25 0"/>
<feBlend mode="normal" in2="BackgroundImageFix" result="effect1_dropShadow_356_13839"/>
<feBlend mode="normal" in="SourceGraphic" in2="effect1_dropShadow_356_13839" result="shape"/>
</filter>
</defs>
</svg>
