<svg width="32" height="32" viewBox="0 0 32 32" fill="none" xmlns="http://www.w3.org/2000/svg">
<path d="M28.5 16C28.4999 18.9433 27.4611 21.7921 25.5668 24.0447C23.6724 26.2973 21.044 27.8092 18.1444 28.3141C15.2447 28.819 12.26 28.2845 9.7157 26.8048C7.17145 25.3251 5.23094 22.9951 4.23594 20.2251C3.24095 17.4552 3.25529 14.4229 4.27646 11.6625C5.29762 8.90207 7.2601 6.59051 9.81824 5.13495C12.3764 3.67939 15.3661 3.1732 18.2608 3.70553C21.1555 4.23787 23.7696 5.77458 25.6425 8.045C25.7679 8.19692 25.8622 8.37206 25.9199 8.56041C25.9776 8.74877 25.9977 8.94664 25.9789 9.14275C25.9602 9.33885 25.903 9.52935 25.8106 9.70335C25.7183 9.87736 25.5925 10.0315 25.4406 10.1569C25.2887 10.2823 25.1136 10.3765 24.9252 10.4343C24.7369 10.492 24.539 10.5121 24.3429 10.4933C24.1468 10.4746 23.9563 10.4174 23.7823 10.325C23.6083 10.2327 23.4542 10.1069 23.3288 9.955C21.9465 8.27932 20.0317 7.12796 17.9034 6.69281C15.7752 6.25766 13.5622 6.56501 11.6331 7.56363C9.70397 8.56224 8.17537 10.1918 7.30202 12.1808C6.42866 14.1697 6.26331 16.3979 6.83351 18.4939C7.40372 20.59 8.67503 22.4274 10.4356 23.6998C12.1962 24.9722 14.3396 25.6029 16.5087 25.4866C18.6779 25.3704 20.7417 24.5143 22.3561 23.061C23.9706 21.6077 25.0383 19.645 25.3813 17.5H16C15.6022 17.5 15.2206 17.342 14.9393 17.0607C14.658 16.7794 14.5 16.3978 14.5 16C14.5 15.6022 14.658 15.2206 14.9393 14.9393C15.2206 14.658 15.6022 14.5 16 14.5H27C27.3978 14.5 27.7794 14.658 28.0607 14.9393C28.342 15.2206 28.5 15.6022 28.5 16Z" fill="white"/>
</svg>
