<svg width="19" height="21" viewBox="0 0 19 21" fill="none" xmlns="http://www.w3.org/2000/svg">
<path d="M17.2188 16.7458C17.2188 16.9103 17.1562 17.068 17.0448 17.1843C16.9335 17.3006 16.7825 17.366 16.625 17.366H2.375C2.21753 17.366 2.06651 17.3006 1.95516 17.1843C1.84381 17.068 1.78125 16.9103 1.78125 16.7458C1.78125 16.5813 1.84381 16.4236 1.95516 16.3073C2.06651 16.191 2.21753 16.1257 2.375 16.1257H16.625C16.7825 16.1257 16.9335 16.191 17.0448 16.3073C17.1562 16.4236 17.2188 16.5813 17.2188 16.7458ZM17.2188 4.96318V13.6451C17.2188 13.9741 17.0936 14.2895 16.8709 14.5221C16.6482 14.7547 16.3462 14.8854 16.0312 14.8854H2.96875C2.65381 14.8854 2.35176 14.7547 2.12906 14.5221C1.90636 14.2895 1.78125 13.9741 1.78125 13.6451V4.96318C1.78125 4.63424 1.90636 4.31877 2.12906 4.08617C2.35176 3.85357 2.65381 3.7229 2.96875 3.7229H16.0312C16.3462 3.7229 16.6482 3.85357 16.8709 4.08617C17.0936 4.31877 17.2188 4.63424 17.2188 4.96318ZM12.1719 9.30415C12.1718 9.19978 12.1466 9.09711 12.0985 9.00564C12.0503 8.91418 11.9809 8.83688 11.8965 8.78091L8.6309 6.61042C8.54114 6.55086 8.43771 6.51757 8.33142 6.51403C8.22513 6.51049 8.11988 6.53683 8.02667 6.5903C7.93346 6.64377 7.85571 6.72241 7.80154 6.81799C7.74738 6.91357 7.71878 7.02259 7.71875 7.13366V11.4746C7.71878 11.5857 7.74738 11.6947 7.80154 11.7903C7.85571 11.8859 7.93346 11.9645 8.02667 12.018C8.11988 12.0715 8.22513 12.0978 8.33142 12.0943C8.43771 12.0907 8.54114 12.0574 8.6309 11.9979L11.8965 9.82739C11.9809 9.77142 12.0503 9.69413 12.0985 9.60266C12.1466 9.5112 12.1718 9.40852 12.1719 9.30415Z" fill="white"/>
</svg>
