<svg width="80" height="80" viewBox="0 0 80 80" fill="none" xmlns="http://www.w3.org/2000/svg">
<g filter="url(#filter0_d_211_4460)">
<circle cx="40" cy="35" r="24" fill="white"/>
</g>
<path d="M53.0844 35.6753L41.6299 47.1298C41.4964 47.2635 41.3262 47.3545 41.141 47.3914C40.9557 47.4283 40.7637 47.4094 40.5891 47.3371C40.4146 47.2648 40.2655 47.1423 40.1606 46.9852C40.0557 46.8281 39.9998 46.6434 40 46.4545V41.6817H30.4545C29.9482 41.6817 29.4626 41.4806 29.1046 41.1226C28.7466 40.7646 28.5454 40.279 28.5454 39.7727V30.2272C28.5454 29.7209 28.7466 29.2353 29.1046 28.8773C29.4626 28.5192 29.9482 28.3181 30.4545 28.3181H40V23.5454C39.9998 23.3565 40.0557 23.1718 40.1606 23.0147C40.2655 22.8576 40.4146 22.7351 40.5891 22.6628C40.7637 22.5905 40.9557 22.5716 41.141 22.6085C41.3262 22.6454 41.4964 22.7364 41.6299 22.87L53.0844 34.3246C53.1732 34.4132 53.2436 34.5185 53.2916 34.6344C53.3396 34.7503 53.3644 34.8745 53.3644 34.9999C53.3644 35.1254 53.3396 35.2496 53.2916 35.3655C53.2436 35.4813 53.1732 35.5866 53.0844 35.6753Z" fill="#379C73"/>
<defs>
<filter id="filter0_d_211_4460" x="0" y="0" width="80" height="80" filterUnits="userSpaceOnUse" color-interpolation-filters="sRGB">
<feFlood flood-opacity="0" result="BackgroundImageFix"/>
<feColorMatrix in="SourceAlpha" type="matrix" values="0 0 0 0 0 0 0 0 0 0 0 0 0 0 0 0 0 0 127 0" result="hardAlpha"/>
<feMorphology radius="1" operator="dilate" in="SourceAlpha" result="effect1_dropShadow_211_4460"/>
<feOffset dy="5"/>
<feGaussianBlur stdDeviation="7.5"/>
<feComposite in2="hardAlpha" operator="out"/>
<feColorMatrix type="matrix" values="0 0 0 0 0 0 0 0 0 0 0 0 0 0 0 0 0 0 0.25 0"/>
<feBlend mode="normal" in2="BackgroundImageFix" result="effect1_dropShadow_211_4460"/>
<feBlend mode="normal" in="SourceGraphic" in2="effect1_dropShadow_211_4460" result="shape"/>
</filter>
</defs>
</svg>
